<mxfile host="app.diagrams.net" modified="2022-09-20T07:29:46.689Z" agent="5.0 (Windows NT 10.0; Win64; x64) AppleWebKit/537.36 (KHTML, like Gecko) Chrome/105.0.0.0 Safari/537.36" etag="ovt3ZgwwOisWkyztFgNy" version="20.3.3" type="github">
  <diagram name="Page-1" id="bfe91b75-5d2c-26a0-9c1d-138518896778">
    <mxGraphModel dx="3380" dy="2600" grid="1" gridSize="10" guides="1" tooltips="1" connect="1" arrows="1" fold="1" page="1" pageScale="1" pageWidth="1100" pageHeight="850" background="none" math="0" shadow="0">
      <root>
        <mxCell id="0" />
        <mxCell id="1" parent="0" />
        <mxCell id="7c3789c024ecab99-78" value="DataCenter" style="rounded=1;whiteSpace=wrap;html=1;shadow=0;comic=0;strokeColor=#036897;strokeWidth=2;fillColor=none;fontFamily=Verdana;fontSize=28;fontColor=#6881B3;align=left;arcSize=11;verticalAlign=top;labelPosition=center;verticalLabelPosition=middle;horizontal=1;spacing=30;" parent="1" vertex="1">
          <mxGeometry x="60" y="750" width="1550" height="1260" as="geometry" />
        </mxCell>
        <mxCell id="7c3789c024ecab99-3" value="" style="fontColor=#0066CC;verticalAlign=top;verticalLabelPosition=bottom;labelPosition=center;align=center;html=1;fillColor=#CCCCCC;strokeColor=#6881B3;gradientColor=none;gradientDirection=north;strokeWidth=2;shape=mxgraph.networks.pc;rounded=0;shadow=0;comic=0;fontSize=28;" parent="1" vertex="1">
          <mxGeometry x="850.0000000000002" y="-170" width="100" height="70" as="geometry" />
        </mxCell>
        <mxCell id="7c3789c024ecab99-12" value="" style="fontColor=#0066CC;verticalAlign=top;verticalLabelPosition=bottom;labelPosition=center;align=center;html=1;fillColor=#CCCCCC;strokeColor=#6881B3;gradientColor=none;gradientDirection=north;strokeWidth=2;shape=mxgraph.networks.mobile;rounded=0;shadow=0;comic=0;fontSize=28;" parent="1" vertex="1">
          <mxGeometry x="680.0000000000002" y="-190" width="50" height="100" as="geometry" />
        </mxCell>
        <mxCell id="7c3789c024ecab99-53" value="Internet" style="html=1;fillColor=#CCCCCC;strokeColor=#6881B3;gradientColor=none;gradientDirection=north;strokeWidth=2;shape=mxgraph.networks.cloud;fontColor=#6881B3;rounded=0;shadow=0;comic=0;align=center;fontSize=28;" parent="1" vertex="1">
          <mxGeometry x="610" y="100" width="330" height="140" as="geometry" />
        </mxCell>
        <mxCell id="7c3789c024ecab99-56" style="edgeStyle=none;html=1;labelBackgroundColor=none;endArrow=none;endFill=0;strokeWidth=2;fontFamily=Verdana;fontSize=28;fontColor=#6881B3;shape=arrow;" parent="1" edge="1">
          <mxGeometry relative="1" as="geometry">
            <mxPoint x="780" y="250" as="sourcePoint" />
            <mxPoint x="780" y="330" as="targetPoint" />
          </mxGeometry>
        </mxCell>
        <mxCell id="QuiFpk8wdqZ-4DI5n4hr-9" value="&lt;span style=&quot;background-color: initial; font-size: 28px;&quot;&gt;&lt;font style=&quot;font-size: 28px;&quot;&gt;&lt;br style=&quot;font-size: 28px;&quot;&gt;Cyber Requirement&lt;br style=&quot;font-size: 28px;&quot;&gt;&lt;/font&gt;&lt;/span&gt;&lt;p style=&quot;margin-bottom: 0cm; line-height: normal; background: white; font-size: 28px;&quot; class=&quot;MsoNormal&quot;&gt;&lt;font style=&quot;font-size: 28px;&quot;&gt;&lt;b style=&quot;font-size: 28px;&quot;&gt;&lt;span style=&quot;font-size: 28px;&quot;&gt;A resource within the core (non-DMZ) network&amp;nbsp;is provided a policy enforcement point within a DMZ to ensure that inbound&amp;nbsp;traffic from an external network is:&lt;/span&gt;&lt;/b&gt;&lt;span style=&quot;font-size: 28px;&quot;&gt;&lt;/span&gt;&lt;/font&gt;&lt;/p&gt;&lt;ol style=&quot;font-size: 28px;&quot; type=&quot;1&quot; start=&quot;1&quot;&gt;&lt;li style=&quot;font-size: 28px;&quot;&gt;&lt;span style=&quot;background-color: initial; font-size: 28px;&quot;&gt;&lt;font style=&quot;font-size: 28px;&quot;&gt;Expected&lt;/font&gt;&lt;/span&gt;&lt;/li&gt;&lt;li class=&quot;MsoNormal&quot; style=&quot;font-size: 28px;&quot;&gt;&lt;font style=&quot;font-size: 28px;&quot;&gt;&lt;span style=&quot;background-color: initial; font-size: 28px;&quot;&gt;From a legitimate client&lt;/span&gt;&lt;br style=&quot;font-size: 28px;&quot;&gt;&lt;/font&gt;&lt;/li&gt;&lt;li class=&quot;MsoNormal&quot; style=&quot;font-size: 28px;&quot;&gt;&lt;font style=&quot;font-size: 28px;&quot;&gt;&lt;span style=&quot;font-size: 28px;&quot;&gt;Attributed to a valid&amp;nbsp;application user or application session&lt;/span&gt;&lt;span style=&quot;font-size: 28px;&quot;&gt;&lt;/span&gt;&lt;/font&gt;&lt;/li&gt;&lt;li class=&quot;MsoNormal&quot; style=&quot;font-size: 28px;&quot;&gt;&lt;font style=&quot;font-size: 28px;&quot;&gt;&lt;i style=&quot;font-size: 28px;&quot;&gt;&lt;span style=&quot;font-size: 28px;&quot;&gt;Future State Requirement&lt;/span&gt;&lt;/i&gt;&lt;span style=&quot;font-family: &amp;quot;Segoe UI&amp;quot;, sans-serif; font-size: 28px;&quot;&gt;&amp;nbsp;â€“&lt;br style=&quot;font-size: 28px;&quot;&gt;     Filtered for malicious activity (Denial of Service, Vulnerability&amp;nbsp;Exploits, Functionality Abuse, Access Violations, and client-side&amp;nbsp;tampering)&lt;/span&gt;&lt;span style=&quot;font-size: 28px;&quot;&gt;&lt;/span&gt;&lt;/font&gt;&lt;/li&gt;&lt;/ol&gt;&lt;font style=&quot;font-size: 28px;&quot;&gt;&lt;br style=&quot;font-size: 28px;&quot;&gt;&lt;/font&gt;" style="rounded=1;whiteSpace=wrap;html=1;fontSize=28;align=left;gradientColor=none;perimeterSpacing=0;shadow=1;glass=1;sketch=0;spacingTop=0;spacingLeft=0;spacingBottom=0;spacing=20;" parent="1" vertex="1">
          <mxGeometry x="1430" y="-200" width="1300" height="410" as="geometry" />
        </mxCell>
        <mxCell id="QuiFpk8wdqZ-4DI5n4hr-11" value="&lt;!--?xml version=&quot;1.0&quot; encoding=&quot;utf-8&quot;?--&gt;&#xa;&lt;!-- Generator: Adobe Illustrator 19.2.1, SVG Export Plug-In . SVG Version: 6.00 Build 0)  --&gt;&#xa;&lt;svg version=&quot;1.1&quot; id=&quot;Layer_1&quot; xmlns=&quot;http://www.w3.org/2000/svg&quot; xmlns:xlink=&quot;http://www.w3.org/1999/xlink&quot; x=&quot;0px&quot; y=&quot;0px&quot; width=&quot;423.5px&quot; height=&quot;186px&quot; viewBox=&quot;0 0 423.5 186&quot; style=&quot;font-size: 28px;&quot; xml:space=&quot;preserve&quot;&gt;&#xa;&lt;style type=&quot;text/css&quot; style=&quot;font-size: 28px;&quot;&gt;&#xa; .st0{fill:#F38B00;}&#xa; .st1{fill:#009BDE;}&#xa;&lt;/style&gt;&#xa;&lt;g style=&quot;font-size: 28px;&quot;&gt;&#xa; &lt;g style=&quot;font-size: 28px;&quot;&gt;&#xa;  &lt;g style=&quot;font-size: 28px;&quot;&gt;&#xa;   &lt;path class=&quot;st0&quot; d=&quot;M131.6,131.8h-16.8l14.5-29.3h0.2L131.6,131.8L131.6,131.8z M132.4,145l1,11.6h18.4l-6.1-67.7h-27.4&#xa;    l-34.7,67.7h18.8l5.8-11.6L132.4,145L132.4,145z&quot; style=&quot;font-size: 28px;&quot;&gt;&lt;/path&gt;&#xa;   &lt;polygon class=&quot;st0&quot; points=&quot;177.6,127 180.3,127 193.5,109.2 210.5,109.2 192.3,132 203.5,156.6 185.4,156.6 178.1,137.4 &#xa;    175.4,137.4 171.3,156.6 155.8,156.6 170.1,88.9 185.7,88.9    &quot; style=&quot;font-size: 28px;&quot;&gt;&lt;/polygon&gt;&#xa;   &lt;path class=&quot;st0&quot; d=&quot;M230.4,137c5.1,0,8.4,0.4,7.6,4.3c-1.1,5-3.2,5.8-9.7,5.8c-2.4,0-6.8,0-5.7-5.1&#xa;    C223.5,137.7,226.6,137,230.4,137L230.4,137z M234.7,156.6h15.5l6.3-29.6c3.5-16.3-2.8-18.3-18.7-18.3c-11.1,0-21.8-0.1-25,14.6&#xa;    h15.5c0.9-4.3,3.5-5.1,7.4-5.1c6.8,0,6.5,2.8,5.5,7.2l-1.6,7.5h-0.7c-0.6-5.4-7.4-5.3-11.8-5.3c-11.2,0-17.9,3.5-20.3,14.9&#xa;    c-2.6,12.1,3.2,14.7,14,14.7c5.4,0,12.7-1.1,15.2-7.6h0.5L234.7,156.6L234.7,156.6z&quot; style=&quot;font-size: 28px;&quot;&gt;&lt;/path&gt;&#xa;   &lt;path class=&quot;st0&quot; d=&quot;M281.6,109.2l-1.4,6.7h0.6c3.1-5.6,9.2-7.2,14.5-7.2c6.7,0,13.3,1.2,12.4,9.3h0.7c2.3-6.8,9.2-9.3,15.2-9.3&#xa;    c10.9,0,15.6,4.5,13.2,15.5l-6.9,32.4h-15.5l5.8-27.4c0.8-5,1.6-8.6-4.4-8.6s-8.1,4-9.1,9.1l-5.7,26.9h-15.5l6.1-28.7&#xa;    c0.7-4.3,1.1-7.3-4.3-7.3c-6.4,0-8.3,3.4-9.5,9.1l-5.7,26.9h-15.5l10.1-47.4L281.6,109.2L281.6,109.2z&quot; style=&quot;font-size: 28px;&quot;&gt;&lt;/path&gt;&#xa;   &lt;path class=&quot;st0&quot; d=&quot;M361.2,137c5,0,8.4,0.4,7.6,4.3c-1,5-3.2,5.8-9.7,5.8c-2.3,0-6.8,0-5.7-5.1C354.3,137.7,357.4,137,361.2,137&#xa;    L361.2,137z M365.5,156.6H381l6.3-29.6c3.5-16.3-2.8-18.3-18.7-18.3c-11.1,0-21.9-0.1-25,14.6h15.5c0.9-4.3,3.5-5.1,7.4-5.1&#xa;    c6.8,0,6.5,2.8,5.5,7.2l-1.4,7.5h-0.7c-0.6-5.4-7.4-5.3-11.8-5.3c-11.2,0-17.9,3.5-20.3,14.9c-2.6,12.1,3.2,14.7,14,14.7&#xa;    c5.4,0,12.7-1.1,15.3-7.6h0.5L365.5,156.6L365.5,156.6z&quot; style=&quot;font-size: 28px;&quot;&gt;&lt;/path&gt;&#xa;   &lt;path class=&quot;st0&quot; d=&quot;M403.4,156.6h-15.5l10-47.4h15.5L403.4,156.6L403.4,156.6z&quot; style=&quot;font-size: 28px;&quot;&gt;&lt;/path&gt;&#xa;  &lt;/g&gt;&#xa;  &lt;path class=&quot;st1&quot; d=&quot;M91.5,173C57.1,162.5,32,130.7,32,93.1C32,55,57.6,22.9,92.6,12.8c3.6-1,2.6-3.4-1.7-3.4&#xa;   C44.4,9.4,6.6,46.9,6.6,93.1s37.7,83.6,84.3,83.6C95.2,176.7,95.4,174.2,91.5,173z&quot; style=&quot;font-size: 28px;&quot;&gt;&lt;/path&gt;&#xa;  &lt;path class=&quot;st1&quot; d=&quot;M48,112.6c-0.2-2.2-0.4-4.5-0.4-6.8c0-36.7,29.7-66.4,66.4-66.4c34.7,0,45.1,15.5,46.4,14.5&#xa;   c1.4-1.1-12.6-31.8-53.3-31.8c-36.7,0-66.4,29.7-66.4,66.4c0,8.5,1.6,16.6,4.5,24C46.4,115.7,48.3,115.7,48,112.6z&quot; style=&quot;font-size: 28px;&quot;&gt;&lt;/path&gt;&#xa;  &lt;path class=&quot;st1&quot; d=&quot;M75.8,64.8c17.2-7.5,38.9-7.7,60.2-0.3c14.3,5,22.6,12.1,23.3,11.8c1.1-0.5-8.3-15.5-25.4-21.9&#xa;   c-20.7-7.8-42.9-3.7-59.1,9C73,64.8,73.7,65.7,75.8,64.8z&quot; style=&quot;font-size: 28px;&quot;&gt;&lt;/path&gt;&#xa;  &lt;path class=&quot;st0&quot; d=&quot;M416.9,96.1c0,4.8-3.9,8.7-8.7,8.7c-4.8,0-8.7-3.9-8.7-8.7c0-4.8,3.9-8.7,8.7-8.7S416.9,91.3,416.9,96.1z&quot; style=&quot;font-size: 28px;&quot;&gt;&lt;/path&gt;&#xa; &lt;/g&gt;&#xa;&lt;/g&gt;&#xa;&lt;/svg&gt;" style="text;whiteSpace=wrap;html=1;fontSize=28;" parent="1" vertex="1">
          <mxGeometry x="880" y="1820" width="340" height="270" as="geometry" />
        </mxCell>
        <mxCell id="QuiFpk8wdqZ-4DI5n4hr-13" value="&lt;font&gt;&lt;br style=&quot;font-size: 28px;&quot;&gt;&lt;b style=&quot;font-size: 28px; background-color: initial;&quot;&gt;F5 LTM&lt;br style=&quot;font-size: 28px;&quot;&gt;&lt;/b&gt;A requests first port of call within the Dell ecosystem.&amp;nbsp;&lt;br style=&quot;font-size: 28px;&quot;&gt;&lt;br style=&quot;font-size: 28px;&quot;&gt;&lt;/font&gt;&lt;font style=&quot;font-size: 28px;&quot;&gt;&lt;br style=&quot;font-size: 28px;&quot;&gt;&lt;/font&gt;" style="rounded=1;whiteSpace=wrap;html=1;fontSize=28;align=left;gradientColor=none;perimeterSpacing=0;shadow=1;glass=1;sketch=0;spacingTop=0;spacingLeft=0;spacingBottom=0;spacing=20;" parent="1" vertex="1">
          <mxGeometry x="1680" y="790" width="1040" height="180" as="geometry" />
        </mxCell>
        <mxCell id="QuiFpk8wdqZ-4DI5n4hr-14" value="&lt;font style=&quot;font-size: 28px;&quot;&gt;&lt;b style=&quot;font-size: 28px;&quot;&gt;&lt;span style=&quot;font-size: 28px;&quot;&gt;Akamai&lt;/span&gt;&lt;br style=&quot;font-size: 28px;&quot;&gt;&lt;/b&gt;&lt;span style=&quot;font-size: 28px;&quot;&gt;Users accessing dell.com will be first directed to the Akamai gateway.&amp;nbsp;&lt;/span&gt;&lt;br style=&quot;font-size: 28px;&quot;&gt;&lt;span style=&quot;font-size: 28px;&quot;&gt;Akamai is our edge DNS provider, and includes a WAF. &lt;br style=&quot;font-size: 28px;&quot;&gt;Among other threats this layer provides protection against D&lt;/span&gt;&lt;span style=&quot;background-color: initial; font-size: 28px;&quot;&gt;DoS attacks&lt;br style=&quot;font-size: 28px;&quot;&gt;&lt;/span&gt;&lt;span style=&quot;background-color: initial; font-size: 28px;&quot;&gt;Bot Manager - filter out suspicious requests / brute force&lt;br style=&quot;font-size: 28px;&quot;&gt;https://www.akamai.com/our-thinking/carrier-security&lt;/span&gt;&lt;span style=&quot;background-color: initial; font-size: 28px;&quot;&gt;&lt;br style=&quot;font-size: 28px;&quot;&gt;&lt;/span&gt;&lt;/font&gt;" style="rounded=1;whiteSpace=wrap;html=1;fontSize=28;align=left;gradientColor=none;perimeterSpacing=0;shadow=1;glass=1;sketch=0;spacingTop=0;spacingLeft=0;spacingBottom=0;spacing=20;" parent="1" vertex="1">
          <mxGeometry x="1680" y="255" width="1050" height="290" as="geometry" />
        </mxCell>
        <mxCell id="QuiFpk8wdqZ-4DI5n4hr-17" value="" style="shape=flexArrow;endArrow=classic;startArrow=classic;html=1;rounded=0;fontSize=28;entryX=1.042;entryY=0.564;entryDx=0;entryDy=0;entryPerimeter=0;" parent="1" target="QuiFpk8wdqZ-4DI5n4hr-25" edge="1">
          <mxGeometry width="100" height="100" relative="1" as="geometry">
            <mxPoint x="1220" y="590" as="sourcePoint" />
            <mxPoint x="1470" y="420" as="targetPoint" />
          </mxGeometry>
        </mxCell>
        <mxCell id="QuiFpk8wdqZ-4DI5n4hr-18" value="&lt;font style=&quot;font-size: 28px;&quot;&gt;&lt;b style=&quot;font-size: 28px;&quot;&gt;F5 GTM&amp;nbsp;&lt;/b&gt;&lt;br style=&quot;font-size: 28px;&quot;&gt;&lt;ul style=&quot;font-size: 28px;&quot;&gt;&lt;li style=&quot;font-size: 28px;&quot;&gt;&lt;font style=&quot;font-size: 28px;&quot;&gt;Provides DNS Lookup for LTMS&lt;/font&gt;&lt;/li&gt;&lt;li style=&quot;font-size: 28px;&quot;&gt;&lt;font style=&quot;font-size: 28px;&quot;&gt;Load balances requests across DCs&lt;/font&gt;&lt;/li&gt;&lt;/ul&gt;&lt;/font&gt;" style="rounded=1;whiteSpace=wrap;html=1;fontSize=28;align=left;gradientColor=none;perimeterSpacing=0;shadow=1;glass=1;sketch=0;spacingTop=0;spacingLeft=0;spacingBottom=0;spacingRight=0;spacing=20;" parent="1" vertex="1">
          <mxGeometry x="1680" y="580" width="1040" height="180" as="geometry" />
        </mxCell>
        <mxCell id="QuiFpk8wdqZ-4DI5n4hr-21" value="" style="rounded=1;whiteSpace=wrap;html=1;shadow=1;glass=1;sketch=0;fontSize=28;fillColor=#fff2cc;strokeColor=#d6b656;align=left;" parent="1" vertex="1">
          <mxGeometry x="90" y="1170" width="750" height="810" as="geometry" />
        </mxCell>
        <mxCell id="QuiFpk8wdqZ-4DI5n4hr-22" value="" style="shape=image;verticalLabelPosition=bottom;labelBackgroundColor=default;verticalAlign=top;aspect=fixed;imageAspect=0;image=data:image/jpeg,/9j/4AAQSkZJRgABAQEAYABgAAD/2wBDAAMCAgMCAgMDAwMEAwMEBQgFBQQEBQoHBwYIDAoMDAsKCwsNDhIQDQ4RDgsLEBYQERMUFRUVDA8XGBYUGBIUFRT/2wBDAQMEBAUEBQkFBQkUDQsNFBQUFBQUFBQUFBQUFBQUFBQUFBQUFBQUFBQUFBQUFBQUFBQUFBQUFBQUFBQUFBQUFBT/wAARCABAAOYDASIAAhEBAxEB/8QAHwAAAQUBAQEBAQEAAAAAAAAAAAECAwQFBgcICQoL/8QAtRAAAgEDAwIEAwUFBAQAAAF9AQIDAAQRBRIhMUEGE1FhByJxFDKBkaEII0KxwRVS0fAkM2JyggkKFhcYGRolJicoKSo0NTY3ODk6Q0RFRkdISUpTVFVWV1hZWmNkZWZnaGlqc3R1dnd4eXqDhIWGh4iJipKTlJWWl5iZmqKjpKWmp6ipqrKztLW2t7i5usLDxMXGx8jJytLT1NXW19jZ2uHi4+Tl5ufo6erx8vP09fb3+Pn6/8QAHwEAAwEBAQEBAQEBAQAAAAAAAAECAwQFBgcICQoL/8QAtREAAgECBAQDBAcFBAQAAQJ3AAECAxEEBSExBhJBUQdhcRMiMoEIFEKRobHBCSMzUvAVYnLRChYkNOEl8RcYGRomJygpKjU2Nzg5OkNERUZHSElKU1RVVldYWVpjZGVmZ2hpanN0dXZ3eHl6goOEhYaHiImKkpOUlZaXmJmaoqOkpaanqKmqsrO0tba3uLm6wsPExcbHyMnK0tPU1dbX2Nna4uPk5ebn6Onq8vP09fb3+Pn6/9oADAMBAAIRAxEAPwD9HaKKxfFXi/TPBun/AGvUptgY4jiQZkkPoo/yBQBtUV84+Kv2g9YuGb7E8Gi2nIU4DysPdmGPyA6964O5+NGqSyFm8S6hn/pnLIo/IYFZyqQhpKSR20cFisSr0aUpLyTZ9lUV8Yf8Lk1P/oZdU/8AAiX/ABo/4XJqf/Qy6p/4ES/41Ht6X8y+86f7JzD/AJ8T/wDAWfZ9FfGH/C5NT/6GXVP/AAIl/wAaP+Fyan/0Muqf+BEv+NHt6X8y+8P7JzD/AJ8T/wDAWfZ9RzXEVuuZXVB7mvnz4bza/wCLLX+1rzxBq0WlKTs3XUiGbHU5J4Uev+FcP8Vv2wNO8OXU2m+FYI9fvYxsbUJ5CbZWHpjmT65A9Ca7sPRqYp2pK542IksK3Gto106n1e2vWqnALN7hf8adHrVpJx5mw/7QxX5w337THxP1r7Rcw6z9kt7dQ8i2lrEqICwUZJUk5JHc1f8ADf7Xnj7RZovt89prluvDJdW6xsR7NHt59yD+Neo8oxFrpr7/APgHm/2lRvazP0cVlkUMpDKehBzS184fCv8AaJ0D4swjTFuLjw7rsgP+hfaCpcgdYpBgPj0IB68EDNV/G2seLvBl4om17UJbOU/ubgStg/7J9DXmSw9WM/ZOL5ux3xrU5Q509D6Xor5D/wCFpeIP+g/qH/f5qP8AhaXiD/oP6h/3+ar+p4j/AJ9v7mL6xS/nX3n15RXyH/wtLxB/0H9Q/wC/zUf8LS8Qf9B/UP8Av81H1PEf8+39zD6xS/nX3n15RXyH/wALS8Qf9B/UP+/zUf8AC0vEH/Qf1D/v81H1PEf8+39zD6xS/nX3n15RXyH/AMLS8Qf9B/UP+/zUf8LS8Qf9B/UP+/zUfU8R/wA+39zD6xS/nX3n15RXyH/wtLxB/wBB/UP+/wA1H/C0vEH/AEH9Q/7/ADUfU8R/z7f3MPrFL+dfefXlFfIg+KfiAEH+39Q/7+tWzpPxw8TWMyn+01vU/wCeV1EpB/EAN+tTLDV4K8oNL0Y41qcnZSX3n1FRXn3gP4xad4uljsrpP7O1NuFRmzHKfRW9fY/rXoNcxsFFFFAFPWNWt9B0u61C7fZb28Zkc9zjsPcnge5r48+JHxBu9a1KXUbxt9zL8sEOfliQdAPYZ/EmvfP2hNWe08L2dijFftdxl8HqqDOP++ip/Cvj/wAQ3TXWrTkn5Yz5aj0xx/PNcWLrOjT93dn0/D2WwzLGctX4Iq78+yKVzdS3kxkmdpHPc1FRXvPwK8G+Br74Z+K/FHjLRJ9Xj0mdAPs08iSBCo4AWRAeT3NfPwg6rbvsru5+x4rE08voqXI2rpJRS66JJXSPBqK9W+JGr/C7xFpNlZeAPC+raVrcl4gaS8kZ1eMqw2AGd+SxTt2PPr6H8WvBfgz4VyNaJ8J9Q1u0gs4zP4g/tG8ht1mb5eSAUznb3Ay2MCq9i1FyurLTrrpft+ZyvNIxlTg6UlKd7J8qellreSWt9NW2fM1b/gPwu3jHxZp+lAsscz5ldeqxqMsfyH5kVgV7T+zHpqza5rV8VBa3t44gT23sT/7TooQ9pUjFmubYp4LA1a8d0tPV6L8WY37WXxSPhnTLTwDoMn2QSW6m+MPGyDGEhB7bgMn2AHRjXyO77a7D4veIJPEnxO8T6jK5k8y/lSMn/nmjFEH4Kqj8K9d/ZK/ZWvfjHrVv4m8QQPa+CbKYNtkXB1J1PMSf9M8jDN9VHOSv7HRVPAYVOWnf1P5PqyqYzEO2pznjHwW/wy/Zj8PT6jD9n1vxpq41FEfhxY28LCMY7bmuN/0ZPStIaJ4Y8Haz4Us/Flp5ngHxxo9pfpexYWbSbto1SaWJ+wWUHcn3SjLkEotQft9fFODxt8b30TT5FbTPC9uNOXyz8nnk7psemDtjI9YjXfftCeCxN+w18J9dEeLrS0tssR0huYiW/NhFXMq0uWDno5t/K+33aG/s1zTUfsr/AIf9Tx743/A3xH+z74qt47qZrnTZ287S9ctMqkwByOR9yQcErnjggkYNfSXwO+IkPx2+Hd5outsH1ywVUnlwMyA58uce+QQ2O49GxXQ/sx6lpf7V37LV14L8UET3+isNONx96WLambW4X0ZRlf8Aa8ts8Ma+bPgHb6p8Kf2kv+EY1MGK6SW40q7VCSr4UspHqpZEYH0OaxnUeIpSjLSpT1v6dfmaQj7CpGUfgnpY7DULGbTL64tJ12TQO0br7g4qCu6+M9itn44lkX/l5hjmIHrgr/7LXC19BQqe2pRqd0edVh7Obh2CiiitzMKK9o8J+AfBfg/wPYeK/H32q+bVM/YdJtSysyZHz8FSTjnlgACOpIqr450/4W654Jk1jwrcTaBqtvKI/wCyrx3d7jOexZ8cDIYNtHQ4JFcX1uPPyqLava9tLnSqEnFSbSvrbqeQ0V9IfDPR/hD8Rb7+y7XwrqKX8Fn9omkubiVUbbtDY2znklvQVn+EtJ+FnxE8faTpOi+Gr+1txHcPdpeTyASYUbMETMeDn0/GsnjlGUouEvdV3ttr5+RSw7cVJSWrt13+7zPn+ivbfFXwp0WH43aFo+m2rReHtQVLhovMdsIhYTLuJ3D/AFbd+M8dqpftEeB/Dvgy68PN4dsDYW99bPM6maSQtyu0/OzY4ParhjKc5Qik7y/Dff7mEsNOKm39m3422+9Hj9FFFd5yF2xvmjdVdjjPDdxX1F8G/H0ni3R3s72TfqVkAGc9ZY+gY+/Y/ge9fKFek/BjWn03xvpDhsLcMbaQf3gwwP8Ax7afwr5LNsLGm1WgrX3PewFeU705dD6pooor5w9c8l/aJ09ptB0u8AysFw0be29c5/8AHP1r4u8TXT6dr15C5x+8Lj6NyP51+i3irw/D4q8P3ulznalwmA/9xgcq34EA18L/ABd+HeoGaZBAYtYsSUeA/wDLVeuAe/XIPcH3rz8dSlUpXhuj7LhXMKWBx3LiHaE1a/Z9G/Lp87nn39sf7VfUf7Nvjy88EfAL4i+I7COCe80+5jkjS5VmjJKqPmCkHv2Ir4jk1Z4ZGjkDRyKdrKwwQR2IrQs/iDrGm6TeaVaaxfWul3hBubKG5dIZyOm9AdrdB1Havm6WJdLmtu00vJn7fmOS/wBoUY0tLc0W/NJ3a+aPobxR+0N4n+NnibwpbXZ0XRLyzvlNndxxyJFHK7IA0u9pPlBVT931zmvevhvD8UNH+KniaP4lXs1/4Vi0qR768myNKdNi4MYKqgO3duCqDw24dz+dn9tf7Vb198WPE+p6HHot54l1a70eNURNPnvpXt1VMbAIy20BcDAxxitaeM5buV29fR3VtV/V9jz8Zwz7WmqGGUYwtb4btXd7xf6bX1Ojutaia6maDKQFyY1Y5IXPAP4V7h+yz4ih+2eJbVn/AHzxQTKP9lS4b9XX86+Tv7a/2q6z4T/E4eBvHljezSBbGf8A0W6LdBG5HzH6EK34VGFrKnVi3sb59lU8TltalTWtrr5NO34H3b8Gf2Q/B0eg2mseL9Dt9Y1x9SvNQQ3GTH5ckgESuucOuxEYKwIBkfiqf7Wv7X2ifAnw9ceFfCs9vdeN5YfIit7faY9KQrxJIBwGAI2x/QkbcZ8V/aN/aa+M/gsW2oeGNdg07RCFikEOm28phfPynMiN8rDA9iPcV8feNvH/AIm+LGv/ANu+LNQGq6t5Yia6NvFC7KOgby1XdjOBnoMDoK/TsPRnipKrVd12P5RrVY4dOnTVmR+C/C+rfEjxrpmiWIku9W1e7WFWY7mLO3zOxPYDLEnsCa/SL9vWGw8H/sowaHB+5g+2WNhaR57RgsB+CRH8qyv2BfhL4LuvAOh/EK10zZ4riS6065uPNdk3CU/OEJIVjHsGRjgn1rz/AP4Ke6nf3GqeE9OOtaSul20bzLo8c7NftM/Bmkj27VjCqFUluSX/AA1qVfb4qFNaKLIhT9lh5Tf2jL/4JbapPF468daaHP2afToLh1zxuSUqp/KRvzr0D40fCrWo/wBsrTPGMelTxeHZoYWl1Pjy2uEt3QIO+cIleXfsGftPab4A1yPwL4rS1tbDUH8vTtaaNVeCRmz5Er4yY2P3ST8rcH5Tlfov40fEiK68e3ZkuPL0bQImhLdmlJBlb3OQiAeqHH3q58RKpSxEml8St+htRjCpRim9nc8n+N2rJP42MaHm3to42+py38mFcB9srL1TxNL4g1W81Gc/vLmQybc52g9B+AwPwqt9u96+1w1D2VGEH0R81Wre0qSkurN37ZR9srC+3e9H273ro5DH2h9U6l4Zu/jh8G/CNx4YeG61bQIvsV1pzSqj9FXOWwAcIG5IBBODkYrrfE2jafY/CXxJeeIvAWg+Db6K0aCyfzLaaaaXyzhlZEG1iegBLZB6YyfjbSPFOo+H7z7XpeoXWm3W0r59nM0T7T1G5SDipNa8Yat4knjm1fVbzVJo12JJe3DzMq5zgFicDNePPL6knyqVo3b63V3dre33o9GnjYRSco3klbpZ22vp+R7x+yXceb8RdTH/AFCJj/5Eiqp+y7ceZ8ZLZf8Ap3uP/Qa8P0fxXqfh65a40rUrvTLhkMbS2c7ROVJBKkqQccDj2pNK8UajoN6LzTdQutOuwCBcWszRSAHqNykHmuqphHOVVp/FG35/5nPHEKMYR7Sv+X+R9b2l7HdeA9Z8YCRTc6CutWKSdG8yaYGI/gJG/wC+q439py8D6b8PpQxYSaQH3euVjOa+f18Zaumm3Wnrq18thdyebcWouHEUz5B3OmcMcgckdhTNT8WanrUdrHqGpXd+lqnlQLdTtIIU4+VAxO0cDgelc1LL3TqxqN7P9H+rbOipjlOEo23/AM1+isXvtlH2ysL7d70fbvevX5DzvaG79sr0T4V28k3izw+FGW+1RyfQBs15roOnyapKJGBW2U8t/e9hX0f8CfB8kmpHV549scK/u8j1HH+P4D1r5LOsRB2oReq1Z9BltKWtWW3Q93ooor5Y94K5D4gfDXT/AB3ahnP2TUoxiK7VcnH91h/Ev6jt3B6+igD4v+JX7OUsk0kmr6I8pUcalp+Tx0yWA/8AQxXkr/s/aMrsP7Vv15+6xjyP/Ha/SqmS28U+PMjSTHTcoOK5amFoVHzTirn0GE4gzXA01Sw+Ikorpe6Xpe9vkfmv/wAM/wCi/wDQXvvzj/8AiaP+Gf8ARf8AoL335x//ABNfpJ/Z9r/z7Q/9+xR/Z9r/AM+0P/fsVn9Rw38h2/62Z3/0Ev8AD/I/Nv8A4Z/0X/oL335x/wDxNRTfs+6Mw/5C19+cf/xNfpT/AGfa/wDPtD/37FH9n2v/AD7Q/wDfsUfUcN/IJ8V5298S/wAP8j4++G9jpa+HY/CfiGddRtFj8iKe+2kPH2jftx0B9APSvM/it+x3qugyS33hAjVdPbLfYZHCzwjrgEnDj8QfY9a/Qz+z7X/n2h/79j/CqepaDa30ePLEZxjMfFevhsRPC/w9ux8fioLGSc6vxPW+x+cfgD9pD4h/s7/CrWvBGjeH7jTtVv8AUXu49VvrdibRWjRGEcbLgsTGCC2QOeDnI8n0LwJ46+J+t3GonTtW13UbyXfPf3Cu29z3eV+M/U9q/UO++GsdxNuEgP8AvJ/9etPR/AMNn9+TI9FXFd0cwUW5xgrs4Xg3JKLnoj4r8B/sjxeHY11nxhNBPPFiRLKNswx+8jH7x9hx/vVs+LLeTxQ4soZJ4dOR97bVw0zf3myOnoPxPt9ux6HZwptWFT7sMmpY9Mt4+kSf98iuKWKqyqKq3qvwOqOHpxh7NLQ+Dofh5AqAedc/kP8ACn/8K+g/57XP5D/CvvX7PF/zyT/vkUfZ4v8Ankn/AHyK6f7Txn/PxmH1HDfyHwV/wr6D/ntc/kP8KP8AhX0H/Pa5/If4V96/Z4v+eSf98ij7PF/zyT/vkUf2njP+fjD6jhv5D4K/4V9B/wA9rn8h/hR/wr6D/ntc/kP8K+9fs8X/ADyT/vkUfZ4v+eSf98ij+08Z/wA/GH1HDfyHwV/wr6D/AJ7XP5D/AAo/4V9B/wA9rn8h/hX3r9ni/wCeSf8AfIo+zxf88k/75FH9p4z/AJ+MPqOG/kPgr/hX0H/Pa5/If4Uf8K+g/wCe1z+Q/wAK+9fs8X/PJP8AvkUfZ4v+eSf98ij+08Z/z8YfUcN/IfBX/CvoP+e1z+Q/wq/pfw6ieZQltcXrk8Kw+X9AP1r7m+zxf88k/wC+RTliSM5VFU+wxUyzHFyVnUZUcFh4u6gj588D/BS+vpIptQh+x2q4/dsuOPp3/l7173pel2+j2MdrbJsiQfiT6n3q1RXnHaFFFFAH/9k=;fontSize=28;" parent="1" vertex="1">
          <mxGeometry x="1090" y="596.3" width="350" height="97.39" as="geometry" />
        </mxCell>
        <mxCell id="QuiFpk8wdqZ-4DI5n4hr-33" style="edgeStyle=orthogonalEdgeStyle;shape=arrow;rounded=0;orthogonalLoop=1;jettySize=auto;html=1;entryX=0;entryY=0;entryDx=0;entryDy=0;fontSize=28;" parent="1" source="QuiFpk8wdqZ-4DI5n4hr-24" target="QuiFpk8wdqZ-4DI5n4hr-28" edge="1">
          <mxGeometry relative="1" as="geometry" />
        </mxCell>
        <mxCell id="QuiFpk8wdqZ-4DI5n4hr-34" style="edgeStyle=orthogonalEdgeStyle;shape=arrow;rounded=0;orthogonalLoop=1;jettySize=auto;html=1;entryX=0.141;entryY=-0.019;entryDx=0;entryDy=0;entryPerimeter=0;fontSize=28;exitX=0.619;exitY=1.033;exitDx=0;exitDy=0;exitPerimeter=0;" parent="1" target="QuiFpk8wdqZ-4DI5n4hr-27" edge="1" source="QuiFpk8wdqZ-4DI5n4hr-24">
          <mxGeometry relative="1" as="geometry">
            <mxPoint x="450" y="910" as="sourcePoint" />
          </mxGeometry>
        </mxCell>
        <mxCell id="QuiFpk8wdqZ-4DI5n4hr-25" value="" style="shape=image;verticalLabelPosition=bottom;labelBackgroundColor=default;verticalAlign=top;aspect=fixed;imageAspect=0;image=data:image/jpeg,/9j/4AAQSkZJRgABAQEAYABgAAD/2wBDAAMCAgMCAgMDAwMEAwMEBQgFBQQEBQoHBwYIDAoMDAsKCwsNDhIQDQ4RDgsLEBYQERMUFRUVDA8XGBYUGBIUFRT/2wBDAQMEBAUEBQkFBQkUDQsNFBQUFBQUFBQUFBQUFBQUFBQUFBQUFBQUFBQUFBQUFBQUFBQUFBQUFBQUFBQUFBQUFBT/wAARCAGGA78DASIAAhEBAxEB/8QAHwAAAQUBAQEBAQEAAAAAAAAAAAECAwQFBgcICQoL/8QAtRAAAgEDAwIEAwUFBAQAAAF9AQIDAAQRBRIhMUEGE1FhByJxFDKBkaEII0KxwRVS0fAkM2JyggkKFhcYGRolJicoKSo0NTY3ODk6Q0RFRkdISUpTVFVWV1hZWmNkZWZnaGlqc3R1dnd4eXqDhIWGh4iJipKTlJWWl5iZmqKjpKWmp6ipqrKztLW2t7i5usLDxMXGx8jJytLT1NXW19jZ2uHi4+Tl5ufo6erx8vP09fb3+Pn6/8QAHwEAAwEBAQEBAQEBAQAAAAAAAAECAwQFBgcICQoL/8QAtREAAgECBAQDBAcFBAQAAQJ3AAECAxEEBSExBhJBUQdhcRMiMoEIFEKRobHBCSMzUvAVYnLRChYkNOEl8RcYGRomJygpKjU2Nzg5OkNERUZHSElKU1RVVldYWVpjZGVmZ2hpanN0dXZ3eHl6goOEhYaHiImKkpOUlZaXmJmaoqOkpaanqKmqsrO0tba3uLm6wsPExcbHyMnK0tPU1dbX2Nna4uPk5ebn6Onq8vP09fb3+Pn6/9oADAMBAAIRAxEAPwD9EKKKKACiiigAooooAKKKKACiiigAooooAKKKKACiszXvE2k+F7M3Wr6jb6fAP4p5AufoOp/CvDvGX7X2kae8sHhzTZNUkXhbq6zFEfcL94j64r0cLl+KxrtQg359Pv2PFzDOsvytXxdVRfbd/ctT6Erm/EnxI8MeECy6vrdnZyr1haQGT/vgZP6V8W+K/jv418XNILnWZbS3b/l3sf3KAenHzH8Sa4FmLsWYlmJySepr7DDcJyeuJqW8l/m/8j8yx3iLCN44Ghfzk7fgv80fX3iT9rzwvpu6PSbC91iUdHYCCI/ict/47XnOs/tgeJ7vcNO0zT9PU9GkDSsP1A/SvBqK+lo8P5fRX8Pmfm7/APA/A+FxXGWdYpv99yLtFJfjq/xO+1j48+PdbyJ/El1EpP3bQLAB7fIAfzrlbzxVrWosWutXvrgnr5lw7fzNZdLHG0rqiKXdjgKoySa9mnhqFFfu4JeiSPl62PxeJd61WUn5yb/NgztIxZmLMe5OTSV6j4H/AGcfGHjPZNJaDRrE8/aL/KFh/sp94/iAPevePBv7KXhXQAs2rvNr9112yny4R9EXk/iT9K8nF55gcHeMp80uy1/4H4n0eW8J5tmdpxp8kX1lp+G7+4+QdL0e+1y6W206zuL64bpFbxl2/ICvqT9mX4X+LfB+o3epayZNN06aAxpp0j5aRyQQ5UcLgA+/Ne76PoOm+H7UW2mWFvYQf887eIID7nHWr9fD5lxHPG0pUKdNKL76v/JH6xkfBFLK68MXWrOU47JaL/N/h6BRRRXxx+nBRRRQAUUUUAFFFFABRRRQAUUUUAFFFFABRRRQAUUUUAFFFFABRRRQAUUUUAFFFFABRRRQAUUUUAFFFFABRRRQAUUUUAFFFFABRRRQAUUUUAFFFFABRRRQAUUUUAFFFFABRRRQAUUUUAFFFFABRRRQAUUUUAFFFFABRRRQAUUUUAFFFFABRRRQAUUUUAFFFFABRRRQAUUUUAFFFFABRRRQAUUUUAFFFFABRRRQAUUUUAFFFFABRRRQAUUUUAFFFFABRRRQAUUUUAFFFFABRTJp47aF5ppFiijUs8jnCqB1JPYV8+/FH9qyy0dpNP8ACKJqV2Mh9QlH7hP9wfxn34H1rvweBxGOnyUI3/JerPHzLNsHlFL2uLny9l1fouv9XPbPFPjDRvBemvfa1qENjbr08xvmc+ir1Y+wFfOHxC/a4vLwvaeErP7HD0N/dqGkb/dTov1OfoK8F8ReJtV8WalJf6vfTX905JLzNnHsB0A9hxWZX6RgOG8Ph7TxHvy/D7uvz+4/Dc446xuNvSwX7qHf7T+fT5feX9c8Qal4l1CS91W+n1C7frLcOWP0Geg9hxVCiivr4xUUoxVkfmk5yqSc5u7fVhRRRVEBSojSOqIpZmOAqjJNdv8ADf4O+IfibcA6db+Rpyvtl1CcERJ6gf3j7D9K+t/hr8CfDfw3RZ4YP7S1XHzX90oLD/cXon4c+9fPZjneGy+8G+afZfq+n5n2mScKY/OrVEuSl/M+vouv5eZ87fDv9mDxH4uWC81Y/wBgaa/zfvkzcOvtHxjPq2Poa+l/AvwZ8K/D0LJpunLLeqMfbrrEk3vgn7v/AAECu4or81x2dYvHXU5Wj2W3z7n7tlPC+W5QlKnDmn/NLV/Lovl94UUUV4R9cFFFY2ueNNA8M8atrNjpzdQlxcIjH6KTk1cYSqPlgrszqVYUY89SSS7vQ2aK8z1H9o74f6dnOuC5I7W8Lv8A0rnb39rrwVbEiG21a7PrHboo/wDHnB/SvRhleOqfDRl91vzPDq8QZTR+PEw/8CT/ACue3UV89z/tkaCv+p0DUZP+ujxr/ImoV/bM0rPPhu8A9rhD/SupZFmL/wCXT+9f5nA+LsjTt9ZX3S/yPoqivAYP2xvDTY87RNWj/wCuYib+bitiz/ay8C3QHm/2lZ/9drUH/wBAZqylk2YR3ov8/wAjenxPk1T4cTH56fnY9morzzTf2gfAOp7QniKCBm6C5Vo/1IwK7PR/EWleIIfN0vUrTUYu7Ws6yAfXaTXn1cLXo/xYOPqmj2cPj8JitMPVjL0af5GhRRRXMd4UUUUAFFFFABRRRQAUUUUAFFFFABRRRQAUUUUAFFFFABRRRQAUUUUAFFFFABRRRQAUUUUAFFFFABRRRQAUUUUAFFFFABRRRQAUUUUAFFFFABRRRQAUUUUAFFFFABRRRQAUUUUAFFFFABRRRQAUUUUAFFFFABRRRQAUUUUAFFFFABRRRQAUUUUAFFFFABRRRQAUUUUAFFFFABRRRQAUUUUAFFFFABRRRQAUUUUAFFFFABRRRQAUUUUAFcx49+I2ifDnSWvtYughIPk2yYMszeir/XoK5P4yfHbTfhjbPZW2zUPEEiZjtc/LDno0hHb/AGep9utfGfijxVqvjLWJdT1i8kvLuTjc54VeyqOwHoK+tyjIamOtWr+7T/F+nl5/cfnHEnGFHKb4bC2nW/CPr3fl952XxU+OmvfEy4eFnOnaKD8mnwtw3vIf4j+ntXm9FFfqdDD0sLTVKjG0Ufz3jMZiMfWdfEzcpPq/60XkFFFFdBxBRRWl4d8Oaj4s1i30zSrV7u9nbakaD9SewHcmplJQTlJ2SLhCVSShBXb2SKEMMlxMkUSNLK7BVRBksT0AFfSPwf8A2W2uFt9Y8ZI0cf349JBwx9DKR0/3Rz6+lekfBv4BaZ8N4YtQvhHqPiEjJuCMpBn+GMHp/vdT7V6zX5tm3Ecql6OCdl1l1fp29dz904c4HhRUcVmivLdQ6L/F3flt3uQWNjb6baRWtpBHbW0S7Y4olCqo9ABU9FMmmjt4mkldY41GWdzgAepNfB6yZ+vpKKstEh9IzBVLMQFHJJ7V4n8Qv2pvD3hd5rPRE/t+/T5fMjbbbq3+/wDxf8B496+bfG/xm8WePvMj1PVHSyc82VrmKH6FQfm/4ETX0+B4exeLtKa5I+e/3f52Pgc241y3LW6dJ+1mukdvnLb7rn1x4y/aB8F+DUkWXUxqV4vH2XTwJWz7tnaPxNeL+KP2wtYvFeLQdIt9PU8Ce6YzSD3AGFB+ua+eaK+3wvDmBw+s1zvz/wAv87n5RmHHGbYxtUpKlHtHf73r91jrde+LXjHxKW/tDxDfSq3WOOTyk/75TArk2YsxZiWY8knqaSivpKdKnRXLTikvJWPhq2IrYmXPXm5Pu23+YUUUVqc4UUUUAFFFFABUlvcS2syywSvDKvKvGxVh9CKjoo3Gm07o7nw/8b/G/hpk+yeIbqSNf+WV0ROhHphwf0r1vwx+2POmyPxDoSSDo02nOVP12Of/AGavmuivIxGU4LFfxKSv3Wj/AAPo8FxHmuX/AMCvK3Z+8vud/wAD9AvB/wAYfCXjlY10zWIftL/8ulx+6mB9NrdT9Miuzr8yq9R8CftF+LvBTQwyXf8AbOnJgG1viWIX0V/vD26j2r4/GcKyjeWEnfyf+Z+m5X4hwk1DMqVv70dvmnr9zfofclFebfDn4+eGPiIVtop/7M1Qj/jyvCFLf7jdG+nX2r0mvhq+Hq4afs60XF+Z+tYTG4fH0lWws1OL6r+tPRhRRRXOdoUUUUAFFFFABRRRQAUUUUAFFFFABRRRQAUUUUAFFFFABRRRQAUUUUAFFFFABRRRQAUUUUAFFFFABRRRQAUUUUAFFFFABRRRQAUUUUAFFFFABRRRQAUUUUAFFFFABRRRQAUUUUAFFFFABRRRQAUUUUAFFFFABRRRQAUUUUAFFFFABRRRQAUUUUAFFFFABRRRQAUUUUAFFFFABRRRQAUUUUAFFFFABRRRQAV4h8dv2gofA8cuiaDJHca+w2yzfeS0BH6v7du/pTf2gvjwngm3l0DQpVfXZlxNOpyLRSP/AEMjp6da+PpppLmZ5ZXaWWRizO5yWJ6kn1r7rI8i9vbFYpe70Xfzfl+fpv8AkXFvF31Pmy/L5fvNpS/l8l59309dn3l5PqF1Lc3U0lxcSsXkllYszMepJPU1DRRX6alZWR+CtuTuwooopiCiitvwd4P1Px1r9tpGlQGa5mPLfwxr3dj2AqJzjTi5zdkjWlSnWmqVNXk9El1Y7wX4L1Xx7r0Ok6Rb+dcScsx4SNe7MewFfcHwr+E2k/C3R/ItFFxqEwBur5x88h9B6KOwqf4X/DHS/hf4fSxslE11Jhrq8ZcPM39FHYV2Nfkmc51PHydKjpTX4+b/AER/SHC/CtPJ4LE4lc1d/dHyXn3fyWm5RTZJFjRndgiKMlmOAB6184fGX9p9LFrjRvB0iyz/AHJdVwCqHuIh3P8AtHj09a8XBYCvmFT2dFer6L1Pqc1zfCZPQ9vipW7Lq/JL+l3PU/ib8aPD/wAMbdkvJfteqMm6LT4CPMPoWP8AAPc/gDXyN8SPjZ4k+JUxS8ufsemg5TT7YlYx/vHq5+v4AVw15eT6hdS3NzNJcXErbnlkYszH1JNRV+q5bkeGy9KbXNPu/wBF0/M/njPOLMdnLdNP2dL+Vdf8T6+m3kFFFFfRnxAUUUUAFFFFABRRRQAUUUUAFFFFABRRRQAUUUUAFFFFACqzIwZSVYHII4Ir3D4U/tO6t4Ta307xEZNY0hfkE5ObiEfU/fA9Dz79q8OorixWDoY2n7OvG6/L0PUy/M8XldZV8JNxf4Pya6n6Q+GvFGl+L9Jh1PSLyO9s5Ojxnoe6kdQR6GtSvzy+H/xH1r4b6wt9pNyVQkedavzFMvow/qORX2v8LvixpHxR0cXFk4t7+MD7TYyMN8R9R6r6H+VflWbZJVy5+0h71Pv29f8AM/ojh3ivD52lRq+5WXTo/OP+W689ztqKKK+ZPvAooooAKKKKACiiigAooooAKKKKACiiigAooooAKKKKACiiigAooooAKKKKACiiigAooooAKKKKACiiigAooooAKKKKACiiigAooooAKKKKACiiigAooooAKKKKACiiigAooooAKKKKACiiigAooooAKKKKACiiigAooooAKKKKACiiigAooooAKKKKACiiigAooooAKKKKACiiigAooooAK8o+PXxmh+Gmi/YrCRJPEN4h8lOvkL08xh/IHqfYGus+JnxCsPhr4WuNWvCHl/1dtb5+aaQjhfp3J7AV8EeJvEl/4u1y71bU52uLy5fe7HoPRQOwA4Ar67Ico+vVPb1l+7j+L/y7/cfm3GHEn9lUfqmFf76a3/lXf1fT7+xRu7ua/uprm5lae4mcySSOcszE5JJ9c1FRRX6ztoj+cW23dhRRRTEFFFAyeByaALmjaPeeINUttO0+Brm8uXEcUSdST/Ie9fdPwd+Etl8LfD6wgJPq9wA15dj+I/3V9FH69a5H9m/4NDwXpK+INWgX+3L2P92jDJtojzj2Y9/Qcete3V+V8QZw8VN4Wg/cW/m/8kf0NwbwysvpLMMXH97JaJ/ZT/V/gtO4VBfX1vplnNd3c8dtbQqXkmlYKqqOpJNLeXkGn2s1zcypBbwoXklkYKqqBkknsK+MPjv8dLj4i3z6VpUklv4cgfhc4a6Yfxt/s+i/ieeniZZllXMqvJHSK3fb/gn1ef59h8iw/tKms38Me7/RLqy78cP2hrrxxJNo2gySWegAlZJRlZLv6+if7Pfv6V4lRRX7HhMJRwVJUqKsl+Pmz+YcxzLE5piHicVK8n9yXZLogooorsPMCiiigAooooAKK7Hwd8IfFnjrD6Vo8zWxP/H1OPKh/Bm6/hmvaPCf7HJIWXxJrePW105P5yN/RfxrycVm2Cwd1VqK/Zav8D6TL+Hc0zO0sPRfK+r0X3vf5XPmarVjpV7qj7LOznum9IYmc/oK+5vDv7P3gTw2yvHoUN7Mv/LS/Jn/APHW+X9K760sbawiWK2t4reNRhUhQKAPQAV8xX4spR0oUm/V2/zPvcL4c4iSviq6j5RTf4ux8D6V8E/HWtFfs3hi/AbkNcIIV/NyBXUWH7K/j68/1tpZWP8A13u1P/oG6vteivIqcVYyXwQivvf6n0tHw8yyH8WpOT9Ul+X6nx4n7IXjFvvX2kr/ANtnP/slPP7IHi3tqOlH/to//wATX2BRXN/rNmHdfcd3+oeTfyy/8CPjt/2Q/GS/dvdJb/ts4/8AZKz7z9lPx7a/6qCwvP8Arjdgf+hBa+1KKqPE+PW/K/l/wSJcA5PJWXOv+3v80z4N1L9nz4g6Wu6Xw3PKvrbSxzfojE1zOoeBPEmksReaDqVsR1821cf0r9GKOvWu2nxZiF/Epxfpdf5nl1vDnBS/g15L1s/ySPzLdGjYq6lWHUMMGkr9H9X8I6H4gj2ano9jqCgYH2m2R8fTI4rzzXP2YfAesBjDYT6XIf4rOdgB74bIr1qPFeGlpWpuPpr/AJHzeK8O8dT1w1aM/W8X+q/E+I6K+jPFP7HeoW5aXw/rUN5HyRb3yeW49BuGQfyFePeLvhX4q8DsTq+jXEEGcC5jXzIT/wADXIH0PNfSYbNMHi7KjUTfbZ/cz4bHZBmeW3eJoNJdVqvvV0cpWp4Z8Tal4Q1m31TSbprS8hOVdehHdSO4Poay6K9KUYzi4yV0zw6dSdKanTdmtU10PvT4P/F7T/iponmJttdXtwBd2eeh/vr6qf06V6DX5xeEfFmo+CdetdX0ubybu3bIz9117qw7givvP4a/ELT/AIleF4NWsSEf7lxbbstBIByp/mD3Br8kzzJ3l8/bUf4b/B9v8j+kOE+JlnFL6tiXatFf+BLv691815dVRRRXyh+iBRRRQAUUUUAFFFFABRRRQAUUUUAFFFFABRRRQAUUUUAFFFFABRRRQAUUUUAFFFFABRRRQAUUUUAFFFFABRRRQAUUUUAFFFFABRRRQAUUUUAFFFFABRRRQAUUUUAFFFFABRRRQAUUUUAFFFFABRRRQAUUUUAFFFFABRRRQAUUUUAFFFFABRRRQAUUUUAFFFFABRRRQAUUUUAFQ3l5Bp9pNdXMqwW8KGSSRzhVUDJJP0qavm/9q74pNZ26eDtOlAlmUS37qeVTqsftnqfbHrXo4DBzx+IjQh13fZdWeLnGaUsnwU8XV6bLu+i/roeNfGr4oT/E7xbLcI7LpNqTFZQngBM8uR/ebr9MDtXn9FFfuFCjDDUo0aatFH8mYvFVsdXnia7vKTu/6/IKKKK3OQKKKKACvdP2Y/hH/wAJZrX/AAkmqQB9I09/3Ecg4nmHI47qvB+uPevKfA3g+98eeKLDRbFSZbh8O+OI0HLOfYCv0D8M+HbLwloNlpGnRCK0tYxGg7n1Y+pJySfevj+Isz+qUfq9J+/P8F/wf8z9M4JyFZlifrtdfuqb085dF6Ld/I1KOnJorwX9pr4wnwvph8MaRcbdVvE/0qVDzBCe3szfoM+oNfmmDwlTHV40KW7/AAXc/d80zKhlOEni670j06t9EvX/AIJ57+0d8bj4qvJfDWh3GdGt3xc3EZ/4+ZB2B/uA/mfwrwaiiv27B4OlgaKo0lovxfdn8o5pmWIzbFSxWIer6dEuiXkv+CFFFFdp5QUUUUAFFdd8Pvhbr/xK1AQaTan7OpxLezZWGL6t3PsMmvrT4Zfs9eHPh8kV1PGNY1lSGN3cKNsbf9M06D6nJ968HMc5w2X+7J80+y/XsfYZJwvj86anBclP+Z7fJdfy8z5z+Hn7OPinxwYrm5h/sTS2Ab7TeKQ7r/sR9T+OB719JeBP2efCHgfZN9i/tbUF5+1X4D4P+yn3R9cZ969Nor82x2e4zG3jzcsey/V7s/dMp4SyzKkpqHtJ/wA0tfuWy/PzEVRGoVQFUDAAGAKWiivnj7QKKKKACis2+8S6RpjbbzVLO1b+7NOin8iawrj4v+CbVisvinS1YdQLlSf0reGHrVPgg36JnJUxmGo6VKkY+rSOvorhJPjp4CjOD4osT/ulj/IU+P44eA5fu+KdPH+85X+Yrb6lit/ZS+5/5HN/auX3t9Yh/wCBR/zO4orl7L4oeENRbFt4l0uU+guk/wAa3rHVLLUl3Wl5BdL/AHoZVcfoa550alP44teqOuniaFb+FNS9GmWqKKKyOkKKKKACmyRrKjI6h0YYKsMginUUAeZeOv2efB/jbfN9i/sm/b/l60/CZP8AtJ90/XGfevnH4hfs1+KfBRluLOL+3tMX5vPtEPmKP9qPr+IyK+26K+hwOeYzBWXNzR7P9Huj4vNeEsszROThyT/mjp962f5+Z+ZRyODwa774MfFC4+GPi2K6JZ9LuSIr2H1TP3x/tL1/Md6+pvid+z74d+IcctzDEukayfmF5bqArn/povRvrwfevkX4gfDPXfhvqhtNXtSsTH9zdx5MMw9Vb19jzX6HhcywedUnQlo2tYv9O/5n4rmGRZpwviI4uGsYu6mtvRrpfz0e12foLZ3kOoWkN1bSLNbzIskciHIZSMgg+hBqavnn9k34kHVNIuPCd7ITc2I86zLH70JPzL/wEn8m9q+hq/Ksdg54HESoT6bea6M/obKMyp5tgqeLp/aWq7Pqvv8AwCiiiuA9gKKKKACiiigAooooAKKKKACiiigAooooAKKKKACiiigAooooAKKKKACiiigAooooAKKKKACiiigAooooAKKKKACiiigAooooAKKKKACiiigAooooAKKKKACiiigAooooAKKKKACiiigAooooAKKKKACiiigAooooAKKKKACiiigAooooAKKKKACiiigAooooAKKKKAOf8e+MbTwF4T1DW7z5kto8pGDzJIeFQfU4/nX5765rN14h1i81O9kMt3dStNIx7sTn8q9z/az+ITat4it/C9rJ/omn4ludp+/Mw4B/3VP5sa+f6/WuHMB9Vw3t5r3p6/Lp/mfzhxxnDx+P+qU37lLT1l1fy2+/uFFFFfXH5sFFFFABRRXY/CPwK/xE8d6dpJVjabvOu2XjbCuN3PbPC/VhWVarChTlVm7JK7OnDYepi60MPSV5SaS9WfR/7K/w1/4Rvww/iO8jxqGqr+5BHMduOn4sefoFr3WmQQR2sMcMKLFFGoREQYCqBgAD0p9fhONxU8biJV59fwXRH9dZXl9LK8HTwlLaK+99X82cz8R/HNr8O/CN9rV1tZol2wQk482U/dX8+vsCa/P7XtcvPEmsXeqahKZ7y6kMsjnuT6e1eq/tM/Er/hM/GR0qzlLaVpJMQwflkm/jb8Puj6H1rxyv1Hh/LfqeH9rNe/PX0XRfq/8AgH8/8aZ480xrw9J/uqWi85dX+i+/qFFFFfVH54FFFOiieeVI40aSRyFVVGSSegAoAbXvHwZ/Zpu/FQt9Y8TLJYaQ3zxWg+Wa4HYn+4v6ntjrXcfAv9m+LQ1t9f8AFUCzalnfb6e/KQejOO7+3QfXp9C1+eZxxFyt4fBP1l/l/n93c/auGeCeZRxmax81D9Zf/I/f2KWj6LY+H9Ng0/TbWKys4V2xwwrtUf8A1/fvV2iivzuUnJ3k7s/bIxjCKjFWSCiuT8dfFLw38O4Q2s6gkVwy7ktIvnnceoQdvc4FfNvjr9rLxBrTTW/h63TQ7Qkqs7ASXDL68japx6A49e9ezgcnxeP1pRtHu9F/wfkfMZtxLluT3jXqXn/LHV/5L5tH1Vr/AIp0jwtZtdavqVrp0KjO64lCk+wHUn2HNePeJv2uvDGl700eyu9alH3WI8iI/iwLf+O18k6lqt7rF01zf3c97cMctLcSF2P4k1Vr7jC8LYanriJOb+5f5/ifk2YeIOOrNxwUFTXd+8/x0/Bns3iD9q7xpqzSLYmz0eE5Ci3i3uB2yz55+gH0rzzXviR4p8TbxqfiDULuNxhoWuGEZ/4ACF/Sucor6ejgMLh/4VJL5a/fufA4rOMxxt/rFeUk+l3b7thWYtySSfekoorvPHCiiigAqSG4lt3V4pXidTkMjEEH1qOigabWqO30P42eOPD+BbeJL6RAc+XdSeev0+fOB9K9H8M/tga/Yuqa3pVpqsPQyW5MEvXr3U/TA+teA0V5dfK8FiP4lJfdZ/ej38JxBmuCa9hiJJLo3dfc7o+3PCn7TfgnxJJHDcXkmi3D8BdQXamf+ugyo/EivVLW8gvoVmtpo7iFhlZInDKfoRX5n1v+FPH3iDwTeJcaLqtxZMpyY1bMb+zIflP4ivlsXwrSleWFnZ9nqvv3/M/Qcu8RK9NqGYUlJd46P7no/wAD9FqK+cPh5+1xbXjpZ+LrMWbnAGoWYLRk/wC2nVfqM/QV9B6PrNj4g0+G/wBNu4b6zmGUmgcMrevI718LjMvxOBly14W8+j+Z+uZZnWBzeHPhKib6rZr1W/z2LlFFFece2FZ3iDw9p3inSZ9N1W0jvbKYYeKQZHsR6EdiORWjRVRk4NSi7NEThGpFwmrp7pnzRH8Ctb+FPxQ0XXvDKy6roZu0jmiHM0MTna4YfxKASdw6YGema+l6KK78ZjquO5HW1lFWv1fqeRluU4fKfaRwt1Cbvy9E+tvJhRRRXnHtBRRRQAUUUUAFFFFABRRRQAUUUUAFFFFABRRRQAUUUUAFFFFABRRRQAUUUUAFFFFABRRRQAUUUUAFFFFABRRRQAUUUUAFFFFABRRRQAUUUUAFFFFABRRRQAUUUUAFFFFABRRRQAUUUUAFFFFABRRRQAUUUUAFFFFABRRRQAUUUUAFFFFABRRRQAUUUUAFFFFABWJ428UQeC/Ceqa1cECOzhZwG/iboq/ixA/Gtuvmz9sLxl5NnpPhiCT55j9tuVB/hBKoD9TuP/ARXp5bhPr2LhQ6N6+i3PBz3MllWXVcV1S09Xovx19D5m1TUrjWNSur67kaa6uZWmlkbqzMck/marUUV+6JKKsj+R5Scm5Sd2wooopkhRRRQAV9gfsn+BToXg2fX7mLbdas37rcORApIH5tk/QCvlTwn4euPFniXTNHtRma9nWEH+6CeWPsBk/hX6LaVpsGjaZaWFsuy3tYlhjX0VQAP5V8PxTjPZ0I4WL1lq/Rf5v8j9a8Pss9vi54+a0p6L/E/wDJfmWq4H44ePj8Pfh/f30LhdQuB9ltPaRgfm/4CMt+Fd9Xxv8AtWeNm8QePE0WGXdZ6Qmwqp4MzgFz9QNo9sGvjMlwX17GRhJe6tX6L/N6H6hxTmjynLKlWDtOXux9X1+SuzxN3aRmZiWZjksepNJRRX7WfyqFFFFADo43mkSONWeRyFVVGSSegFfX37P/AMA4/B9vB4h1+ASa7IoaC3fBFoD3/wB8/p9axP2afgeLOG38Xa9bhrhwH0+1kX/VjtKw9T/D6dfTH0hX5txBnTm3g8M9PtPv5Ly79z914N4VVKMczx0feesIvp/efn27b77FFFcn8SviRpnwx8Otqmoh5WdvLt7aP70z4zj2HHJ7fpXwtKlOtNU6au3sj9bxGIpYWlKvXlyxjq2zf1jWrHw/p8t9qV3FZWcQy80zBVFfMPxS/atu9Q+0ab4QRrK2yUOpyr+9cesa/wAIPqecehrlNTT4jftF6uJksZjpqNuhQ5is4B0zubhmweoy3XA7V6F4P/Y7t42WbxNrDzcZ+yaeNozx1kYHI68AD619vh8Dl2V/vMwmpVP5Vrb5dfnoflGOzbO+IW6OTUnCi/tv3W/RvZel3+R8yXt9caldS3N3PJc3ErbnllYszH1JNbWh/D3xN4kVW0zQr+8RhkSRwNsP/AjxX3H4Z+D3g7wiySadoFoLhMFbidPNkBHQhmyQfpiuyrpr8WRj7uGpaef+S/zODCeHU5e/jsRr2ir/AIv/ACPivQv2VfHWrqWuobLR1xkfbLkMT9BGH/XFdnp/7GdwWU33iaJRj5hb2xOPoSwr6horw6vEuYVH7slH0X+dz63D8C5LRXvwlN+cn+lj59sv2N/D8bf6Xr2pTr6QrHGf1DVqR/sh+CYyN13rEn+9cx/0jFe3UVwyzrMJb1mevDhbJaassNH53f5s8cX9lHwGq4MWoMfU3XP8qgm/ZJ8DynKy6rD7Jcqf5oa9qorNZtj1/wAvpfebPhvJ2rfVYfceD3X7HnhORD9n1XWIX9Xkicfl5Y/nWJe/sZ2vln7J4mmD/wDTa1BH6NX0nRW0c8zGG1V/g/0OSpwlklTfDJeja/JnyTqX7HPiOHJsNb0y6AGcTiSIn2GFYfrXCav+z34/0bJk8PTXCc4e0kSbPvhWJH4ivvGivSpcUY6n8dpeq/yseJiOAMorfwnKHo7/AJp/mfmxqmhalokgTULC5sXPQXELJn6ZFUa/TC6tYL63kguYY7iCQbXilUMrD0IPBrz/AMQfs++A/EO9pNCispGyfMsCYMH2C/L+le5Q4spS0r0mvR3/AMj5LGeHOIjrhK6l5STX4q/6HwfRX0v4q/Y5dWkl8O67vT+G21FPmHH/AD0Xg8/7Irx3xh8GfGHghmOo6NO9sOl1ajzosZ6llzt+jYNfTYbNsFi7KlUV+z0f4nwWP4dzXLbyxFB8q6rVfer2+djiq6bwN8SNf+HeoLdaNetCu4GS2fLQy+zL/UYPvXM0V6dSnCtFwqK6fRnhUa9XDVFVoycZLZrRn3F8J/j/AKJ8SkSzn26TrnQ2crfLL7xt3+h5+vWvU6/MyOV4ZEkjdo5EIZWU4II6EGvp34I/tMfaGg0LxhOBIzBLfVnOAc8BZfT/AH/z9a/Ns24ddFOvg9Y9Y9V6d/zP3PhvjeOKccJmbUZ9J7J+vZ+e3ofS1FIrB1DKQykZBHQ0tfCH68FFFFABRRRQAUUUUAFFFFABRRRQAUUUUAFFFFABRRRQAUUUUAFFFFABRRRQAUUUUAFFFFABRRRQAUUUUAFFFFABRRRQAUUUUAFFFFABRRRQAUUUUAFFFFABRRRQAUUUUAFFFFABRRRQAUUUUAFFFFABRRRQAUUUUAFFFFABRRRQAUUUUAFFFFABRRRQAUUUUAFFFFABRRRQAV+ffxg8Vf8ACZ/EbW9SWTzIDOYoGzx5afKuPYgZ/GvtP4v+JD4T+Guv6ij+XMts0UTA4Id/kUj3y1fn3X6Jwnhv4mJf+Ffm/wBD8T8Rsd/AwEfOb/JfqFFFFfoh+JhRRRQAUUUUAe+fsh+EzqfjDUNdlTMGmw+XGxH/AC1kyOPoob8xX1zXk/7Mfhv+wPhTYzumybUZHu2452k7V/8AHVB/GvWK/Fc8xP1rH1H0jovl/wAG5/VHCeBWAyejFrWa5n/29r+VkZnibXIvDXh3UtVnIEVnbvOc99qk4r85tU1GfV9Su765cyXF1K00jt1LMSSfzNfX/wC1l4mbSPh3FpkT7ZNUuVjfB58tPnP6ha+N6+z4Vw3s8NPEPeTt8l/wbn5d4hY/22Op4OL0pq79Zf8AAS+8KKKK+3PygK9m/Zx+D/8Awnmu/wBsanFu0LT3BKMMi4mGCE/3R1P4DvXmvgnwhe+O/E9jotguZrlwGc9I0/ic+wGTX6B+FPDNj4N8P2Wj6dGI7W1jCDjlj3Y+5OSfrXyPEGafU6PsKT9+X4Lv8+h+k8F8PrNMT9bxC/dU3/4FLt6Ld/JdTVUBQABgDgAUtFFfkp/R4VT1LRtP1lYl1Cxtr5Yn8yNbmFZAjf3huBwferlFNScXdMmUYzXLJXQ2ONYUCIqoi8BVGAKdRRSKCiiigAooooAKKKKACiiigAooooAKKKKACiiigAoIDAgjIoooA4Txp8EfB/jrMl9pMdveH/l8s/3Mv444b/gQNeA+Ov2Sdc0hnuPDd2mtWvX7PNiKdfb+631yPpX1zRXt4POcbgrKE7x7PVf8D5HymZ8MZXml5VqXLJ/ajo/8n80z81dU0m90O+ls9QtJrK7jOHhuIyjr9QaqV+jPirwRoXjayNrremwX8eMK0i4dPdWHK/ga+bPiN+yXf6VHLe+E7ltTgXJNjcECcD/ZbgN9OD9a++wHEmGxNoV/cl+H39Pn95+OZxwLj8AnVwj9rDy+JfLr8vuIv2f/ANoN/Dslv4c8S3JfSW+S1vpWybY54Vif4Pf+H6dPrNWDKCDkHkEV+aeoafdaVeS2l5byWt1E22SGZSrKfQg19I/sz/G5t0Hg/Xrj5fu6ddSH8oSf/Qfy9K8zPsljKLxuFXnJLr5r9fvPf4P4pnTnHK8wflFvo/5X+nbbtb6cooor85P28KKKKACiiigAooooAKKKKACiiigAooooAKKKKACiiigAooooAKKKKACiiigAooooAKKKKACiiigAooooAKKKKACiiigAooooAKKKKACiiigAooooAKKKKACiiigAooooAKKKKACiiigAooooAKKKKACiiigAooooAKKKKACiiigAooooAKKKKACiiigAooooAKKKKAPnv9sTxEbXwvo2ixtg3ly1xJj+7GuAD9S+f+A18nV7d+1trQ1D4lQWCtlbCzRWHo7kuf0K14jX7TkNH2OX011ev3/8Cx/LPF+KeKzqu76RaivkrP8AG4UUUV758aFFFFABVjTbGTUtQtrSIZkuJViX6sQB/Oq9d/8AAXQ/+Eg+LXh23K5jinNy/piNS/P1KgfjXPiKqoUZ1X9lN/cjswWHeLxVLDr7ckvvdj7q0bTYtF0ex0+BdkFrAkCL6KqhQPyFXKKK/AJNybbP7KjFQiox2R8g/te+Iv7Q8d6fpKNmPT7QMw9JJDk/+OhPzrwiu4+N2qnWPit4lnzuC3bQj6IAn/stcPX7pllFYfBUqfkvverP5Iz7FPGZpiKz6yaXotF+CCiiuy+EfgWT4ieO9O0oKTa7vOun7LCvLfnwo92Fd1arGhTlVm7JK55OGw9TF1oYekryk0l6s+jv2V/hqvh3wu3iS9hxqOqL+53DmO3zxj/ePP0217rTIYUt4Y4olCRxqFVVGAABgAU+vwnG4qeNryrz6/guiP66yvL6WV4OnhKW0Vv3fV/NhRRRXEeqFFFFABRRRQAUUUUAFFFFABRRRQAUUUUAFFFFABRRRQAUUUUAFFFFABRRRQAUUUUAcj4++Ffh34kWnl6xZA3CrtjvIcLPH9GxyPY5FfJnxK+APiT4Zyfb7bdqulRtuW+tVIeLHQuvVfqMj3r7hpGUMpBGQeCDXvZdnOJy98sXzQ/lf6dj4/OuF8DnSc5Lkq9JLf59/wA+zR5l8Afih/wsjwav2uRW1nT9sN2O78fLJj/aAOfcGvTq5PQvhfoHhfxVda9pFqdOubqIxTwW52wPkg52dAcjtjqa6yvOxk6FSvKeHVovWz6d1/ke3ldPF0cLCljZKU46XXVLZ+tt/MKKKK4j1QooooAKKKKACiiigAooooAKKKKACiiigAooooAKKKKACiiigAooooAKKKKACiiigAooooAKKKKACiiigAooooAKKKKACiiigAooooAKKKKACiiigAooooAKKKKACiiigAooooAKKKKACiiigAooooAKKKKACiiigAooooAKKKKACiiigAooooAKKKKACiiigD8/fjNqx1r4p+JroncPtrxKf9lMIv6KK4yr2vXZv9c1C5Jz51xJJn6sTVGv6Bw9P2VGFNdEl9yP4yxlZ4jE1Kz+1Jv73cKKKK3OQKKKKACvef2P9MFx481S9K5+y2JUH0Luv9Aa8Gr6f/YysP8ARvE96R1eCFT+Dk/zFeBn1T2eXVX3svvaR9jwhR9tneHT6Nv7k2fS1I7iNWZjhVGST2FLWP4yujY+EdcuQcGGxnkH4Rsa/GYR55KPc/qOpNU4Sm+iufnbrGoNq2rXt6/L3M7zHPqzE/1qpRRX9CJKKSR/FspOUnJ7sK+u/wBkvwN/Y/hO68RXCYudUfZDkfdhQ4z+LZ/ACvlHQ9IuNf1iy021G64u5kgj9NzEAZ9ua/Rjw/otv4b0Ow0u1GLezhSFPcKMZPuev418VxRi/ZYeOHi9Z7+i/wCCfqnh/lqxGNnjZrSmrL/E/wDJX+9GhRRRX5af0EFFFFABRRRQAUUUUAFFFFABRRRQAUUUUAFFFFABRRRQAUUUUAFFFFABRRRQAUUUUAFFFFABRRRQAUUUUAFFFFABRRRQAUUUUAFFFFABRRRQAUUUUAFFFFABRRRQAUUUUAFFFFABRRRQAUUUUAFFFFABRRRQAUUUUAFFFFABRRRQAUUUUAFFFFABRRRQAUUUUAFFFFABRRRQAUUUUAFFFFABRRRQAUUUUAFFFFABRRRQAUUUUAFFFFABRRRQAUUUUAFFFFABRRRQAUUUUAFFFFAH5lUUUV/RB/E4UUUUAFFFFABX19+x7a+X8O9UuCPml1N1/BYo/wCpNfINfaH7J0fl/CdW/v30zfoo/pXyfE0rZe13aP0bgKHNnKfaMn+S/U9lrmficxT4c+JyP+gbcD/yGa6aua+JsfmfDrxMv/UNuD+UbGvyvDfx4eq/M/oXHf7rVt/LL8mfnfRRRX9AH8aHsP7LPhc6/wDE6K9dc2+lQNckkcbz8iD65Yn/AIDX2pXz9+x3of2XwlrOqsuGu7oQq2Oqxrn+bmvoGvx3iLEOvmE10jZf5/iz+nOCcGsJk1OVtajcn89F+CQUUUV8yfeBRRRQAUUUUAFFFFABRRRQAUUUUAFFFFABRRRQAUUUUAFFeM/EnxRJqWvG2tp2W3tMx/u2IDP/ABHj8vwrkv7Quv8An5m/77NfmmO43o4XEzoU6POou1+a1+/R9T9AwnCNXE0IVp1eVyV7Wvb8T6Tor5s/tC6/5+Zv++zR/aF1/wA/M3/fZrh/1+h/0DP/AMC/+1Ov/Uqf/P8AX/gP/BPpOivmz+0Lr/n5m/77NH9oXX/PzN/32aP9fof9Az/8C/8AtQ/1Kn/z/X/gP/BPpOivmz+0Lr/n5m/77NH9oXX/AD8zf99mj/X6H/QM/wDwL/7UP9Sp/wDP9f8AgP8AwT6ToryT4R30sniC5ikldw1uSAzE9GH+Net199k+aRzfCLFRjy6tWvfb7j4vNMveV4l4dy5tE72tuFFFFe2eQFFFFABRRXDfFrUms9Ct4Y3ZJJ5v4Tg4UZP6kV52Y42OXYSpipq6ir27nfgcJLHYmGGi7OT3O5or5s/tC6/5+Zv++zR/aF1/z8zf99mvzf8A1+h/0DP/AMC/+1PvP9Sp/wDP9f8AgP8AwT6Tor5s/tC6/wCfmb/vs0f2hdf8/M3/AH2aP9fof9Az/wDAv/tQ/wBSp/8AP9f+A/8ABPpOisnwpbPaeG9OjkLGTyVZixyckZ/rWtX6lQqOtShUas2k7dr9D86rQVOpKCd0m1fuFFFFbmIUUUUAFFFFABRRRQAUUUUAFFFFABRRRQAUUUUAFFFFABRRRQAUUUUAFFFFABRRRQAUUUUAFFFFABRRRQAUUUUAFFFFABRRRQAUUUUAFFFFABRRRQAUUUUAFFFFABRRRQAUUUUAFFFFABRRRQAUUUUAFFFFABRRXl/xK8cSieTSLCQxqvFxKpwSf7gPp6/lXj5rmlDKcM8RW9EurfY9TLcurZnXVCl832Xc6zWviDouiyNDJcfaJ16x243Y9ien61ir8YtMLAGzugPX5f8AGvIqK/HK/G2Z1JuVLliu1r/i/wDgH6pR4Sy+ELVLyfe9vyPoDQ/Gek+IG2Wt0BN/zxlG1/wB6/hW3XzMkjRuroxVlOQynBFewfDfxs+uQnT71917CuUkP/LRff3H619nw/xYsxqrC4yKjN7NbPy8n+fkfKZ3wy8DTeJwrcoLdPdefmvyPgOiiiv7QP8AOoKKKKACiiigAr7U/ZTbPwkg9rycfqK+K6+yf2R5/O+Fs6f88tSmT/xyNv618lxQr4D/ALeX6n6RwDK2cW7wl+h7ZWX4pszqHhnV7UDJns5osf7yEf1rUor8mjJxkpLof0bUgqkHB9dD8yqK0fEmmnRfEOqaeRg2t1LBj/dcj+lZ6KXdVHUnFf0JGSlFSWzP4tnB05uEt1ofevwF0UaF8JPDkG3Dy2/2l/UmRi/P4MB+Fd/Wb4Zsxpvh3S7UDAhtYo8fRAK0q/AsTUdavOo+rb+9n9j4CgsNhKVBfZjFfcrBRRRXMdwUUUUAFFFFABRRRQAUUUUAFFFFABRRRQAUUUUAFYHjbxAPDugzTKf9Ik/dwj/aPf8AAc1v14l8SvER1rXmgjbNraZjTHQt/Efz4/CvleJc0/svASlB+/L3Y+r3fyX42PpMgy7+0cbGMl7kdX/l83+FzkmYsxJOSeSaSiiv5vP3kKKKKQBRRRQAUUUUAdb8LZvJ8YW6/wDPSORP/HSf6V7dXgXgWb7P4u0tumZtn/fQI/rXvtfunAtTmy6pDtN/ikfj3GNPlx0J94r8Gwooor9HPgwooooAK8i+MF8ZtctbUHKwQ7se7Hn9AK9drwPx1ff2h4s1GQHKpJ5Q/wCA/L/MGvz3jfEeyy1Uk9ZyX3LX87H2/CND2mPdR/Yi/ven+ZgUUUV+DH7MFW9JsjqWqWlr/wA9pVQ/QnmqldV8M7H7b4utTjKwK0p/AYH6kV6GX4f63jKVD+aSX46nFjq/1bC1K38sW/wPcFUKoAGAOAKWiiv6rP5vCiiigAooooAKKKKACiiigAooooAKKKKACiiigAooooAKKKKACiiigAooooAKKKKACiiigAooooAKKKKACiiigAooooAKKKKACiiigAooooAKKKKACiiigAooooAKKKKACiiigAooooAKKKKACiiigAooooAKKKKAKuq3n9nabd3WM+TE0gHrgZr5xmme4meWRi8jsWZj1JPU19EeIbVrzQtQgQZeSBwo9Tg4FfOlfjfH0p+2w8X8Nn991f8AQ/VeC4w9lWl9q6+7X/ghRRRX5QfpAVa03Up9JvEurZ9kyZwfqMf1qrTo42lYKil2PRVGTWlOU4TUoOzW1u5E4xnFxmrp7nzNcQm3nkib7yMVP4HFMrb8cWB0vxprtoRgw30yY+jmsSv9PKcueCkup/klWpulUlTfRtfcFFFFWZBRRRQAV9Y/sbX3meEtfs88xXyy4/34wP8A2Svk6vo/9jPUNmreJLIn/WQxTAf7rMP/AGavnOIYc+XVPKz/ABR9xwXV9lnlHz5l/wCSs+pqKKK/Gj+oD4K+PmknRvi34ii27VknFwv0dQ39a4zQ7X7drWn2/wDz2uI4/wA2Ar3j9sTw79l8TaLrSLhbu2NtIQP4o2yCfch8f8BrxjwDH5vjrw4h6NqVsPzlWv27L8R7bLYVV/L+K0/Q/lHOsH9Wzyrh3s53+Undfgz9FlAUAAYA4paKK/ET+rgooooAKKKKACiiigAooooAKKKKACiiigAooooAKKKKAOc8eeIh4e0GV0fbdTfuocdcnqfwH9K8IrqPiJ4i/t7XpFjObW2zFH7n+JvxP8hXLV/OvFOaf2lj2oP3Ie6v1fzf4JH7rw7l39n4JOa9+er/AEXyX43Ciiivjj6gKKK6/wAP+GPO8H61q0y5xFsgBHoQWb9MfnXdg8HVxtR06S2Tk/RK/wDwDkxWKp4SCnU6tL5t2/4JyFFFFcJ1hRRRQBoaBN5GuafJ/dnQ/wDjwr6Lr5ptpPJuIn/uuG/I19KRtujU+ozX7HwDO9PEQ7OL++/+R+WcaQ9+hPykvy/zHUUUV+sH5qFFFFAEN9cCzs55z0jRnP4DNfNs0hmmeRjlmYsT9TXunxE1D+z/AAjfMDh5QIV/4EcH9M14RX4tx5iObE0cOvspv73/AMA/WeDKHLh6td/aaX3L/ghRRRX5afogV6Z8GbH5tRvCOcLEp/U/0rzOvbPhbYfY/CcUhGGuJGk/DO0fy/WvuODcP7fNoztpBN/p+p8jxVX9jlso/wAzS/X9Dr6KKK/oM/EAooooAKKKKACiiigAooooAKKKKACiiigAooooAKKKKACiiigAooooAKKKKACiiigAooooAKKKKACiiigAooooAKKKKACiiigAooooAKKKKACiiigAooooAKKKKACiiigAooooAKKKKACiiigAooooAKKKKACiiigArxH4heFZNB1aS4iT/QbliyMvRWPJU+nt7V7dUF5ZQahbPb3MSzQuMMjDINfOZ7k0M6w3sm7TWsX2fn5M97J81nlOI9oleL0a/rqj5ror0/Wfg8HkZ9Lu1RSciG4zge24f4VjL8I9caQqXtFH94ynH/oOa/D6/DObUJ8joN+a1X9ep+vUeIMsrQ51WS8no/69Dia9I+FfhJ5Jv7YukxCAVgVh94ngt9O1anh/4S2ljMk+ozfbXXkQqNseffua75EWNVVVCqowFAwAK+44c4TrUK0cZmCty6qO+vd9NO3f8fkM94lpVqUsLgnfm3ltp2Xr3Phf9o7RTovxf1vC7Yrox3Se+9BuP/fQavM6+if2yNFMPiDQNVC/LcW727N7o2R+j187V/ZmUVvb4CjPyt92n6H+f/EuG+qZxiaf95v/AMC979Qooor1z5oKKKKACvYv2VNYGm/FeG1Y4W/tZoB/vAeYP/QD+deO10Xw51o+HfHmgaju2i3vI2Y/7JYBv0Jrhx9H6xhatLun+Wh6+T4r6nmFDEPaMlf0vr+B+idFICGAI5Bpa/BT+wTyL9qDwq3iL4X3N1Em640uVbsAdSn3X/IHd/wGvkTwHIIfHPh2Q9F1G2b8pVr9D9U0+HVtNurG4XdBcxNC6+qsCD/Ovzy1TR7nwR45l0+5XbcabfBT77XBDD2IwR9a/SeGcR7XDVcI3qtV6P8A4P5n4Zx5gvq+Pw+YxWkrJ+sXdfevyP0WopscgkjV1OVYZFOr82P3MKKKKACiiigAooooAKKKKACiiigAooooAKKKKACuY+IXiI+H9Ak8ptt1cfuovUZ6t+A/Uiun6cmvCfH3iH/hIPEErRtutYP3UXoQOp/E/wBK+Q4ozT+zMBLkfvz91fq/kvxsfUcO5d/aGNXOvchq/wBF83+FzmqKKK/nM/dQooooAtabp8uqahb2kIzJM4Qf417rqGkw2Hg280+BcRx2ciL7nYefrnmuN+EXh87p9XmTjmKDP/jxH8vzr0m7jE1rMh6MjL+Yr9u4Syj2OX1MTUXvVU0v8P8Awd/Sx+R8TZn7XHQw8H7tNpv/ABf8Db7z5popWBViD1FJX4kfrgUUUUgCvo/Rp/tWj2M3XzII3/NQa+cK9/8ABE32jwlpbdcQBP8Avnj+lfqXAVS2Jr0+8U/uf/BPzvjSnfD0anZtfev+AblFFFftJ+TBRRRQB518ZLzZp9hag/6yRpCPoMf1rymu1+LN/wDavE4gB+W2hVPxOWP8x+VcVX83cUYj6zm1aS2i+X7lZ/jc/euHaH1fLKSe7V/v1/KwUUUV8qfRigbiAOpr6M0OzGn6PZWwGPKhVf0rwbwzp/8AaniDT7bGVkmXcP8AZByf0Br6Hr9f4Cw+lfEvyivzf6H5fxpX1o0F5v8ARfqFFFQ3l3FYWstxO4jhjUszN2Ar9alJRTlJ2SPzSMXJqMVdsdNcw2+PNlSLPTewGai/tK0/5+of+/g/xrwjxb4mm8T6s9w2VgX5YY/7q/4msXNflGJ48VOtKFCjzRT0d7X87WP0nD8GudKMq1Xlk91a9vxPpH+0rT/n6h/7+D/Gj+0rT/n6h/7+D/Gvm7NGa5v9fqn/AEDr/wAC/wCAdH+pcP8An+//AAH/AIJ9I/2laf8AP1D/AN/B/jUsN1DcZ8qVJcddjA4r5x07T7jVb2G0tkMk0rbVUfz+le9eFvDcHhjS0tovnlPzSy45dv8AD0r6vIc/xOd1JfuFGnHeV769lp/wx81nOS4fKYR/fc03srdO71NiiikZgqkk4A5JNfbnyItFcF4l+K1ppzPBpiLezqcGVj+6H0/vfyrz/VPHGt6sSJb+SOM/8s4D5a/Tjr+NfD5hxfl2Bk6cG6kl/Lt9/wDlc+vwPC+OxkVOaUIvvv8Ad/nY93mvILc4lnjjPo7gVTk8TaTC2H1O1Q+8y/4188NI0hyzFj7nNNr5Opx9Vf8ADw6XrJv9EfSw4Lpr467forfqz6F/4SzRf+gtZ/8Af9f8aP8AhLNF/wCgtZ/9/wBf8a+eqKx/19xX/PmP3s2/1Mw3/P2X3I+hv+Es0X/oK2f/AH/X/Gpode024/1V/bSf7sq/41850VUePcTf3qEfvZMuC6FvdrP7kfTEU8c67opFkHqrA0+vmmG5mt2DRSvEwOQyMQRXSaR8Sdb0tlD3H22IfwXPzH/vrrXr4XjzDVHy4mi4+afN/k/zPLxPBteCvh6ql5NW/wA/0PcqKwfCvjGy8VQEw5huUGZLdzyPceo963q/SMPiaOLpKtQlzRezR8HXw9XC1HSrR5ZLoFIzBVJJwBySaWsPxve/YPCupS5wTEUH/Avl/rRiayw1CdeW0U39yuLD0XiK0KMd5NL72af9pWn/AD9Q/wDfwf40f2laf8/UP/fwf4183ZozX5N/r9U/6B1/4F/wD9M/1Lh/z/f/AID/AME+kf7StP8An6h/7+D/ABo/tK0/5+of+/g/xr5uzRmj/X6p/wBA6/8AAv8AgB/qXD/n+/8AwH/gn0vFNHOu6N1kXpuUgin1zHgC3TSvBto8zLErK07sxwACc5J+mK5nxP8AFkq7W+jICBwbqQf+gj+pr76tnmGweCp4rGvlc0nyrV6q9l/noj4qlk9fFYuphsIuZRbXNstO56XJIkSlnZUUdWY4FZ03ijSLdisup2qMOqmZc/zrwTUtav8AV5TJeXctw3+2xwPoOg/CqVfB4jj2XNbD0NP7z/Rf5n2dDguNr162vkv1f+R7/wD8JxoJbH9qW+f96rEPijR7hgsep2jsegEy5/nXzxRXHHjzF396jF/f/wAE6pcGYX7NWX4H0zHKkyho3V1P8SnIp1fOOm6zfaPMJbO6kt3H91uD7EdD+Nes+A/H48RH7FehYr9RlSvCygdfofavsMn4uwuZ1Fh6sfZze2t0/K+mvqj5bNOGcRl9N1qcueC36NfLsdrRRXK+LPiBZeGd0CD7VfY/1KnAX/eP9K+vxmMw+ApOviZqMV/WndnzGFwtbGVFRoR5pP8Ar5HVVRutc06xOLi+t4T0w8qj+teIa1431jXSyz3bRwn/AJYwnYv446/jWESTyeTX5pi+PIRk44Sjdd5O34L/ADPv8LwZOUb4mrZ9kr/i/wDI9/fxtoKNtOqW5P8AstkfmKlj8WaLNjZqloSeg85Qf5189UV5a48xl9aMfx/zPRfBmFtpVl+B9Lw3EVwu6KVJR6owNSV812l9c2Eoltp5LeQdGjcqf0r0Dwp8VZo5kttZIkibgXSjDL/vAdR9K+ly3jbCYqapYqHs2+t7x+b0t91vM8DH8JYnDxdTDy9ol0tZ/Le56pRTY5FkRXRgyMMhgcginV+j76o+DCiiigAornPE/jrTvDOY5G+0XeMi3jPI/wB49q801b4na1qRZYplsYj/AAwDDf8AfXX8sV8nmfE2X5XJ05y5prpHW3q9l+fkfS5fw/jcxiqkI8sO70+7q/yPa5JkhXdI6xr6scCqc2vabb/62/to/wDelUf1r55uLy4vJGeeeSZ25LSOWJ/Ooa+Kq8fTv+6w6+cv8kfW0+C42/eV/uX/AAT6G/4SzRf+grZ/9/1/xpP+Es0X/oLWf/f9f8a+eqK5v9fcV/z5j97Oj/UzDf8AP2X3I+hv+Es0X/oK2f8A3/X/ABp8fiXSZmwmpWrH0Ey/4187UU1x7ietCP3sT4Mw/StL7kfSsN7b3DbYp45D6K4JqavmZXZeVYqfY1saX4y1nR9ot7+Uxjjy5DvX6YPT8K9LD8e0pO2IoNLunf8ABpfmefX4LqJXoVk35q34pv8AI+gaK4Xwj8ToNYljtNQRbW7Y7UkU/u3Ppz0Nd1X6LgMxw2ZUvbYWfMvxXk0fC4zA4jL6vssRGz/B+gUUUV6RwEU13BbsFlmjjbrh2ANR/wBpWn/P1D/38H+NeM/E7UPtvi65UHKW6rCPwGT+pNcpmvyvHcbvC4qph4UFJRbV+be2nY/R8HwisTh6dadazkk7W2v8z6R/tK0/5+of+/g/xo/tK0/5+of+/g/xr5uzRmuH/X6p/wBA6/8AAv8AgHZ/qXD/AJ/v/wAB/wCCfSQ1K0JwLqEn/roP8asV89+ErE6l4l063xkNMrH6Dk/oDX0JX3HD+dVM7pTrSp8ii7b3vpd9F5HyGd5TDKasKUanM2r7Wt+L8zyD9qbw2Nc+Fs90i5m0ydLpSBzt5Rh9MNn/AICK+Ka/STxFosPiPQdQ0u4/1N5A8DH03KRn8OtfnLqmmz6Pqd3YXK7Li1laGRfRlJB/lX7zwriOfDzoPeLv8n/wUfy74iYJ08ZSxkVpNWfrH/gNfcVaKKK+5PyUKKKKACgEjkcGiigD9Dfhf4lHi74f6Fqu7dLNaoJf+uija/8A48DXUV8/fsf+KlvvCuqaDI/7+wnE8anvHJ6fRlP/AH0K+ga/Csyw/wBVxlSj0T09HqvwP66yLG/2jllDE3u3FX9Vo/xQV4n8ZP2dz8RPE1nremXsNhcsUjvVmBw6A/fXA+8Bxg8HA5Fe2UVhhcXWwVT2tB2Z15hluGzSh9XxUeaN0/mhkEIt4Y4l+6ihR+AxT6KK4z0ttEFFFFAwooooAKKKKACiiigAooooAKKKKACiigkKCTwKAOU+I/iL+w9BeOJsXV1mJPYfxH8v514fXQ+OfEB8Ra/NKj7raL91D6bR3/E81z1fzhxNmn9qY+UoP3Ie7H9X83+Fj954fy7+zsFFSXvy1f6L5L8bhRRRXyZ9IFWdNsJdUvoLSAZlmcIv496rV6V8IvD4eSbV5lyF/dQ5Hf8AiP8AT8TXs5Pl8s0xtPDLZvXyS3/rueVmmOjl2EniHutvV7Ho2k6bFo+m29nCP3cKBQfX1P41aYblI9qWiv6ehTjTgqcFZLReh/PUpyqSc5O7ep82ahH5V9cp/dkYfqar1o+I4/J8Qain924kH/jxrOr+UMRH2dacOzf5n9KUZc9KMu6QUUUVzmwV7j8MpvM8H2g/uM6/+PE/1rw6vZPhHN5nhmRP7lww/QH+tfoHBE+XNHHvF/mn+h8TxdDmy5PtJfqjt6KKK/ez8YCiiqWt339m6Pe3WcGKFmH1xx+tZ1KkaUJVJbJX+4unB1JqEd3oeDeKr3+0PEWozg7laZgp9gcD+VZVL15NJX8n1qsq9WVWW8m395/StGmqNONOO0Ul9wUUUVganafCez+0+KPNIyIIWf8AE4H9a9nrzr4N2Hl2OoXhHMkixL9FGT/6F+lei1/Q/CGH+r5TTb3m3L8bL8Ej8O4or+2zOaW0Ul+v5sK8j+J3jD+0rk6VaPm1hb96yn77jt9B/Ouo+I/jD+wrH7FauPt1wvUHmNPX6ntXjNfM8ZZ7yp5Zh3r9t/8Atv8An93c+g4VybmazCutPsr9f8vv7CUUUV+PH6iFKql2CqCzE4AHU0lem/DHwV9zWL6P3to2H/j5/p+fpXsZVllbNsTHDUfm+y7/ANdTzMyzClluHder8l3fY3vh74NHh2y+1XK/8TCdfmB/5Zr/AHfr612FFFf0rgcFRy/Dxw1BWjH8fN+bPwHGYurjq8q9Z3b/AKsFeSfEjxw99cSaXYyFLWM7ZpFP+sbuPoP1rtviB4gOg+HpWjfbcznyosdQSOT+A/pXhNfnHGmdTopZdQdnJXk/Lovn18rdz7zhPKY1m8dWV0naPr1fy6efoFFFFfjJ+qhRRWno3hzUfEEhSxtWmAOGfgKv1J4ralRqV5qnSi5SfRK7M6lWFGLnUkkl1eiMyiu+g+DuqOuZbu1jPopZv6Cm3Hwf1aNSYbm1m9izKf5V7/8Aq3m/LzfV5fh+V7ni/wBvZZzcvt1+P5nB0Vd1XRr3Q7jyL63a3k6gNyD9CODVKvnqlOdKThUTTW6ejPbhUjUipwd0+qCiiisyy7o2rTaJqUF7AcPE2cf3h3B+tfRFndR31pDcRHMcqB1+hGa+aq95+H8xn8IacTyQhX8mIr9W4Dxc1WrYRv3Wub5ppfjf8D834yw0HSpYlL3k+X5PX8LfidFXBfGDUPI0O1tQcNPNuP8AuqP8SK72vIvjBe+drlrbA5EMOSPdj/gBX23FeI+r5RVtvK0fvev4XPkeG6Ht8zp32jd/ctPxscDRRRX85n7sFPhj8yVEyF3MBuPQUyimt9QZ23j7xYLrytH0+Uf2faqqM0ZyJCBjr3AriaKK9DH46rmFeVeru9l0S6JeSOLB4OngaKo0tl17vq36hRRRXnHaFFFFABVzSdQfS9UtbtDhoZFf6gHkflVOitKc5U5qcXZrVEzhGpFwlsz2/wCIPi4+G9NWO3I+23AIjP8AcXu3+FeJSSNNIzuxd2OSzHJJ9a1PE2vSeJNWe8dfLXaESPOdqgdP5n8aya+l4hziWb4xyi/3cdIry7/P/JHz+R5XHLMKote/LWX+XyCiiivlj6IKKKKACiiigD1/4S649/pM1hM+97UjZnrsOePwOa7yvHfhDM0fiaZB917Zsj6Mpr2Kv6L4TxU8VlNNzd3G8fu2/CyPwriXDxw+ZTUFZSs/v3/EK5D4g+M/+Ebsxb2xzqE4+U/881/vfX0rqrq5js7aWeVtsUSF2Y9gBk188a5q0uuatcXsxJaVsgH+Few/AVy8WZzLLMKqVB2qVNn2XV+vRf8AAOnhrKo5hiHUrK8Ifi+i/wA/+CU5pnuJGkkdpJGOWZjkk+tMoor+f223dn7YlZWQUUVNZ2c9/cLBbRPPM3REGSacYuTUYq7YpSUU5SdkQ0V21j8Jdauo1eZre0z/AAu5Zh+QI/WrUnwc1FVyl9bM3owYf0r6KHDmbTjzrDyt934PU8OWe5ZGXK66/P8AFaHn9FbuveC9W8OqZLq33QZx50R3J/iPxFYVeJiMNWwtR0q8HGXZqx61GvSxMPaUZKS7rUKKKK5jcXpyK9y+HfiB9e8PRmY7ri3PlO397A4P5fyrwyvS/gzOfM1SHtiNx+o/wr7rg3FzoZpGkn7tRNP5Jtfl+J8fxVhoVsulVa1g0183Z/meoUjNtUk9AM0tZHi3UP7M8N6jcA4ZYWVT/tHgfqa/esRWjh6M60topv7lc/GKNN1qsaUd5NL7zwbVrs32qXdyTnzZWf8AMmqlFFfyfObqTc5bvU/pWEVTioR2QUUUVmUdz8I7H7R4iluCMiCE49ixx/LNexV578HbDy9KvbwjmWURr9FGf5t+lehV/RXCOH+r5RTbWsry+96fgkfhnE1f22Z1Eto2X3LX8Wwr4s/ak8Gt4b+JEmoRpiz1eMXCsBwJB8si/nhv+BV9p15J+014Hbxb8OZ7u3TffaS32tABy0fSQf8AfPzf8Br9SyHGfVMdFyfuy91/Pb8bH5Bxflv9pZTUUVeUPeXy3/C/zPiWiiiv2c/lwKKKKACiiigD0v8AZ38Xr4R+KGmtNJ5drf8A+gysTwN5G0n23Ba+6q/MuORo5FdDtZTkEdjX6DfCjxlH488BaTqyvunaIRXC91mXhwfx5+hFfnHFeEtKGLj10f6fqfuXh3mXNTq5dN6r3o+mz/T7zrqKKK/Pj9mCiiigAooooAKKKKACiiigAooooAKKKKACiiigArj/AImeIho2hNbRti6vMxrjsn8R/p+NdezBVLE4AGSa8C8aeIG8Ra9PcA/uEPlwj/ZHf8ev418VxZmn9nYB04P36mi9Or+7T1Z9bw1l317Gqc17kNX69F/XYwqKKK/nk/cAooooAsafYy6nfQWkC7pZnCKPrX0PpGmxaPpttZQjEcKBfqe5/E5Nec/CPw/5k02rzL8qfuofc/xH+n4mvUq/cuCsr+rYV42oveqbf4V/m/wsfj/FuYfWMSsJB+7Df/E/8l+oUUUV+knwR4F46h8nxdqi+sxb8wD/AFrBrq/idD5XjK8bH+sWNv8AxwD+lcpX8tZtT9nmGIh2nL82f0Xlk/aYGhLvGP5IKKKK8k9IK9W+DM27T9Sh/uyq/wCYI/8AZa8pr0b4Mz7b7U4c/ejR/wAiR/7NX1/CdT2ecUfPmX/krPmOJqfPlVXys/xR6rRRRX9GH4SFcn8UL4WfhKdM4a4dYh+eT+gNdZXmPxlvvm060B4+aVh+QH9a+a4kxP1XKa81u1b/AMC0/U9/IaH1jMqMeid/u1/Q8yooor+aT9+CiinwxNPNHGv3nYKPxNNJt2QN2V2e5fDmxNj4RssjDSgyn8Tx+mK0vEmvweG9KlvJsEj5Y484Lt2FWoVh0rTY1ZhFBbRAFm4Cqo6/kK8Q8beKpPFGrM6kraRZWFPb+8fc1/QOa5nDh3K6dCH8TlUYr0Wsvl+LPxLLcvlnuY1K0/4d2383ovn+Rj6lqU+rX013cvvmlbcx/oPaqtFFfgE5yqSc5u7erP2uMY04qEVZIKKK2PC/hu48TaoltCNsY+aWTsi+v19K0oUKmJqxo0VeUnZIzrVqeHpyq1XaK1bNf4f+DW8RX32m5QjT4T83bzG/uj29a9rVVjUKoCqowABwKr6bpsGk2MNpbII4Yl2qP6n3qzX9IZFk1PJsKqa1m9ZPu+3oun3n4NnGa1M1xDqPSC+FeX+b6hRRRX0h4J5B8XtS+0a5BZg5W3iyR/tNz/LFcHX0lNptpcSGSW1hkdurNGCT+OKZ/Y9h/wA+Vv8A9+l/wr8uzLg6vmOMqYqVdLme1noui37H6Ll/FNHA4WnhlRb5V369enc+cKK+j/7HsP8Anyt/+/S/4Uf2PYf8+Vv/AN+l/wAK8z/UGt/0EL/wF/5nof66Uv8Anw/v/wCAfPWl2D6pqVtaR/fmkVB7ZPWvobStLt9GsIrS1QJFGMe5Pcn3NOi0yzhkDx2kMbr0ZYwCP0qzX2XD/Dsck55Tkpzl1tay7ff+h8pnmeSzbkjGLjGPS97vuFFFFfZHypxfxYtY5vC/mso8yGZSjdxng14xXr3xgvBDodrbZ+aabOPZRz+pFeQ1+AcaShLNmo7qMb+u/wCVj9r4TjKOWpy2cnb0/wCHuFFFFfBn2QV7x8PIzH4P04HurN+bGvB6+ifDdqbHw/p0BGGSBMj0OMmv07gOm5YytU7Rt97X+R+fcZVEsLSp95X+5f8ABNKvAPG19/aPirUps5Hm7F+ijaP5V7xfXS2VjcXDnCQxtIfoATXzdNI00zyNyzsWP416/HuItSoYddW5fdovzZ5nBdC9StXfRJffq/yQyiiivxo/VAoorsfhn4bTXNaM9wu+2tAHK9mb+EH24J/Cu/A4OpmGJhhaW8nb/N/JanHjMVTwWHniKm0V/S+ZP4Y+F95rEMd1eyfYrZ+Qu3MjD6dvx/Kuyh+FOgxoAyXEpH8TS4J/LFdjRX7/AILhfK8HTUZUlOXVy1v8tkfimL4izHFTclUcF0UdP+Czirz4S6LPCywm4tpOzq+7H4GvK/EGhz+HdUlspyGZOQ69GU9DX0TXjvxeZT4lhA6i3XP5mvleLslwOGwSxWHpqEk0tNE0/LY+j4YzbGYjFvD15uUWm9dbW8zhqKKK/Gz9UCiilVSzBQMknAApgaOhaBeeIr0W1nHvbqzHhUHqTXpWl/CDT4Igb+4lupe4jOxB/X9a6Lwb4cj8N6LFBsAuXG+du5Y9s+g6Vu1+65JwlhMPQjVx0Oeo9bPZeVur73Px3N+JsTWrSp4OXLBdVu/O/wCVjkD8K9AK48mYe/nGuH8cfD4+GYReWsrT2RYKwkHzRk9MkdRXs9c78Qtp8G6nv6bF/PeuP1ruzrh/Lp4CrOnSUJRi2mlbZX6dDjynPMfHGUoTquUZNJp67ux4NRRRX89n7cFFFFAHe/B63MniC6m/hjtiPxLL/ga9erzv4N2ezTr+6I/1kixg/wC6M/8As1eiV/RXCVD2OUUm/tXf3v8AyPwviat7XM6lvs2X4f5nH/FPUjY+FniU4a5kWL8Op/lXilfS1xawXQAnhjmC8gSKGx+dQf2PYf8APlb/APfpf8K87PeF62c4v6x7ZRSSSVr/AK9zvybiGllWG9h7Jybbbd/+AfOFFfR/9j2H/Plb/wDfpf8ACj+x7D/nyt/+/S/4V87/AKg1v+ghf+Av/M93/XSl/wA+H9//AAD5wr2v4a+HItI0OK7ZM3d2u9mPUL/CB+HNdJ/Y9h/z5W//AH6X/CraqEUKoCqowABwK+jyLhRZTiXias1N2stLW89/keDnHEjzPDrD04OCvrrv5C0UUV+gnxBBf28d3Y3EMqho5I2VgfQivm112uwHQHFfRWvXYsdEvrgnHlwu36GvnTrzX43x9KPtcPFb2l92lv1P1TguMvZ15dLr9f8AgCUUUV+UH6SFelfBiM/aNUk7bY1/Vq81r1v4O2vl6Pe3BH+sm2j8B/8AXr7LhGm6mcUn25n/AOStfqfLcT1FDK6i72X4o9Arifi1e/Z/DSQg4aeZVx7DJP8AIV21eT/GO+8zU7G0B4hiMh+rHH8l/Wv17inEfVsprPrK0fvdn+Fz8v4dofWMzpLotfuX+djzyiiiv5vP3kKKKltbd7u5igTl5XCL9ScVUYuTSW7E2oq7PdvANl9h8J6emMFk8w/8CJP9a6Co7a3W1t4oUGEjQIv0AwKkr+rsHQWFw9OgvspL7lY/mzFVniK86z+02/vYUyaFLiGSKVA8cilWVuhBGCKfRXWcu+jPz5+LHgaT4e+OtS0jk2wfzbZz/FE3K/iOh9wa5Cvsb9qb4df8JN4RXXrSHdqOkgs+0cvbn7w/4Cfm9hur45r9tyfHLH4SNRv3lo/Vf57n8p8TZS8nzGdGK9yXvR9H0+T0CiiivbPlAooooAK+gf2SfHy6T4gu/DF0+2DUR5tsSeBMo5X/AIEv6qPWvn6rWk6pc6JqdrqFnKYbq2kWWKQdmByK4MfhI47DToS67evQ9jJ8xnlWOp4uH2Xr5rqvuP0rornfh94yt/H3hHTtbt9q/aI/3sanPlyDh1/A5/DFdFX4VUpypTdOas1oz+uqNaGIpxrUneMkmn5MKKKKzNgooooAKKKKACiiigAooooAKKKKACiimySLDGzuQqKMlj2ApN21Y99Ecb8UPEX9k6L9jifbc3mV46hP4j+PT8TXjFbXi7Xm8Ra5cXfIizsiU9kHT8+v41i1/NnEWaf2rj5VIv3I6R9F1+b1P3zIsu/s3BRpyXvvWXq+ny2CiiivmD6AKnsbOXULyG2hXdLM4RR7moK6DwXr1l4b1Rr27t5Lh1QrEI8fKT1PPtx+NdmDp0q2IhCvPlg3q+y6nLiqlSlQnOjHmklou76Ht2jaXFoul21lCPkhQLn+8e5/E1drz7/hcmn/APPjc/mv+NH/AAuTT/8AnxufzX/Gv6Ep8RZLSgqcK6SSstHsvkfiE8izapJznRbb1eq/zPQaK8+/4XJp/wDz43P5r/jR/wALk0//AJ8bn81/xrT/AFmyj/oIX3P/ACI/1fzT/ny/w/zOd+LsWzxNE/8Aft1/QtXD10vjrxRb+Kr+3uIIZIRHHsIkxzzntXNV+D55WpYjMa1WhK8ZO6Z+y5RSq0cBSpVlaSVmgooorwz1wruPhHN5fiaVP79uw/UH+lcPXV/DGby/GFqP76uv/jpP9K97IZ+zzTDy/vL8XY8bOYc+XV1/df4anuFFFFf06fz2FeI/FDUPtvi2dAcpbosQ/LJ/Un8q9tZtqknoOa+cdYuzf6teXJOfNmZ8/UmvzLjvEezwdLDr7Ur/ACS/zaP0Hg2hz4qpWf2Vb73/AMBlOiiivxE/XAp8UrwSJJGxV1IZWHYjvTKKabTugeujNW88U6vqFu8FzqE80L/eRm4NZVFFbVa1Wu+arJyfm7/mZU6VOiuWnFRXkrBRRRWBqWNPsJ9UvIrW2QyTSttVa968K+GYPC+lpbR4eZvmllxy7f4elcx8JdHs49KfUlIlvJGaNuP9WB/CPrwa9Ar904QySGFw6x9TWc1p5L/N9e23c/HuKM3niazwVPSEHr5v/JdPv7BRRRX6OfBhRRUF9fQabay3NzIsUMY3MzVMpRhFyk7JFRi5NRirtk9c5rPj/RdF3LJdfaJhx5VuN5/PoPzrzbxd8RLzX5JILVmtLDpsU4aQerH+lchX5PmvG6hN0suinb7T2+S/V/cfpOW8IOcVUx0rf3V+r/y+89OuvjNyfs2m8essn9AKzX+MWrk/JaWSj3Vz/wCzVwdFfEVOKM3qu7rteiS/JH2FPh3K6asqKfq2/wBTtz8Xdb/55WY/7Zt/8VT0+MGsr962sm/4A4/9mrhaK51xFmy1+sS+82eR5a/+XET06w+MvzKL3TsL3aB+fyP+Nd7ouvWPiC1E9lOJV/iXoyn0I7V86Vv+CdcfQfEFtL5myCRhHMCcAqe5+nX8K+pyfjDGQxEKWOlzwk7Xsk156fjc+dzXhfCzoSqYNcs0r23T8tfwN74wXxm162tgflghzj3Y8/oBXBVueNdSXVfFGoTxsHi8zYjKcgheMj2OM/jWHXx+dYn63mNesndOTt6LRfgj6jKaH1bAUaTVmoq/q9X+IUUUV4h6xe0Ox/tLWLK1xkSzKp+mef0r6NrxH4X2JvPFsD4ytujSn8sD9SK9ur9v4Ew/Jgqtdr4pW+SX+bZ+RcZV+fF06K+zG/3v/gI5j4kX32Lwje4OGm2xD8Tz+ma8Lr1X4yX+yy0+zB5kdpWHsowP5n8q8qr43jTEe2zR019iKX36/qfVcJ0PZZcpv7bb/T9Aooor4I+zCvbfhdposfCsUuMSXLtKx9ug/QfrXiYBYgAZNfR2jWP9m6TZ2veGJUP1A5/Wv0zgXDe0xlXENfBG3zk/8kz4DjHEcmFp0U/id/kv+C0XKKKK/bz8hCvCviNeC88XX2DlYiIh+A5/XNe5TSrBC8jfdRSx/AV83X1y15e3Fw5y8sjSE+5Oa/LuPMRy4ajh19pt/cv+CfonBlDmxFWu/sq33v8A4BBRRRX4qfrIV0HgLTxqXiuwjIyiP5rf8BGf54rn69F+Ddj5moX94R/q4xEv/Ajk/wDoP617+Q4b63mdCk9uZN+i1f5HjZziPquX1qi3tb5vT9T1aiiiv6cP57CuN+LF39n8KNEDzPMifgPm/oK7KvMPjLffvNOsweQGlYfoP5GvmOJsR9XymvLurf8AgTt+p9Dw/R9vmdGPZ3+7U8zooor+az98CiinwxtNNHGoyzsFAHuaaTbsgbsrs91+Hun/ANn+EbBSMPKpmb/gRyP0xXR1DZ24s7OCBekaKg/AYqav6uwWHWFw1OgvsxS+5H824us8TiKlZ/abf3sKzdW8R6boa5vbuOA4yEJyx/Ac1xXjj4lGzkk0/SXBlU7ZLochfZff3ry+aaS5meWV2lkc5Z3OST6k18FnXGVLBTdDBRU5rdv4V/n+HqfZZTwrVxcFWxb5IvZdX/kep3/xktI2K2djLN6NKwQfkM1kTfGPUmb9zZWqL6PuY/zFef0V+d1uK83rO/tuX0SX6XPuqXDeV0lb2V/Vt/rY7hvi9rbdIbNfpG3/AMVQvxe1pesFk31jb/4quHorj/1hza9/rEvvOr+w8t29hE9EtfjJeKw+06fBIP8ApkzL/PNdp4b8eaZ4lYRRs1vdf88JsAn6HvXg9SQzSW0ySxOY5EIZWU4II717GB4wzLDVE68vaQ6ppX+TXX1ueXjOF8BiIP2MeSXRq9vmj2j4qX/2PwnLEDhriRY/wzuP8v1rxOu38feJ017R9ECyI8pjMk6oR8rcDBHbvXEVzcV46GPzHnpu8VGKXzV/1N+G8HLB4DkqK0nJt/fb9Aooor44+pCvevh/p/8AZ3hLT0Iw8iGVv+BHI/TH5V4TbwtcXEUSjLSMFA9ycV9JWtuLW1hhX7saBB+AxX6nwHh+bEVsQ/spL73f9D854zr8tClQXVt/crfqS14R8Q777d4uvyDlYmEQ/wCAjB/XNe53Ey28EkrfdRSx/AZr5uu7hrq6mnc5eR2cn3JzXrceYnlw9HDr7Tb+5W/U83gyhzV6td9El97/AOAQ0UUV+LH6wFdD4Asvt3i3T0xkI/mH/gIJrnq9D+Dlh5mqX14R/qohGv1Y5/8AZf1r3shw/wBazOhS/vJ/Jav8jxs5r/VsvrVPJr79P1PWKKKK/p0/nsKKKKAGyRpNG8cih0cFWVhkEHqK+C/jb8N5Phr42ubSNf8AiWXRM9k/bYTyv1U8fke9fe1cD8afhnD8TfBs9miKNUt8zWUp4xIB90n0Ycfke1fRZHmX9n4n337ktH+j+X5HxPFmR/2zgX7NfvaesfPvH5/nY+CKKlvLSbT7qa2uYmguIXMckbjDKwOCCPrUVfsqd9Ufy804uzCiiimIKKKKAPcf2XPiavhXxM/h+/m2abqrARFj8sdx0U+wYcfULX2JX5lxyNFIroxR1OVZTggjvX3L8AvimvxI8IpHdyqdb08LFdL0MgxhZcf7WOffNfm/E2W8svrtNaPSX6P9D9y4CzxTg8qrvVaw9OsfluvK/Y9Pooor8/P2YKKKKACiiigAooooAKKKKACiiigArh/ip4iOmaOthC+J7vhsdRGOv59PzrtZpkt4XlkYJGilmY9AB1NfPvijXH8Ra3cXhzsY7Y1PZB0H+fWvheLs0+oYH2NN+/U09F1f6fM+x4Yy767jPazXuU9fn0X6/IyaKKK/n4/bAooooAKKKKACiiigAooooAKKKKACiiigArd8DTfZ/F2lt0zME/76BH9awqu6JN9m1mwm6eXcRv8AkwNduCqexxVKp2kn9zOXF0/a4epT7xa+9H0dRRRX9XH82GT4s1D+zPDeo3AOGWFgp/2jwP1Ir56r2X4tXv2fwykIOGnmVfwGSf5CvGq/C+OcR7TMIUVtCP4t3/Kx+xcH0PZ4KdV7yl+C/wCDcKKKK/OD7sKKK9o8J+CtJk8OWEl3p8M1xJEHZ3HJzyP0r6DJ8mrZ1VlSoyUeVXu7/oeLmua0sppxqVU3d20PF6K2PF2i/wBg+ILu0UYiDbo/9w8j8un4Vj14+Iozw1WdGovei2n8j1KNaGIpRqw2kk18wooornNjuvhRr39n6w9hIcQ3Y+X2kHT8xkflXsNfNFvcSWtxHNExSWNgysOxHSvofw/qya5o9repgeamWUdm6EfnX7XwPmXtqE8BN6w1Xo9/uf5n5LxfgPZVo4yC0no/VbfevyNCiiiv1A/PArx74oeKm1PUm02B/wDRLZsPt/jk7/l0/OvTfE+rDRNBvbzOGjjwn+8eF/UivnpmMjFmOWY5Jr8t43zSVGlDAUnZz1l6dF83+R+i8IZfGrUljai0jovXq/kvzG0UUV+LH6wFFFdp4D8A/wDCSKby8ZorFW2qq8NIR157CvQwOBr5lXWHw0byf4eb8jixmMo4Ci69d2iv6sji6K+hLPwjo1ggWHTbcY4yybj+Z5q1/Yun/wDPjbf9+l/wr9DhwFiWvfrxT9G/8j4eXGlBP3aLa9Uv8z5xor6GuvCmj3ilZdNtmHtGAfzFeWfEPwXB4ZkgubNm+yzMV8tjko3XGe4rxM24TxeV0HieZTgt7aNfL/gnr5bxLhsxrLD8rjJ7X2fzOMooor4c+uCiiigD0/4NWXy6jdkcnbEp/Mn+lemVyfwvsPsXhKByMNcO0p/PA/QD866yv6W4bw/1XKaEHu1f/wAC1/U/Ac+r/WMyrSXR2+7T9Dxf4r3n2nxSYgciCJU/E8/1rjK0vEmof2pr+oXWcrJMxX/dBwP0ArNr+fs1xH1vHVq62lJ29L6fgftuW0Pq2DpUXuor77a/iFFFFeUeia3hOy/tDxJp0BGVaZSR7A5P8q+ha8a+Eth9q8TPcEfLbQs2f9o4UfoT+Vey1+68DYf2eXzrP7cvwSt+dz8d4wr+0xsaS+zH8X/wLBRRRX6MfCGH42vv7O8K6jNnDGLy1+rHaP514BXrvxgvfJ0O1tgcGabcfoo/xIryKvwfjfE+1zJUVtCK+96/lY/ZeEaHs8A6r3nJ/ctP8wooor88PuAr2T4SWJt/DT3BGDcTMR7gcfzBrxuvobwrY/2d4c063xgrCpP1Iyf1Jr9H4Gw3tMwnXe0I/i9PyufCcYYj2eCjRX2pfgv+DY1aKKK/dD8dCvDviZffbfF10M5WFViH4DJ/UmvcGYKpZjgAZJr5w1a9Opapd3R/5bSs4+hPFfmPHmI5MJSw6+1K/wBy/wCCfoXBtDmxNWt/Krfe/wDgFSiiivxI/Wwrf8B2P9oeLNOjIyqSeaf+A/N/MCsCu/8Ag9YmbWru6I+WCHbn3Y/4A17uR4f61mdCl05k/ktX+CPIziv9Xy+tU/uv73ovzPXK4z4l+KW0PS1tLd9t3dAjcOqJ3P17fnXZ14B401g634kvJw26JW8uP02rwMfqfxr9o4szSWXYDkpO06mi8l1f6fM/JuGcvjjsbzVFeMNX5vov1+RiUlFFfz0fuAUUVr+GfDs/ibVEtITsXG6SQjIRfWt6FGpiasaNJXlJ2SMq1aGHpyq1XaK1bMiivd9I+H+iaTCq/ZFupR1luBuJP06D8K1xoenDgWFt/wB+l/wr9Io8B4uUE6taMX2s3/kfBVeMsNGTVOk2u+i/zPnGivouXw7pcylX0+2YehiX/CuN8bfDnT10y4v9Pj+yzQoZGjU/I4HXjscelcuO4KxmFoyrU6inyq7Wqfy/4c6cHxbhcTVjSqQcb6X3R5NRRRX50fchRRRQB0Xw/sf7Q8XaepGVjfzT/wABGR+uK95ryb4O2Pm6re3ZHywxBB9WP+CmvWa/fOCcP7HLPatfHJv5LT9GfjHF1f2uYezX2Ipffr+qMLxzff2d4U1GXOGaPy1+rEL/AFrwGvXPjDeeVotpbA8zTbiPZR/9evI6+F43xHtcyVJbQil83r+Vj7DhGh7PAOp1nJ/ctP8AMKKKK/PT7cK9j+Edj9n8OS3BGDcTEj6Lx/PNeOV9C+E7Eab4b063xgrCpP1PJ/Umv0bgfDe1zCdZ7Qj+L0/K58LxhX9ngY0l9qX4LX87GtRRRX7qfjgUUUUAFFFFAHzP+1J8HzJv8ZaPASwwNRhjGfYTY/RvwPqa+Yq/TKeGO5hkhlRZIpFKujDIYHggiviX4+fBuX4ba4b3T4nfw9eOTC/XyH6mNj/I9x9K/S+HM29pFYKu/eXwvuu3y6eR+D8b8NuhN5phY+7L40uj/m9H18/U8nooor70/HwooooAK6b4c+PL74c+KrTWbL5hGdk8JOBNET8yH+h7EA1zNFZ1KcK0HTmrp6M3oVqmGqxrUnaUXdPzR+kPhjxJY+LtBs9X02YTWl0gdSOo9VPoQeCPatSvib9n/wCMj/DnWv7O1GQnw/ev+9zk/Z36CQe3Yj057V9rQzR3ESSxOssTgMrochgehB7ivxbNstnltfkesXs/66o/qfh3PaWeYRVVpUjpJdn39H0+7oPooorxD6oKKKKACiiigAooooAKKKjuLiO1t5JpWCRRqXZj0AAyTSbUVd7DScnZHDfFfxF9g0xNNhbE11zJjtGP8T/I15DWn4k1qTxBrNzeyE4dsIv91RwB+VZlfzPn+ZvNcfOsn7q0j6L/AD3+Z/QGS5estwcaT+J6y9X/AJbBRRRXzp7gUUV2fgPwGniiG4ubuSWC2Q7EMWAWbv1B4H9a9DA4GvmNdYfDq8n+hxYzGUcDRdeu7RRxlFevf8Kd0r/n8vP++k/+Jo/4U7pX/P5ef99J/wDE19T/AKmZv/Kv/AkfO/615Z/M/uZ5DRXr3/CndK/5/Lz/AL6T/wCJo/4U7pX/AD+Xn/fSf/E0f6mZv/Kv/AkH+teWfzP7meQ0V69/wp3Sv+fy8/76T/4mj/hTulf8/l5/30n/AMTR/qZm/wDKv/AkH+teWfzP7meQ0V6N4u+GtjoGg3F9b3FzJLEVwshXGCwB6D3rzmvm8yyzE5VWVDEq0mr6O+mq/Q97AZhQzKk62Hd0nbtr/TCiiivKPRCnxttkQ+hBplFNaagfS9vJ51vG/wDeUN+YqSqOgzefolhJ13QIf/HRV6v60oz9pTjPukz+Z6seSpKPZs8n+Md95mp2NoDxFEZD9WOP5L+teeV0nxDvvt3i6/IOViYRD/gIwf1zXN1/NOfYj61mlepf7TXyWi/I/fslofV8uo0/7qf36/qFFFFeAe0T2Vq19eQW6ffldUH1JxX0jBCtvDHEgwkahVHsBivC/h5ZfbvF1guMrGxlP/AQT/PFe71+08B4flw1bEP7TS+5X/U/J+M6/NXpUOyb+9/8A83+MGi+Zb2uqRj5oz5Mv0PKn88/nXllfRev6Umt6Pd2T/8ALVCFPo3UH88V87zRNBK8bja6Eqw9CK+a42wH1bHLExXu1F+K0f4W/E9/hLG+3wbw8nrTf4Pb8bjKKKK/Oz7kK9I+EOvGO4uNKkf5ZP3sQP8AeH3gPwwfwrzerWl6hJpWoW93EcSQuHH4dq9nJ8wllmNp4lbJ6+j3/rueXmmCWYYSeHe7Wnqtj6Roqvp99FqVjBdQtuimQOp+oqxX9QRlGcVOLumfzxKLhJxkrNHn3xivjHpNlag482UuR7KP/r15LXf/ABjuC2uWUGeI7ff+LMR/7KK4Cv504rruvm9btGy+5L9bn7rw3RVHLKXnd/e/8gooor5E+mFAyQK+i9BsU03RbK2QYWOJR+OOT+dfOgOOa938H+LrLXtNgUTol5GgWSFiA2QOo9RX6fwLWoU8TWhUaU5JWv111S/A/PeMaVaph6UoK8U3f9P1OjooznpSMyr1IH1Nfth+SC15p8ZL9fL0+yBy+WlYeg6D+v5V2GueMtK0GJjPdI8o6QREM5P0HT8a8R8Qa5N4h1aa9mG0ucKmchVHQV+b8YZxQp4OWCpyTnO10uiTvr+Vj73hfK61TFxxdSLUI7X6vbQzaKKK/DD9gClUbmAHU8Ula3hSw/tPxJp1uRlWmUsP9kHJ/QGt6FKVerClHeTS+92Mq1RUacqstopv7j3nR7QWGk2dsBjyoVT8gKZr14NP0W+uSceXCzD644q/XH/FS/Np4VkiBw1xIsf4A7j/AC/Wv6dzCtHL8vq1I/Yi7fJWR/PWCpvG46nB/akr/fqeKk5OTSUUV/LZ/RQUUUUAesfBuz8vTb+6I5klEYP+6M/+zV6HXO/D7T/7P8I2CkYeRTM3/Ajkfpiuir+nMhw/1XK6FJ78qfzev6n8+Z1X+s5hWqLa9vu0/QKKKK988U8h+MGoefrttag5W3hyf95jn+QFcFW542vPt3irUpc5AlKD/gPy/wBKw6/l/OsR9bzKvW7yf3LRfgj+h8pofVsBRpdor73q/wAWFFFFeIesXNHsjqWrWdqOs0yp+ZGTX0cqhVCgYAGBXiXwvs/tXi2ByMiBGk/TA/nXt1ft3AmH5MHVxD3lK3yS/wA2z8j4yr8+Kp0V9lX+bf8AwEFFFFfpp+fGP4wvf7P8M6lMDg+Syj6nj+tfPlexfFzUPs/h2K2B+a4mAI/2VGT+u2vHa/CeOMR7XMY0V9iK+96/lY/Y+D6Hs8DKq/tS/BafncKKKK/Oj7oK9h+ENj9n8PT3BHzTzHn2UYH65rx6voHwZYf2b4X02EjDeUHb6t8x/nX6JwPh/a5jKs1pCL+96flc+G4vr+zwMaS3lJfctfzsT+Jr86Z4fv7lTtdIW2n0JGB+pr53r274o3Bh8H3CjgySIn65/pXiNbcdV3PHU6PSMb/Nt/5Iy4NoqODqVespfkl/mwooor81Pvgr174QWCQ6HcXeP3k820t/sqOB+ZNeQ16X8LfFlpY2sml3kq27GQvFI5wpz1XPY8frX2fCNahRzWEq7S0aTfd/8C6PlOJqVatlso0VfVXt2/qx6hRSK6uMqwYexpSQOpxX9D36n4cFYXji+XT/AArqMjHBaMxr7luP61o3+s2OlwmS7u4YEH99xk/Qd68h+IHjZfE00dtablsITuBbgyN649PT618nxDnGHy/BVI869pJNJdddL+i3PpcjyutjsXCXK+SLTb6adPVnHUUUV/OJ+7hRRRQB7J8JbL7P4aecjDXEzNn2GAP6129ZPhPT/wCy/DenWxGGWFSw/wBo8n9Sa1q/qTKMP9Uy+hRe6ir+u7/E/nXNK/1nG1qq2cn93T8DyD4v6h9o163tQcrbw5P+8xz/ACC1wdbnja8+3eKtSlByBKUH/AeP6Vh1/O2dYj61mVer3k/uWi/BH7plND6tgKNLtFfe9X+LCiiivEPWLek2bajqlnar1mlVPzIFfR6qEUKowAMCvEfhjZfa/F1uxGRArSfpgfzr2+v27gTDcmDq4h7ylb5Jf5tn5HxlX58VToL7Kv8Ae/8AgBRRRX6afnwUUUUAFFFFABWb4j8O6f4s0W60rU7dbmyuUKOjfoQexHUHtWlRVRlKElKLs0ROEakXCauno0fAfxa+FWofC3xA1rOGn02clrO8xxIvofRhnkVw1fo14y8G6Z470G40jVoPOtpRkMPvxt2dT2YV8NfFL4V6r8Ltca0vFM9jIc2t8q/JKv8ARh3H9K/W8lzqOPiqNZ2qL8fNefdH83cVcLTyeo8ThlehL/yV9n5dn8nrvxVFFFfVn52FFFFABX0R+zj8dxorweFfENxjT2O2yu5D/qWP/LNj/dPY9jx06fO9FcGNwVLH0XRqrT8n3R7GVZpiMnxUcVh3qt10a7P+vM/TWivmD9n39oQW4t/DHii5/d/cs9Rmb7vpHIT29G/A19PBgwBByD0NfjGPwFbL6zpVV6Po0f1Jk+cYbOsMsRh36rqn2f6PqLRRRXmnuBRRRQAUUUUAFeffFrxELSwj0qFv3tx88uOyDoPxP8q7u8uo7G1luJm2xRKXY+wFfPWv6xLr2rXN7LwZG+Vf7q9h+VfAcY5p9SwX1am/fq6ekev37fefa8LZd9bxf1ia92nr8+n3b/cZ9FFFfgZ+0BRRRQBNZ2sl9dQ28K7pZXCKPcnFfQ2haTFoek21lF92JcFv7zdz+Jrzj4R+HvPuptWmT5If3cOe7Ecn8B/OvVq/cOCcr+r4aWOqL3qmi/wr/N/kj8h4tzH29dYOD92G/r/wF+bCiiiv0s+ACiiigAooooAwfHcXneEdTHpFu/Ig14FX0T4kh8/w/qSYyTbyY/75NfO1fifHkLYujPvG33P/AIJ+t8GTvhqsO0vzX/ACiiivzA/QgooooA9/8DzfaPCWlt1xCE/754/pWxcTLb28krfdjUsfwGa5f4Xz+d4OtV6+W8if+PE/1q946v8A+zvCeoy5wzR+Wv1Yhf6/pX9N4PFqnk9PFS6U0/uifz7isM55pPDLrUa++R4Rd3DXV1NO5y0js5PuTmoaKK/maUnJuT3Z/QMUopJBRRRUjPRvg3Y776/vCP8AVxrEv/Ajk/8AoI/OvVa4r4S2JtvDJnIwbiZmH0Hy/wAwa7Wv6R4Xw/1bKaKtrJc33u/5WPwXiKv7fM6r6J2+5W/O4V4l8TtFGleJJJUXEN2PNHs3Rh+fP417bXG/FLRRqXh03KLmazbzB7qeGH8j+FY8VYD69lk3Fe9D3l8t/wALm3DeN+p5hBSfuz91/Pb8Txaiiiv50P3QKKKKAPV/hFrwns59Klb95CfMi91PUfgf516JXzx4b1p9A1q1vV5WNsOv95TwR+VfQkMyTxJJG25HAZWHcGv33g3MvrmA+rzfvUtP+3en+XyPxbirAfVcZ7eC92pr8+v+fzPIvjBCy+I7aTHyvbKAfcM2f5iuEr2T4qeH5NV0eO8gTfLaEllHUoev5YBrxuvzLivCzw2a1ZSWk/eXz3/G5+g8N4mGIy2nGL1jo/69Aooor48+oClBKnIODSUUwLK6ldqMC6mA9pD/AI0yS8uJOHnkcf7Tk1DRWntJtWcmR7OCd0kFS3VrLZzNDMhjlXGVbqMjNdT4E8KnUpzqd6uzS7TMjFhxIV5wPbjmub1O+fU9QubuT780jOfbJ6V21cFKhhYYiro5v3V5Ld/e0l8zjp4uNbEzoU9VBavzey+69/kVaKKK807wrtvhLZ/aPEzTEZEELN+JwP6muJr1j4N2Hl6bf3hHMsixj6KM/wA2/Svq+F8P9ZzaiukXzfcr/nY+c4ir/V8sqvq9Pvdvyueh15f8Zb7M2nWYPIVpWH1OB/I16hXhvxKvvtvi67GcrCFiH4Dn9Sa/VeM8T7DKnTW82l+v6H5vwpQ9tmSm/sJv9P1OWooor+fz9rCpIImuJo4lGWdgoHuTio66DwFY/wBoeLNOQjKpJ5p/4DyP1ArrwlB4rEU6C3k0vvdjnxNZYehOs/spv7ke62duLS0hgXpGioPwGKmoor+roxUUorZH81yk5NthVfULtdPsbi5b7sMbSH8BmrFcz8Rr77D4RvTnDS7Yh+J5/TNceOxH1XC1a/8ALFv7kdeDo/WcTTo/zNL72eGySNNI8jnc7EsT6k0yiiv5Tbvqz+kdtEFFFFID074M6f8A8hG9I/uwqf1b/wBlr02uS+F9n9l8JQORgzu0n64H8q62v6W4bw/1XKaEO6v/AOBa/qfgOfV/rGZVpdnb7tP0CiiivpTwDyX4xXnmatZWoPEURcj3Y/8A1q8+roPHl/8A2j4s1GQHKo/lL9FAX+YP51z9fzDnuJ+t5nXqrbmaXotF+R/QuT0Pq2X0ab35U/m9X+YUUUV4R7BZ021N9qNrbgZMsqp+ZxX0giiNFUdFGBXh/wANdP8At3i60JGUgDTN+A4/Uivcq/bOA8PyYStiH9qVvuX/AAT8l4yr82JpUF9lX+9/8A4/4rQtJ4RkYdI5kY/mR/WvFK+jNe0tda0e7smO3zkKhj2PY/nXz1eWc2n3UttcIY5o2Ksp7Gvn+OsLOGMp4m3uyjb5pv8ARntcHYmEsLPD396Lv8nb9SCiiivzM/QAooooAmjvLiFcRzyIPRXIpzahdNw1zMR7yH/Gq9Fa+0mlZSZHs4N3sKzFjliSfU1I1rKluk7IRC7FVbsSMZ/mKuaDod14h1CO0tUyzH5nP3UXuTWp46MFpqUOlWv/AB76fEIs/wB5zyx+uT+ldsMHJ4WeMqaRukvOX/AV7/I45YqKxMcLDWVm35L/AILtb5nNUUUV5p3hV3RrM6hq1nbAZ82ZU/MiqVdd8LtP+2eLIZCMrbo0p+uMD9T+lelluHeLxlGh/NJL5X1/A4cfX+q4WrW/li3+Gh7Yq7VAHQcVBqF2thY3Fy33YY2kP4DNWK5r4jXv2LwjenOGkAiH4n/DNf03jq/1XC1a/wDLFv7kfz5g6P1nE06P8zS+9nhckjTSM7nLMSxPqTTaKK/lNu+rP6R20QUUUUgPTPg1p/zajekdAsKn9W/9lr0+uR+Ftn9l8JwuRgzyNJ+uP6V11f0rw3h/quU0IdWr/wDgWv6n4Fn9f6xmVaXZ2+7QKKKK+mPnwooooAKKKKACiiigArI8V+E9L8a6LPpWr2q3VpL2P3kbsynsR61r0VcJypyU4OzRnUpwrQdOorxejT2Z8IfF74K6r8LdQMhDXuiTORb3yr09Ekx91v0Pb0HnNfpZqWm2msWM1lfW0d3aTKUkhmUMrA9iDXyZ8ZP2Z7zwu02r+F0k1DSQC8tp96a3Ht/fX9R79a/T8n4ghiEqGLdp9H0f+T/A/AeJeC6mBcsXlycqe7ju4+ndfivPc8Gooor7Y/KQooooAK+g/gX+0dJ4f8jQPFMzTabxHbX7nLW/YK/qnv2+nT58orhxmCo46k6VZXX4r0PXyvNcVlGIWIwsrPqujXZr+vI/TG3uIrqGOaCRJoZFDJJGwZWB6EEdRUlfEHwd+Pmq/DWaOxu9+paAz/Nbs3zwZ6tGT0/3eh9utfY/hTxdpPjbR49T0a8S8tX4JX7yN3Vh1B9jX5DmWU18tn72sHs/8+zP6VyHiPCZ5T/dvlqLeL39V3Xn95sUUUV4Z9YFFFFAHHfEmHVdR02Ow021knSU7pmTAGB0Xr6/yrzX/hAfEH/QMm/Nf8a97or4vNOF8Pm2JeJr1ZXslZWsku2nzPrMu4ir5bQWHo0423u73b+88E/4QHxB/wBAyb81/wAaP+EB8Qf9Ayb81/xr3uivJ/1DwH/P2f8A5L/ken/rljf+fcfx/wAzwT/hAfEH/QMm/Nf8aWP4f+IHkVf7NkXccbmK4H6171RR/qJgP+fs/wAP8hf65Y3/AJ9x/H/Mo6HpMeh6TbWUXKwpgt6nufxOavUUV+jU6cKMI06askrL0R8LUqSqzdSbu3qwooorQzCiiigAooooAZcRCeCSM9HUqfxFeD/8ID4g/wCgZN+a/wCNe90V8znOQYfO3TdeTjyX2t1t3T7H0GVZ1XylTVGKfNbe/S/ZrueCf8ID4g/6Bk35r/jR/wAID4g/6Bk35r/jXvdFfN/6h4D/AJ+z/wDJf8j3/wDXLG/8+4/j/meCf8ID4g/6Bk35r/jR/wAID4g/6Bk35r/jXvdFH+oeA/5+z/8AJf8AIP8AXLG/8+4/j/mcj8M9LvdH0Oa3vrdrd/PLqrY5BA/wpvxM03UNX0e3tbC2e4Jm3uFIGAAcdfrXYUV9d/ZNL+zf7M53y2tfS9vut+B8x/adT6//AGhyrmve2tr/AJngn/CA+IP+gZL+a/40f8ID4g/6Bkv5r/jXvdFfI/6h4D/n7P8A8l/yPpv9csb/AM+4/j/meCf8ID4g/wCgZL+a/wCNH/CA+IP+gZL+a/4173RR/qHgP+fs/wDyX/IP9csb/wA+4/j/AJmd4c086VoNjaFdrRRKGH+1jJ/XNaNFFfotGlGjTjShtFJL5HwtSpKrOVSW7d/vCo7i3jureSGVd8cilGX1BGDUlFaNKSs9iE3F3R4XefDvXILyaOGwkmiVyEkBXDDPB61B/wAID4g/6Bkv5r/jXvdFfnEuBcvk21Umvu/yPvI8Y41JJwi/v/zPBP8AhAfEH/QMl/Nf8aP+EB8Qf9AyX81/xr3uip/1DwH/AD9n/wCS/wCQ/wDXLG/8+4/j/meCf8ID4g/6Bkv5r/jXq3gFdSt9BS01O3eCW3OxC5B3J26enT8q6WivaynhnD5PX9vQqSbas07Wf4HlZlxBXzSj7GtTirO6avdfiHXg8ivP/E/wpg1CRrjS5FtJWOWhYfuz9PT/AD0r0CivdzDLcLmdL2WKhzLp3XozxsFmGJy+p7TDys/wfqjwTUvAeu6YT5mnySr/AH4B5g/Tn86x5NPuoWxJbTIfRoyK+k6CAeozXwFbgLDSd6NeUV5pP/I+1o8Z14q1Wim/Jtf5nzR9nl/55P8A98mnx2NzM21LeVz6KhNfSXlJ/cX8qUKF6DFcy4BjfXE/+S//AGx0PjV20of+Tf8AAPBNN8B67qZHl6fLEn96ceWP15/Ku28P/COG3cTatOLgjkQRZC/iep/SvRqK+hwPB2W4SSnUTqNfzbfcv1ueHjOKsfik4U7QT7b/AHv9LHPeMLO4/wCEVnstLtd7uFiWOLACr3/T+deS/wDCA+IP+gZL+a/4173RXXm3DOGzetGtWnJcqskrWt9zObLeIMRldJ0qUIu7u273/M8E/wCEB8Qf9AyX81/xo/4QHxB/0DJfzX/Gve6K8T/UPAf8/Z/+S/5Hrf65Y3/n3H8f8zwT/hAfEH/QMl/Nf8a9c8C6RLovhm1t54/Kn+Z5EPYkn+mK36K9vKOGcLk9d4ijOUm1bW3l2S7HkZnxBic0oqjVikk76X/VvuFeHap4N8Q6jqV1dHTJczSs/Ve5z617jRXbnGSUc6jCFabio3eluvqmcuVZvVymU5UopuVt7/o0eCf8ID4g/wCgZL+a/wCNH/CA+IP+gZL+a/4173RXy/8AqHgP+fs//Jf8j6H/AFyxv/PuP4/5ngn/AAgPiD/oGS/mv+Ndh8M/COo6TrE91f2rW6rDtTcRySR6H0H616XRXdgeD8FgcTDEwnJuLuk7W/I48ZxTi8ZQnh5QilJW0vf8wooor7w+NCuJ+KGl6lrVjZWthavcIJDJJtIGCBgdT7mu2orz8wwUcww08LOTSlu1vvc7sDi5YHERxEEm499jwT/hAfEH/QMl/Nf8aP8AhAfEH/QMl/Nf8a97or4X/UPAf8/Z/wDkv+R9h/rljf8An3H8f8zwT/hAfEH/AEDJfzX/ABo/4QHxB/0DJfzX/Gve6KP9Q8B/z9n/AOS/5B/rljf+fcfx/wAyno9iNM0mztAP9TEqH6gc/rVyiiv0anCNOChHZKx8JObqSc5bvUKbIxWNiBkgEgDvTqKsg8JufA/iG5uJZm0yXdIxY/Mvc59ai/4QHxB/0DJfzX/Gve6K/N3wLgZO7qz/APJf8j71cY4yKsqcfx/zPBP+EB8Qf9AyX81/xo/4QHxB/wBAyX81/wAa97opf6h4D/n7P/yX/If+uWN/59x/H/M87+F/ha/0W8vbi/tmt2ZFRNxHPOT0+gr0Siivtssy6lleGjhaLbSvq99Xc+SzDHVMxxEsRVSTdtttArm/Ffgax8UL5jf6PeKMLcIOvsw7iukorpxWEoY2k6GIgpRfRnPh8TWwlRVaEuWSPEdU+GOuaeWMcC3kY/igYE/98nmueuNHv7U4msriI/8ATSJh/MV9H0V+e4jgTB1HehVlDydn/k/xPuKHGWKgrVqal6af5nzR9nlHWJx/wE0q2szdIZD9FNfShjQ9UU/hQqKvRQPoK4P9QVf/AHn/AMl/+2Oz/XV/9A//AJN/wD57sfCur6iwWDTbh8/xNGVX8zgV1mjfCG9uJFfUp0tYupjjO9z7Z6D9a9aor2MHwRl9BqVeTqPtsvuWv4nl4ri7G1ly0YqH4v8AHT8DM0vQ7Pw3p7xWFvtAG445eQgdz3NeO3ngrxHe3c1xJpkpeVy5+ZepOfWvdaK9vNOHsLmlOnRlJwhC9lGyWvyPIy7PMRl06lWKU5T3crt6fM8E/wCEB8Qf9AyX81/xo/4QHxB/0DJfzX/Gve6K+e/1DwH/AD9n/wCS/wCR7n+uWN/59x/H/M8E/wCEB8Qf9AyX81/xru/hf4YvtEkv57+2a3dwqIGIORyT0/CvQKK9LLuEcHluKhiqc5Nxva9rbW6I4MdxNisfh5YacIpS7XvvfuFcT8UNL1LWrGztbC1e4USGSTaQMYGB1Pua7aivqMwwUcww08LOTSlu1vufPYLFSwOIjiIJNx77Hgn/AAgPiD/oGS/mv+NH/CA+IP8AoGS/mv8AjXvdFfC/6h4D/n7P/wAl/wAj7D/XLG/8+4/j/meCf8ID4g/6Bkv5r/jR/wAID4g/6Bkv5r/jXvdFH+oeA/5+z/8AJf8AIP8AXLG/8+4/j/mU9FsRpmk2doBjyYVQ/UDn9auUUV+jU6caUI047JW+4+EnN1JOct3qFFFFaEBRRRQAUUUUAFFFFABRRRQAUUUUAeM/Fr9m3SfHTSajoxj0bWjlmKr+5nP+2o6H/aH4g18leLPBms+CNTaw1qwkspxnbuGVcDurDhh9K/RusnxN4V0nxhpb6frFjFfWrHOyQcqfVT1B9xX1uWcQ18HanW9+H4r0/wAn+B+cZ9wXhM0br4X93V/8lfquj8180z84KK+hfiV+yfqGltPfeE5jqVoPm/s+YgToPRW6P+h+teA31hc6ZdSW15by2txGcPFMhRlPuDzX6Zg8fh8dDnoSv5dV6o/B8yyjG5TU9ni6bj2fR+j2/UgooorvPGCt/wAF+O9a8AasuoaLeNbSZHmRnmOVR/C69CP1HbFYFFRUpwqxcJq6fRm1GtUw9RVaUnGS2a0aPtr4V/tFaF8QFjsr8po2tHCi3lb93Mf+mbH/ANBPP1r1uvzKr2P4ZftLeIPBRhstVLa7pCjaEmf99EO21z1A9D+Yr89zLhh61ME/+3X+j/z+8/Z8j4+WlDNV/wBvr/25fqvuPtKiuR8B/FTw58RbQSaRfo1wB+8s5jsnT6qeo9xkV11fA1aVSjNwqRaa6M/Y8PiKOKpqrQmpRfVO6CiiisjoCiiigAooooAKKKKACiiigAooooAKKKKACiiigAooooAKKKKACiiigAooooAKKKKACiiigAooooAKKKKACiiigAooooAKKKKACiiigAooooAKKKKACiiigAooooAKKKKACiiigAooooAKKKKACiiigAooooAKKKKACiiigAooooAKKKKACiiigAooooAKKKKACiiigAooooAKKKKACiiigAooooAKKKKACiiigAooooAKKKKACiiigAooooAKKKKACiiigAooooAKKKKACiiigAooooAKKKKACuZ8afDfw78QLPyNa02K5YfcuFGyaP8A3XHP4dK6aitKdSdGSnTdmuqMK1CliKbpVoqUXumro+UPHn7Iup6ez3Pha9XUrfr9kuiI5l9g33W/HH414Xr3hnVfC981nq+n3GnXK/wXEZXI9Qe49xxX6R1S1bRdP121a21Gyt76BusdxGHX8jX2OD4oxFG0cRHnXfZ/5M/Msz4AwWJbngpOlLtvH/Nff8j816K+yfF37KPhPXXebSpLjQZ252Qt5kOf91uR+BxXjvir9lPxjobM+nfZtdtx0Nu/ly490bH6E19lhs+wGJsuflfaWn47fifmGP4PzjA3fsuePeOv4b/geMUVr674R1vwzJt1bSbzT+cbriFlU/Q4wayK9+M4zXNF3R8dUpzpScKkWn2ehLa3U1lOk9vNJBMhyskTFWU+oI6V7X4D/as8R+HfJttdiXXrJcKZGOy4A/3ujH6jJ9a8PorkxWDw+Mjy14KX5/J7noYDNMZlc/aYSo4v8H6rZn3v4J+OXg/x00cNlqa2t6/SzvcRSE+gycMfoTXfV+ZXTkV3Pg/42eMfBLIthrEs1sv/AC63n76Ij0weR+BFfE4vhTeWEn8pf5r/ACP1fLfETaGY0v8At6P/AMi/0fyPvyivmzwr+2NbyMkXiLRHhzw1xp77gPfY2Dj8a968K+MNH8baWuoaLfR31qTtLJkFW9GU8g+xr43F5bi8DrXhZd9196P0/Lc9y7NtMJVTfbZ/c9TZooorzD3gooooAKKKKACiiigAooooAKKKKACiiigAooooAKKKKACiiigAooooAKKKKACiiigAooooAKKKKACiiigAooooAKKKKACiiigAooooAKKKKACiiigAooooAKKKKACiiigAooooAKKKKACiiigAooooAKKKKACiiigAooooAKKKKACiiigAooooAKKKKACiiigAooooAKKKKACiiigAooooAKKKKACiiigAooooAKKKKACiiigAooooAKKKKACiiigAooooAKKKKACiiigAooooAKKKKACiiigAooooAbLEk0bRyIsiMMMrDII9xXG6x8GfBOvFmuvDdiHbq8EflH/xzFFFbU61Wi70pOPo7HNXwtDFLlr01JeaT/M4jWP2SvBWobmtJdS0xuwhnDqPwdSf1rkNQ/YyG4my8T5HZbi0/qG/pRRXtYfOswg1FVX87P8ANM+WxnCuS1IubwyT8rx/Jo5++/ZC1+1z5euabIP9pZF/oaxLz9mDxPaqWOoaSyj/AKayg/8AouiivssLmOKqL3p/gv8AI/L8fkeX0ZNU6dvnL/MpW/7OfiS4uFhW+0sMTjJllx/6Lr6K+A3wan+FdpqE93qS3t1fhA0cAIiQLnHXknnrgUUV5ue4yvLD+zctHvse5wjleEjjPbqHvRTs7vTp37M9Yooor8/P2YKKKKACiiigAooooAKKKKACiiigAooooAKKKKACiiigAooooAKKKKACiiigAooooAKKKKACiiigAooooAKKKKACiiigAooooAKKKKACiiigAooooAKKKKACiiigAooooAKKKKACiiigAooooAKKKKACiiigAooooAKKKKACiiigAooooAKKKKACiiigAooooAKKKKACiiigAooooAKKKKACiiigAooooAKKKKACiiigAooooAKKKKAP/9k=;strokeWidth=1;imageBorder=default;fontSize=28;" parent="1" vertex="1">
          <mxGeometry x="630" y="355.1" width="270" height="109.8" as="geometry" />
        </mxCell>
        <mxCell id="QuiFpk8wdqZ-4DI5n4hr-26" value="" style="shape=image;verticalLabelPosition=bottom;labelBackgroundColor=default;verticalAlign=top;aspect=fixed;imageAspect=0;image=data:image/png,iVBORw0KGgoAAAANSUhEUgAAANEAAADyCAMAAADk3NBFAAAApVBMVEUAljn///8AlTVCqWIAkCYAjh/B4csAkzAAlDMAjyIAkSsAjyUAjRz5/fvA4Mn1+/fp6emgz63J5NHX691Trm2DwpV2vIqNjY0on02u17rw+fOTyqPU6tvO59aZzaiLi4va2tr09PQ0o1ZktXzm9OtVr29uuYMWm0Tg8OakpKSt1rk4pFmWy6VGqWQAhwBzu4e8vLyZmZnNzc2urq7FxcWqqqrh4eEeE7clAAAKIklEQVR4nOWda1ujPBCGkzQYSGlrq/Sobg/26Ha1urv//6e9YN3aAwmTkFDC+3zYy/1g4S7M48wQJghXTejaJ2BcxRDdtaNu1L4r5FgFELUiFnDGGA9Y1LJ/OPtEbc7RP3Hetn4820Q3fYqORfsdy0e0S/R8HxB0KuLdP1s9pk2iRuT56FK+FzUsHtUi0QbxFJ7PcEIDe4e1RvQwrQt4EtWnD7YObIloOAvPA+gsnMLZ0M6h7RCNOJPyJGJ8ZOXYNoiaS1EAnYXTsmnh6OaJVi8Xji289YKXlfHjmyYadlMdWyTf65oOJ8NEbZYdQKdizHBiZJSouaTZCBeiS6OJkUGi1daDBtCpSDg3mBgZI2p1A5UAOhWj5hIjU0THNYOOODOVGJkh6vRlKQ9MwfTRyLmYIHqeaQbQqYhnJDEyQBRRVccWyUhilJtowPIF0Kk4yp0Y5SR6fAkM8iQKtjlbRrmIhmYC6FR+8JqrY5SHaBSYCqBTMfp0FSJozaAj2r8pnOhuC64ZdEQC7cRIj6ilVjPoKK4z9MJJi6gNKLrzi+vVGRpEnb5OzaAjrQasMlFKm9SedMJJkagRhbYD6FRMuQGrRrQh9hxbJNUGrAqRvE1qT/UXlQYsnCizTWpPSg1YMNHIWM2gI4U6A0jUFD5nKErgBiyI6K5WoGOLRIIaqAELIBp2C3ZskfwQ0oDNJmobLVLzCZIYZRF1tNqk9pSdGMmJVvcWitR8It69PJxkRI0oR5vUnlggTYwkRBu/PAF0Kk42GkSPBtqk9lTvCxuwAiJDbVJ7It5MUGekE1035YGJ0fTEKI1ocIWaQUecpCVGl0RxynPtUwUrqF02YM+JWotSOrZIfrA47xidET05EECnumjAnhDdlCzlgYkubwREqyK7PCZFguPE6EDUsN8mtSff6zbOicpUM+jou87YE92VOuWBqd6/+yZqlzzlgYl47X9EUXjtkzGkMNoTDaoCFCMNEqKh25ZwKjaMibpVIuJdjBoupgli0QZqVoyoiSLXUlO5WIRm7uY+afJnaJvrjyvxGfON/nkm+T6PbFFN+/cJr/Pp/HVx3+fUUFnFA1RbzKa8rv1xpKZPRJejQ0n8PJgxmvtScfTzqyroLHS/In0idv50tLXJuyiAjo5apau5Xu6sTVSfpTRqN7nuPX72sHXk6XyKLhGNLnmS66T5xSYKLvrzTzo9KU0iNksFivVT64uNFaS03hYal1yTiIifDWz0EvnU76ilkXHqEVHZkomNVv+Spjaxn9SR9Ii4BChZGan8gaLbWCOL1iISR9Fec/VvVnTV58opmhZR5nvHL8oRfWl0e6nfdlpENGupxBCpfqYnsBr1UkePKHNV7J2qh3uCD7opCxFuKnp4+YnwSC15cIAIz5Ri2gUiPFUxXieIWiqG5wQRvlM4GzeIVAzPESKFDM8VIryAGp4zROAMzx0iqOG5Q4RXsFByiAg3QUmrS0Swjo5TRCDDc4sIYniOEQEMzzEivMq871wjwjdZGZ5zRPgpw8PdI8oyvLISyVbKb6WGV1airYSosZQdp6xEv9KfKu31LDu5shJ5nqx/3JGkQ6UlQqHs5aC2GKm8RIjLXpp+FRpeiYnIUmZ4NZHhlZgIMS3DKzMRol0J0kpwhqUmQnLDS8/wyk2EPKnhpWZ4JSeSG1437STLTiQ3vLQMr+xEcsPDKYZXeiK54T1f/qEtP1GG4V24gwNE8gxvc47kApGa4TlBpGR4ThAhVpMQNZYnD57dIEL8VYL0fHKRHCFCgczwHo8zPFeIkCfrgx0bnjNEiMrGXUTfp+sOkdzw7g+x5A6R3PDwwfAcIpIb3pAR94hQIJsk+hg4SIRCgOG5RQQxPMeIyFI2RvRzLbVjRIi9SIhw33ePCPGFhCgxPOeI5Ib34DlIJM/wBqGDRML3CD4V/XKQiCCZ4Ym6YWUmkmd4ItpSE8kNz0kiFPysGhEKlXdeKDsR4qo7UpWeSG54LhJlZHguEqka3rXfeoMsG1YzPBeIkKdieE4QyTM8J4lUDM8NIhXDc4QI8YzXuN0jQgF06L0zROAMz4G/sIfPgG2t5RAR0PDcuesQ8vtVI4IZnlNEqA4wPLeIPoc2VosIhZmGVxSR4Lsdqg6hISRri4+CiLigxAG+KXqkTMNrFzO5xRd0QDfqU3X4XE6kPgBRbwJSmP5IX324T2x4spdHMC5oApJgYFDK0kaApCttNK667my0tIs00xteF4qRWsXNRmMpixRudHdA8IQ33rw4opR7Rd3oDqLbdBN/1ZnCqD018fyL7eSZAemnPdRszLU+Un+yJT0ett+Ico5wp8vNWWgOiF5Y5pg+6geLr+XCq5/5d0UhlL02D2t1V0/a20TkmaeKGKXL+WzK6mbGaTNaZ9tZtztPPlF/bG0t3xRf4rM8v375eSzvUGCyreCk5epNw67exPJWxYhaFZz8j4dVCqTP3Rmqt4NGlXY5SRpm+51orrbfsEmR8LATDcYPldgtaD/yvKo7OuEK7rqFq7czWqKq7V6XqGo7DOIK7gKZOHnFdupM5M5uqmlPSf4fO97iCu5KjKu3c3Siqu3ujSu4AztOEqPShRPx7uVLDuVE5UuM6FI2ygJClNQZ5XHy75ohDxEedsNyhJMfdrOWC8CIPrcwv344kaAGWrMLIsK4ia7t5HwJXGUIJLp2YsQ4dCEonAgPZ1frGJFwlhVAf8fjv6pEcWI0vU5iVH95kJ/Y5K335+1t3futShQnRleoM/j5XoYXut2jxGC7iSpRnBgV7OTMk6Y8n0A/bv/9+L5TJorrjCI7RiSYy0ZD7bUbx1cp1nqM8dubOlGcGOXdwBIsOs1KeWKN18l9d4snv5Nr1ZtoECXL3opwckjKE+tj/O/G+5FcpHctItyy34D1vS7sHZjd7RfRuDeJI+lNjyiuM7ZWwwkUQHslHLe99XqXGB0eaxPFidHSnpPTPnwq+jq5Rr3x7e36I/7f+299omQ3IDvhxCgogL709v51101+TDD+8zcPER4uLJS4fgAMoC/d7g7OEBteT8e9j/XwYroBG2xhr7186+N3nC1M4h/if9bveYkwHhh9lMaR8rvnsdu9H+A+NHKGS0XG6gyFmuFE63WSd0/ed2/YCJGpBizxMmsGkcZ/ertd7+MzvzNBhHHHQGIUTDNqBrkmk68fzBAliVG+cOJ+9psuMJkiihOjHA1YRjNrBrCMESWJkWY4kRCc8gBkkChJjHTCifYBNQNcRol0FnoAawa4DBPhoVqdAa4Z4DJNFIcTvAFLPFibVEnmieB1BrhNqiQbRHGdASjbdVOeLNkhym7AAtqkmrJEFNcZ0gZsPV/KI5M1orjOED7PyG6T5pBFItyIUp3cz26T5pFNotQGLPHuDaY8KbJLdNmANZzypMg20WmdwdNfPDUq+0S4NWIBZ4zxgI1MpzwpKoAoVucp6kZPtu+3vYohKlLVI/oPvLDD1gwexmUAAAAASUVORK5CYII=;fontSize=28;" parent="1" vertex="1">
          <mxGeometry x="620" y="1205" width="86.37" height="100" as="geometry" />
        </mxCell>
        <mxCell id="QuiFpk8wdqZ-4DI5n4hr-27" value="DM" style="rounded=1;whiteSpace=wrap;html=1;shadow=1;glass=1;sketch=0;fontSize=28;dashed=1;strokeWidth=2;fillStyle=auto;fillColor=#FFF2CC;" parent="1" vertex="1">
          <mxGeometry x="890" y="1180" width="690" height="810" as="geometry" />
        </mxCell>
        <mxCell id="QuiFpk8wdqZ-4DI5n4hr-28" value="" style="shape=image;verticalLabelPosition=bottom;labelBackgroundColor=default;verticalAlign=top;aspect=fixed;imageAspect=0;image=data:image/png,iVBORw0KGgoAAAANSUhEUgAAANEAAADyCAMAAADk3NBFAAAApVBMVEUAljn///8AlTVCqWIAkCYAjh/B4csAkzAAlDMAjyIAkSsAjyUAjRz5/fvA4Mn1+/fp6emgz63J5NHX691Trm2DwpV2vIqNjY0on02u17rw+fOTyqPU6tvO59aZzaiLi4va2tr09PQ0o1ZktXzm9OtVr29uuYMWm0Tg8OakpKSt1rk4pFmWy6VGqWQAhwBzu4e8vLyZmZnNzc2urq7FxcWqqqrh4eEeE7clAAAKIklEQVR4nOWda1ujPBCGkzQYSGlrq/Sobg/26Ha1urv//6e9YN3aAwmTkFDC+3zYy/1g4S7M48wQJghXTejaJ2BcxRDdtaNu1L4r5FgFELUiFnDGGA9Y1LJ/OPtEbc7RP3Hetn4820Q3fYqORfsdy0e0S/R8HxB0KuLdP1s9pk2iRuT56FK+FzUsHtUi0QbxFJ7PcEIDe4e1RvQwrQt4EtWnD7YObIloOAvPA+gsnMLZ0M6h7RCNOJPyJGJ8ZOXYNoiaS1EAnYXTsmnh6OaJVi8Xji289YKXlfHjmyYadlMdWyTf65oOJ8NEbZYdQKdizHBiZJSouaTZCBeiS6OJkUGi1daDBtCpSDg3mBgZI2p1A5UAOhWj5hIjU0THNYOOODOVGJkh6vRlKQ9MwfTRyLmYIHqeaQbQqYhnJDEyQBRRVccWyUhilJtowPIF0Kk4yp0Y5SR6fAkM8iQKtjlbRrmIhmYC6FR+8JqrY5SHaBSYCqBTMfp0FSJozaAj2r8pnOhuC64ZdEQC7cRIj6ilVjPoKK4z9MJJi6gNKLrzi+vVGRpEnb5OzaAjrQasMlFKm9SedMJJkagRhbYD6FRMuQGrRrQh9hxbJNUGrAqRvE1qT/UXlQYsnCizTWpPSg1YMNHIWM2gI4U6A0jUFD5nKErgBiyI6K5WoGOLRIIaqAELIBp2C3ZskfwQ0oDNJmobLVLzCZIYZRF1tNqk9pSdGMmJVvcWitR8It69PJxkRI0oR5vUnlggTYwkRBu/PAF0Kk42GkSPBtqk9lTvCxuwAiJDbVJ7It5MUGekE1035YGJ0fTEKI1ocIWaQUecpCVGl0RxynPtUwUrqF02YM+JWotSOrZIfrA47xidET05EECnumjAnhDdlCzlgYkubwREqyK7PCZFguPE6EDUsN8mtSff6zbOicpUM+jou87YE92VOuWBqd6/+yZqlzzlgYl47X9EUXjtkzGkMNoTDaoCFCMNEqKh25ZwKjaMibpVIuJdjBoupgli0QZqVoyoiSLXUlO5WIRm7uY+afJnaJvrjyvxGfON/nkm+T6PbFFN+/cJr/Pp/HVx3+fUUFnFA1RbzKa8rv1xpKZPRJejQ0n8PJgxmvtScfTzqyroLHS/In0idv50tLXJuyiAjo5apau5Xu6sTVSfpTRqN7nuPX72sHXk6XyKLhGNLnmS66T5xSYKLvrzTzo9KU0iNksFivVT64uNFaS03hYal1yTiIifDWz0EvnU76ilkXHqEVHZkomNVv+Spjaxn9SR9Ii4BChZGan8gaLbWCOL1iISR9Fec/VvVnTV58opmhZR5nvHL8oRfWl0e6nfdlpENGupxBCpfqYnsBr1UkePKHNV7J2qh3uCD7opCxFuKnp4+YnwSC15cIAIz5Ri2gUiPFUxXieIWiqG5wQRvlM4GzeIVAzPESKFDM8VIryAGp4zROAMzx0iqOG5Q4RXsFByiAg3QUmrS0Swjo5TRCDDc4sIYniOEQEMzzEivMq871wjwjdZGZ5zRPgpw8PdI8oyvLISyVbKb6WGV1airYSosZQdp6xEv9KfKu31LDu5shJ5nqx/3JGkQ6UlQqHs5aC2GKm8RIjLXpp+FRpeiYnIUmZ4NZHhlZgIMS3DKzMRol0J0kpwhqUmQnLDS8/wyk2EPKnhpWZ4JSeSG1437STLTiQ3vLQMr+xEcsPDKYZXeiK54T1f/qEtP1GG4V24gwNE8gxvc47kApGa4TlBpGR4ThAhVpMQNZYnD57dIEL8VYL0fHKRHCFCgczwHo8zPFeIkCfrgx0bnjNEiMrGXUTfp+sOkdzw7g+x5A6R3PDwwfAcIpIb3pAR94hQIJsk+hg4SIRCgOG5RQQxPMeIyFI2RvRzLbVjRIi9SIhw33ePCPGFhCgxPOeI5Ib34DlIJM/wBqGDRML3CD4V/XKQiCCZ4Ym6YWUmkmd4ItpSE8kNz0kiFPysGhEKlXdeKDsR4qo7UpWeSG54LhJlZHguEqka3rXfeoMsG1YzPBeIkKdieE4QyTM8J4lUDM8NIhXDc4QI8YzXuN0jQgF06L0zROAMz4G/sIfPgG2t5RAR0PDcuesQ8vtVI4IZnlNEqA4wPLeIPoc2VosIhZmGVxSR4Lsdqg6hISRri4+CiLigxAG+KXqkTMNrFzO5xRd0QDfqU3X4XE6kPgBRbwJSmP5IX324T2x4spdHMC5oApJgYFDK0kaApCttNK667my0tIs00xteF4qRWsXNRmMpixRudHdA8IQ33rw4opR7Rd3oDqLbdBN/1ZnCqD018fyL7eSZAemnPdRszLU+Un+yJT0ett+Ico5wp8vNWWgOiF5Y5pg+6geLr+XCq5/5d0UhlL02D2t1V0/a20TkmaeKGKXL+WzK6mbGaTNaZ9tZtztPPlF/bG0t3xRf4rM8v375eSzvUGCyreCk5epNw67exPJWxYhaFZz8j4dVCqTP3Rmqt4NGlXY5SRpm+51orrbfsEmR8LATDcYPldgtaD/yvKo7OuEK7rqFq7czWqKq7V6XqGo7DOIK7gKZOHnFdupM5M5uqmlPSf4fO97iCu5KjKu3c3Siqu3ujSu4AztOEqPShRPx7uVLDuVE5UuM6FI2ygJClNQZ5XHy75ohDxEedsNyhJMfdrOWC8CIPrcwv344kaAGWrMLIsK4ia7t5HwJXGUIJLp2YsQ4dCEonAgPZ1frGJFwlhVAf8fjv6pEcWI0vU5iVH95kJ/Y5K335+1t3futShQnRleoM/j5XoYXut2jxGC7iSpRnBgV7OTMk6Y8n0A/bv/9+L5TJorrjCI7RiSYy0ZD7bUbx1cp1nqM8dubOlGcGOXdwBIsOs1KeWKN18l9d4snv5Nr1ZtoECXL3opwckjKE+tj/O/G+5FcpHctItyy34D1vS7sHZjd7RfRuDeJI+lNjyiuM7ZWwwkUQHslHLe99XqXGB0eaxPFidHSnpPTPnwq+jq5Rr3x7e36I/7f+299omQ3IDvhxCgogL709v51101+TDD+8zcPER4uLJS4fgAMoC/d7g7OEBteT8e9j/XwYroBG2xhr7186+N3nC1M4h/if9bveYkwHhh9lMaR8rvnsdu9H+A+NHKGS0XG6gyFmuFE63WSd0/ed2/YCJGpBizxMmsGkcZ/ertd7+MzvzNBhHHHQGIUTDNqBrkmk68fzBAliVG+cOJ+9psuMJkiihOjHA1YRjNrBrCMESWJkWY4kRCc8gBkkChJjHTCifYBNQNcRol0FnoAawa4DBPhoVqdAa4Z4DJNFIcTvAFLPFibVEnmieB1BrhNqiQbRHGdASjbdVOeLNkhym7AAtqkmrJEFNcZ0gZsPV/KI5M1orjOED7PyG6T5pBFItyIUp3cz26T5pFNotQGLPHuDaY8KbJLdNmANZzypMg20WmdwdNfPDUq+0S4NWIBZ4zxgI1MpzwpKoAoVucp6kZPtu+3vYohKlLVI/oPvLDD1gwexmUAAAAASUVORK5CYII=;fontSize=28;" parent="1" vertex="1">
          <mxGeometry x="530" y="1205" width="86.37" height="100" as="geometry" />
        </mxCell>
        <mxCell id="QuiFpk8wdqZ-4DI5n4hr-29" value="" style="shape=image;verticalLabelPosition=bottom;labelBackgroundColor=default;verticalAlign=top;aspect=fixed;imageAspect=0;image=data:image/png,iVBORw0KGgoAAAANSUhEUgAAANEAAADyCAMAAADk3NBFAAAApVBMVEUAljn///8AlTVCqWIAkCYAjh/B4csAkzAAlDMAjyIAkSsAjyUAjRz5/fvA4Mn1+/fp6emgz63J5NHX691Trm2DwpV2vIqNjY0on02u17rw+fOTyqPU6tvO59aZzaiLi4va2tr09PQ0o1ZktXzm9OtVr29uuYMWm0Tg8OakpKSt1rk4pFmWy6VGqWQAhwBzu4e8vLyZmZnNzc2urq7FxcWqqqrh4eEeE7clAAAKIklEQVR4nOWda1ujPBCGkzQYSGlrq/Sobg/26Ha1urv//6e9YN3aAwmTkFDC+3zYy/1g4S7M48wQJghXTejaJ2BcxRDdtaNu1L4r5FgFELUiFnDGGA9Y1LJ/OPtEbc7RP3Hetn4820Q3fYqORfsdy0e0S/R8HxB0KuLdP1s9pk2iRuT56FK+FzUsHtUi0QbxFJ7PcEIDe4e1RvQwrQt4EtWnD7YObIloOAvPA+gsnMLZ0M6h7RCNOJPyJGJ8ZOXYNoiaS1EAnYXTsmnh6OaJVi8Xji289YKXlfHjmyYadlMdWyTf65oOJ8NEbZYdQKdizHBiZJSouaTZCBeiS6OJkUGi1daDBtCpSDg3mBgZI2p1A5UAOhWj5hIjU0THNYOOODOVGJkh6vRlKQ9MwfTRyLmYIHqeaQbQqYhnJDEyQBRRVccWyUhilJtowPIF0Kk4yp0Y5SR6fAkM8iQKtjlbRrmIhmYC6FR+8JqrY5SHaBSYCqBTMfp0FSJozaAj2r8pnOhuC64ZdEQC7cRIj6ilVjPoKK4z9MJJi6gNKLrzi+vVGRpEnb5OzaAjrQasMlFKm9SedMJJkagRhbYD6FRMuQGrRrQh9hxbJNUGrAqRvE1qT/UXlQYsnCizTWpPSg1YMNHIWM2gI4U6A0jUFD5nKErgBiyI6K5WoGOLRIIaqAELIBp2C3ZskfwQ0oDNJmobLVLzCZIYZRF1tNqk9pSdGMmJVvcWitR8It69PJxkRI0oR5vUnlggTYwkRBu/PAF0Kk42GkSPBtqk9lTvCxuwAiJDbVJ7It5MUGekE1035YGJ0fTEKI1ocIWaQUecpCVGl0RxynPtUwUrqF02YM+JWotSOrZIfrA47xidET05EECnumjAnhDdlCzlgYkubwREqyK7PCZFguPE6EDUsN8mtSff6zbOicpUM+jou87YE92VOuWBqd6/+yZqlzzlgYl47X9EUXjtkzGkMNoTDaoCFCMNEqKh25ZwKjaMibpVIuJdjBoupgli0QZqVoyoiSLXUlO5WIRm7uY+afJnaJvrjyvxGfON/nkm+T6PbFFN+/cJr/Pp/HVx3+fUUFnFA1RbzKa8rv1xpKZPRJejQ0n8PJgxmvtScfTzqyroLHS/In0idv50tLXJuyiAjo5apau5Xu6sTVSfpTRqN7nuPX72sHXk6XyKLhGNLnmS66T5xSYKLvrzTzo9KU0iNksFivVT64uNFaS03hYal1yTiIifDWz0EvnU76ilkXHqEVHZkomNVv+Spjaxn9SR9Ii4BChZGan8gaLbWCOL1iISR9Fec/VvVnTV58opmhZR5nvHL8oRfWl0e6nfdlpENGupxBCpfqYnsBr1UkePKHNV7J2qh3uCD7opCxFuKnp4+YnwSC15cIAIz5Ri2gUiPFUxXieIWiqG5wQRvlM4GzeIVAzPESKFDM8VIryAGp4zROAMzx0iqOG5Q4RXsFByiAg3QUmrS0Swjo5TRCDDc4sIYniOEQEMzzEivMq871wjwjdZGZ5zRPgpw8PdI8oyvLISyVbKb6WGV1airYSosZQdp6xEv9KfKu31LDu5shJ5nqx/3JGkQ6UlQqHs5aC2GKm8RIjLXpp+FRpeiYnIUmZ4NZHhlZgIMS3DKzMRol0J0kpwhqUmQnLDS8/wyk2EPKnhpWZ4JSeSG1437STLTiQ3vLQMr+xEcsPDKYZXeiK54T1f/qEtP1GG4V24gwNE8gxvc47kApGa4TlBpGR4ThAhVpMQNZYnD57dIEL8VYL0fHKRHCFCgczwHo8zPFeIkCfrgx0bnjNEiMrGXUTfp+sOkdzw7g+x5A6R3PDwwfAcIpIb3pAR94hQIJsk+hg4SIRCgOG5RQQxPMeIyFI2RvRzLbVjRIi9SIhw33ePCPGFhCgxPOeI5Ib34DlIJM/wBqGDRML3CD4V/XKQiCCZ4Ym6YWUmkmd4ItpSE8kNz0kiFPysGhEKlXdeKDsR4qo7UpWeSG54LhJlZHguEqka3rXfeoMsG1YzPBeIkKdieE4QyTM8J4lUDM8NIhXDc4QI8YzXuN0jQgF06L0zROAMz4G/sIfPgG2t5RAR0PDcuesQ8vtVI4IZnlNEqA4wPLeIPoc2VosIhZmGVxSR4Lsdqg6hISRri4+CiLigxAG+KXqkTMNrFzO5xRd0QDfqU3X4XE6kPgBRbwJSmP5IX324T2x4spdHMC5oApJgYFDK0kaApCttNK667my0tIs00xteF4qRWsXNRmMpixRudHdA8IQ33rw4opR7Rd3oDqLbdBN/1ZnCqD018fyL7eSZAemnPdRszLU+Un+yJT0ett+Ico5wp8vNWWgOiF5Y5pg+6geLr+XCq5/5d0UhlL02D2t1V0/a20TkmaeKGKXL+WzK6mbGaTNaZ9tZtztPPlF/bG0t3xRf4rM8v375eSzvUGCyreCk5epNw67exPJWxYhaFZz8j4dVCqTP3Rmqt4NGlXY5SRpm+51orrbfsEmR8LATDcYPldgtaD/yvKo7OuEK7rqFq7czWqKq7V6XqGo7DOIK7gKZOHnFdupM5M5uqmlPSf4fO97iCu5KjKu3c3Siqu3ujSu4AztOEqPShRPx7uVLDuVE5UuM6FI2ygJClNQZ5XHy75ohDxEedsNyhJMfdrOWC8CIPrcwv344kaAGWrMLIsK4ia7t5HwJXGUIJLp2YsQ4dCEonAgPZ1frGJFwlhVAf8fjv6pEcWI0vU5iVH95kJ/Y5K335+1t3futShQnRleoM/j5XoYXut2jxGC7iSpRnBgV7OTMk6Y8n0A/bv/9+L5TJorrjCI7RiSYy0ZD7bUbx1cp1nqM8dubOlGcGOXdwBIsOs1KeWKN18l9d4snv5Nr1ZtoECXL3opwckjKE+tj/O/G+5FcpHctItyy34D1vS7sHZjd7RfRuDeJI+lNjyiuM7ZWwwkUQHslHLe99XqXGB0eaxPFidHSnpPTPnwq+jq5Rr3x7e36I/7f+299omQ3IDvhxCgogL709v51101+TDD+8zcPER4uLJS4fgAMoC/d7g7OEBteT8e9j/XwYroBG2xhr7186+N3nC1M4h/if9bveYkwHhh9lMaR8rvnsdu9H+A+NHKGS0XG6gyFmuFE63WSd0/ed2/YCJGpBizxMmsGkcZ/ertd7+MzvzNBhHHHQGIUTDNqBrkmk68fzBAliVG+cOJ+9psuMJkiihOjHA1YRjNrBrCMESWJkWY4kRCc8gBkkChJjHTCifYBNQNcRol0FnoAawa4DBPhoVqdAa4Z4DJNFIcTvAFLPFibVEnmieB1BrhNqiQbRHGdASjbdVOeLNkhym7AAtqkmrJEFNcZ0gZsPV/KI5M1orjOED7PyG6T5pBFItyIUp3cz26T5pFNotQGLPHuDaY8KbJLdNmANZzypMg20WmdwdNfPDUq+0S4NWIBZ4zxgI1MpzwpKoAoVucp6kZPtu+3vYohKlLVI/oPvLDD1gwexmUAAAAASUVORK5CYII=;fontSize=28;" parent="1" vertex="1">
          <mxGeometry x="710" y="1205" width="86.37" height="100" as="geometry" />
        </mxCell>
        <mxCell id="QuiFpk8wdqZ-4DI5n4hr-30" value="" style="shape=image;verticalLabelPosition=bottom;labelBackgroundColor=default;verticalAlign=top;aspect=fixed;imageAspect=0;image=data:image/png,iVBORw0KGgoAAAANSUhEUgAAANEAAADyCAMAAADk3NBFAAAApVBMVEUAljn///8AlTVCqWIAkCYAjh/B4csAkzAAlDMAjyIAkSsAjyUAjRz5/fvA4Mn1+/fp6emgz63J5NHX691Trm2DwpV2vIqNjY0on02u17rw+fOTyqPU6tvO59aZzaiLi4va2tr09PQ0o1ZktXzm9OtVr29uuYMWm0Tg8OakpKSt1rk4pFmWy6VGqWQAhwBzu4e8vLyZmZnNzc2urq7FxcWqqqrh4eEeE7clAAAKIklEQVR4nOWda1ujPBCGkzQYSGlrq/Sobg/26Ha1urv//6e9YN3aAwmTkFDC+3zYy/1g4S7M48wQJghXTejaJ2BcxRDdtaNu1L4r5FgFELUiFnDGGA9Y1LJ/OPtEbc7RP3Hetn4820Q3fYqORfsdy0e0S/R8HxB0KuLdP1s9pk2iRuT56FK+FzUsHtUi0QbxFJ7PcEIDe4e1RvQwrQt4EtWnD7YObIloOAvPA+gsnMLZ0M6h7RCNOJPyJGJ8ZOXYNoiaS1EAnYXTsmnh6OaJVi8Xji289YKXlfHjmyYadlMdWyTf65oOJ8NEbZYdQKdizHBiZJSouaTZCBeiS6OJkUGi1daDBtCpSDg3mBgZI2p1A5UAOhWj5hIjU0THNYOOODOVGJkh6vRlKQ9MwfTRyLmYIHqeaQbQqYhnJDEyQBRRVccWyUhilJtowPIF0Kk4yp0Y5SR6fAkM8iQKtjlbRrmIhmYC6FR+8JqrY5SHaBSYCqBTMfp0FSJozaAj2r8pnOhuC64ZdEQC7cRIj6ilVjPoKK4z9MJJi6gNKLrzi+vVGRpEnb5OzaAjrQasMlFKm9SedMJJkagRhbYD6FRMuQGrRrQh9hxbJNUGrAqRvE1qT/UXlQYsnCizTWpPSg1YMNHIWM2gI4U6A0jUFD5nKErgBiyI6K5WoGOLRIIaqAELIBp2C3ZskfwQ0oDNJmobLVLzCZIYZRF1tNqk9pSdGMmJVvcWitR8It69PJxkRI0oR5vUnlggTYwkRBu/PAF0Kk42GkSPBtqk9lTvCxuwAiJDbVJ7It5MUGekE1035YGJ0fTEKI1ocIWaQUecpCVGl0RxynPtUwUrqF02YM+JWotSOrZIfrA47xidET05EECnumjAnhDdlCzlgYkubwREqyK7PCZFguPE6EDUsN8mtSff6zbOicpUM+jou87YE92VOuWBqd6/+yZqlzzlgYl47X9EUXjtkzGkMNoTDaoCFCMNEqKh25ZwKjaMibpVIuJdjBoupgli0QZqVoyoiSLXUlO5WIRm7uY+afJnaJvrjyvxGfON/nkm+T6PbFFN+/cJr/Pp/HVx3+fUUFnFA1RbzKa8rv1xpKZPRJejQ0n8PJgxmvtScfTzqyroLHS/In0idv50tLXJuyiAjo5apau5Xu6sTVSfpTRqN7nuPX72sHXk6XyKLhGNLnmS66T5xSYKLvrzTzo9KU0iNksFivVT64uNFaS03hYal1yTiIifDWz0EvnU76ilkXHqEVHZkomNVv+Spjaxn9SR9Ii4BChZGan8gaLbWCOL1iISR9Fec/VvVnTV58opmhZR5nvHL8oRfWl0e6nfdlpENGupxBCpfqYnsBr1UkePKHNV7J2qh3uCD7opCxFuKnp4+YnwSC15cIAIz5Ri2gUiPFUxXieIWiqG5wQRvlM4GzeIVAzPESKFDM8VIryAGp4zROAMzx0iqOG5Q4RXsFByiAg3QUmrS0Swjo5TRCDDc4sIYniOEQEMzzEivMq871wjwjdZGZ5zRPgpw8PdI8oyvLISyVbKb6WGV1airYSosZQdp6xEv9KfKu31LDu5shJ5nqx/3JGkQ6UlQqHs5aC2GKm8RIjLXpp+FRpeiYnIUmZ4NZHhlZgIMS3DKzMRol0J0kpwhqUmQnLDS8/wyk2EPKnhpWZ4JSeSG1437STLTiQ3vLQMr+xEcsPDKYZXeiK54T1f/qEtP1GG4V24gwNE8gxvc47kApGa4TlBpGR4ThAhVpMQNZYnD57dIEL8VYL0fHKRHCFCgczwHo8zPFeIkCfrgx0bnjNEiMrGXUTfp+sOkdzw7g+x5A6R3PDwwfAcIpIb3pAR94hQIJsk+hg4SIRCgOG5RQQxPMeIyFI2RvRzLbVjRIi9SIhw33ePCPGFhCgxPOeI5Ib34DlIJM/wBqGDRML3CD4V/XKQiCCZ4Ym6YWUmkmd4ItpSE8kNz0kiFPysGhEKlXdeKDsR4qo7UpWeSG54LhJlZHguEqka3rXfeoMsG1YzPBeIkKdieE4QyTM8J4lUDM8NIhXDc4QI8YzXuN0jQgF06L0zROAMz4G/sIfPgG2t5RAR0PDcuesQ8vtVI4IZnlNEqA4wPLeIPoc2VosIhZmGVxSR4Lsdqg6hISRri4+CiLigxAG+KXqkTMNrFzO5xRd0QDfqU3X4XE6kPgBRbwJSmP5IX324T2x4spdHMC5oApJgYFDK0kaApCttNK667my0tIs00xteF4qRWsXNRmMpixRudHdA8IQ33rw4opR7Rd3oDqLbdBN/1ZnCqD018fyL7eSZAemnPdRszLU+Un+yJT0ett+Ico5wp8vNWWgOiF5Y5pg+6geLr+XCq5/5d0UhlL02D2t1V0/a20TkmaeKGKXL+WzK6mbGaTNaZ9tZtztPPlF/bG0t3xRf4rM8v375eSzvUGCyreCk5epNw67exPJWxYhaFZz8j4dVCqTP3Rmqt4NGlXY5SRpm+51orrbfsEmR8LATDcYPldgtaD/yvKo7OuEK7rqFq7czWqKq7V6XqGo7DOIK7gKZOHnFdupM5M5uqmlPSf4fO97iCu5KjKu3c3Siqu3ujSu4AztOEqPShRPx7uVLDuVE5UuM6FI2ygJClNQZ5XHy75ohDxEedsNyhJMfdrOWC8CIPrcwv344kaAGWrMLIsK4ia7t5HwJXGUIJLp2YsQ4dCEonAgPZ1frGJFwlhVAf8fjv6pEcWI0vU5iVH95kJ/Y5K335+1t3futShQnRleoM/j5XoYXut2jxGC7iSpRnBgV7OTMk6Y8n0A/bv/9+L5TJorrjCI7RiSYy0ZD7bUbx1cp1nqM8dubOlGcGOXdwBIsOs1KeWKN18l9d4snv5Nr1ZtoECXL3opwckjKE+tj/O/G+5FcpHctItyy34D1vS7sHZjd7RfRuDeJI+lNjyiuM7ZWwwkUQHslHLe99XqXGB0eaxPFidHSnpPTPnwq+jq5Rr3x7e36I/7f+299omQ3IDvhxCgogL709v51101+TDD+8zcPER4uLJS4fgAMoC/d7g7OEBteT8e9j/XwYroBG2xhr7186+N3nC1M4h/if9bveYkwHhh9lMaR8rvnsdu9H+A+NHKGS0XG6gyFmuFE63WSd0/ed2/YCJGpBizxMmsGkcZ/ertd7+MzvzNBhHHHQGIUTDNqBrkmk68fzBAliVG+cOJ+9psuMJkiihOjHA1YRjNrBrCMESWJkWY4kRCc8gBkkChJjHTCifYBNQNcRol0FnoAawa4DBPhoVqdAa4Z4DJNFIcTvAFLPFibVEnmieB1BrhNqiQbRHGdASjbdVOeLNkhym7AAtqkmrJEFNcZ0gZsPV/KI5M1orjOED7PyG6T5pBFItyIUp3cz26T5pFNotQGLPHuDaY8KbJLdNmANZzypMg20WmdwdNfPDUq+0S4NWIBZ4zxgI1MpzwpKoAoVucp6kZPtu+3vYohKlLVI/oPvLDD1gwexmUAAAAASUVORK5CYII=;fontSize=28;" parent="1" vertex="1">
          <mxGeometry x="1060" y="1190" width="86.37" height="100" as="geometry" />
        </mxCell>
        <mxCell id="QuiFpk8wdqZ-4DI5n4hr-31" value="" style="shape=image;verticalLabelPosition=bottom;labelBackgroundColor=default;verticalAlign=top;aspect=fixed;imageAspect=0;image=data:image/png,iVBORw0KGgoAAAANSUhEUgAAANEAAADyCAMAAADk3NBFAAAApVBMVEUAljn///8AlTVCqWIAkCYAjh/B4csAkzAAlDMAjyIAkSsAjyUAjRz5/fvA4Mn1+/fp6emgz63J5NHX691Trm2DwpV2vIqNjY0on02u17rw+fOTyqPU6tvO59aZzaiLi4va2tr09PQ0o1ZktXzm9OtVr29uuYMWm0Tg8OakpKSt1rk4pFmWy6VGqWQAhwBzu4e8vLyZmZnNzc2urq7FxcWqqqrh4eEeE7clAAAKIklEQVR4nOWda1ujPBCGkzQYSGlrq/Sobg/26Ha1urv//6e9YN3aAwmTkFDC+3zYy/1g4S7M48wQJghXTejaJ2BcxRDdtaNu1L4r5FgFELUiFnDGGA9Y1LJ/OPtEbc7RP3Hetn4820Q3fYqORfsdy0e0S/R8HxB0KuLdP1s9pk2iRuT56FK+FzUsHtUi0QbxFJ7PcEIDe4e1RvQwrQt4EtWnD7YObIloOAvPA+gsnMLZ0M6h7RCNOJPyJGJ8ZOXYNoiaS1EAnYXTsmnh6OaJVi8Xji289YKXlfHjmyYadlMdWyTf65oOJ8NEbZYdQKdizHBiZJSouaTZCBeiS6OJkUGi1daDBtCpSDg3mBgZI2p1A5UAOhWj5hIjU0THNYOOODOVGJkh6vRlKQ9MwfTRyLmYIHqeaQbQqYhnJDEyQBRRVccWyUhilJtowPIF0Kk4yp0Y5SR6fAkM8iQKtjlbRrmIhmYC6FR+8JqrY5SHaBSYCqBTMfp0FSJozaAj2r8pnOhuC64ZdEQC7cRIj6ilVjPoKK4z9MJJi6gNKLrzi+vVGRpEnb5OzaAjrQasMlFKm9SedMJJkagRhbYD6FRMuQGrRrQh9hxbJNUGrAqRvE1qT/UXlQYsnCizTWpPSg1YMNHIWM2gI4U6A0jUFD5nKErgBiyI6K5WoGOLRIIaqAELIBp2C3ZskfwQ0oDNJmobLVLzCZIYZRF1tNqk9pSdGMmJVvcWitR8It69PJxkRI0oR5vUnlggTYwkRBu/PAF0Kk42GkSPBtqk9lTvCxuwAiJDbVJ7It5MUGekE1035YGJ0fTEKI1ocIWaQUecpCVGl0RxynPtUwUrqF02YM+JWotSOrZIfrA47xidET05EECnumjAnhDdlCzlgYkubwREqyK7PCZFguPE6EDUsN8mtSff6zbOicpUM+jou87YE92VOuWBqd6/+yZqlzzlgYl47X9EUXjtkzGkMNoTDaoCFCMNEqKh25ZwKjaMibpVIuJdjBoupgli0QZqVoyoiSLXUlO5WIRm7uY+afJnaJvrjyvxGfON/nkm+T6PbFFN+/cJr/Pp/HVx3+fUUFnFA1RbzKa8rv1xpKZPRJejQ0n8PJgxmvtScfTzqyroLHS/In0idv50tLXJuyiAjo5apau5Xu6sTVSfpTRqN7nuPX72sHXk6XyKLhGNLnmS66T5xSYKLvrzTzo9KU0iNksFivVT64uNFaS03hYal1yTiIifDWz0EvnU76ilkXHqEVHZkomNVv+Spjaxn9SR9Ii4BChZGan8gaLbWCOL1iISR9Fec/VvVnTV58opmhZR5nvHL8oRfWl0e6nfdlpENGupxBCpfqYnsBr1UkePKHNV7J2qh3uCD7opCxFuKnp4+YnwSC15cIAIz5Ri2gUiPFUxXieIWiqG5wQRvlM4GzeIVAzPESKFDM8VIryAGp4zROAMzx0iqOG5Q4RXsFByiAg3QUmrS0Swjo5TRCDDc4sIYniOEQEMzzEivMq871wjwjdZGZ5zRPgpw8PdI8oyvLISyVbKb6WGV1airYSosZQdp6xEv9KfKu31LDu5shJ5nqx/3JGkQ6UlQqHs5aC2GKm8RIjLXpp+FRpeiYnIUmZ4NZHhlZgIMS3DKzMRol0J0kpwhqUmQnLDS8/wyk2EPKnhpWZ4JSeSG1437STLTiQ3vLQMr+xEcsPDKYZXeiK54T1f/qEtP1GG4V24gwNE8gxvc47kApGa4TlBpGR4ThAhVpMQNZYnD57dIEL8VYL0fHKRHCFCgczwHo8zPFeIkCfrgx0bnjNEiMrGXUTfp+sOkdzw7g+x5A6R3PDwwfAcIpIb3pAR94hQIJsk+hg4SIRCgOG5RQQxPMeIyFI2RvRzLbVjRIi9SIhw33ePCPGFhCgxPOeI5Ib34DlIJM/wBqGDRML3CD4V/XKQiCCZ4Ym6YWUmkmd4ItpSE8kNz0kiFPysGhEKlXdeKDsR4qo7UpWeSG54LhJlZHguEqka3rXfeoMsG1YzPBeIkKdieE4QyTM8J4lUDM8NIhXDc4QI8YzXuN0jQgF06L0zROAMz4G/sIfPgG2t5RAR0PDcuesQ8vtVI4IZnlNEqA4wPLeIPoc2VosIhZmGVxSR4Lsdqg6hISRri4+CiLigxAG+KXqkTMNrFzO5xRd0QDfqU3X4XE6kPgBRbwJSmP5IX324T2x4spdHMC5oApJgYFDK0kaApCttNK667my0tIs00xteF4qRWsXNRmMpixRudHdA8IQ33rw4opR7Rd3oDqLbdBN/1ZnCqD018fyL7eSZAemnPdRszLU+Un+yJT0ett+Ico5wp8vNWWgOiF5Y5pg+6geLr+XCq5/5d0UhlL02D2t1V0/a20TkmaeKGKXL+WzK6mbGaTNaZ9tZtztPPlF/bG0t3xRf4rM8v375eSzvUGCyreCk5epNw67exPJWxYhaFZz8j4dVCqTP3Rmqt4NGlXY5SRpm+51orrbfsEmR8LATDcYPldgtaD/yvKo7OuEK7rqFq7czWqKq7V6XqGo7DOIK7gKZOHnFdupM5M5uqmlPSf4fO97iCu5KjKu3c3Siqu3ujSu4AztOEqPShRPx7uVLDuVE5UuM6FI2ygJClNQZ5XHy75ohDxEedsNyhJMfdrOWC8CIPrcwv344kaAGWrMLIsK4ia7t5HwJXGUIJLp2YsQ4dCEonAgPZ1frGJFwlhVAf8fjv6pEcWI0vU5iVH95kJ/Y5K335+1t3futShQnRleoM/j5XoYXut2jxGC7iSpRnBgV7OTMk6Y8n0A/bv/9+L5TJorrjCI7RiSYy0ZD7bUbx1cp1nqM8dubOlGcGOXdwBIsOs1KeWKN18l9d4snv5Nr1ZtoECXL3opwckjKE+tj/O/G+5FcpHctItyy34D1vS7sHZjd7RfRuDeJI+lNjyiuM7ZWwwkUQHslHLe99XqXGB0eaxPFidHSnpPTPnwq+jq5Rr3x7e36I/7f+299omQ3IDvhxCgogL709v51101+TDD+8zcPER4uLJS4fgAMoC/d7g7OEBteT8e9j/XwYroBG2xhr7186+N3nC1M4h/if9bveYkwHhh9lMaR8rvnsdu9H+A+NHKGS0XG6gyFmuFE63WSd0/ed2/YCJGpBizxMmsGkcZ/ertd7+MzvzNBhHHHQGIUTDNqBrkmk68fzBAliVG+cOJ+9psuMJkiihOjHA1YRjNrBrCMESWJkWY4kRCc8gBkkChJjHTCifYBNQNcRol0FnoAawa4DBPhoVqdAa4Z4DJNFIcTvAFLPFibVEnmieB1BrhNqiQbRHGdASjbdVOeLNkhym7AAtqkmrJEFNcZ0gZsPV/KI5M1orjOED7PyG6T5pBFItyIUp3cz26T5pFNotQGLPHuDaY8KbJLdNmANZzypMg20WmdwdNfPDUq+0S4NWIBZ4zxgI1MpzwpKoAoVucp6kZPtu+3vYohKlLVI/oPvLDD1gwexmUAAAAASUVORK5CYII=;fontSize=28;" parent="1" vertex="1">
          <mxGeometry x="970" y="1190" width="86.37" height="100" as="geometry" />
        </mxCell>
        <mxCell id="QuiFpk8wdqZ-4DI5n4hr-32" value="" style="shape=image;verticalLabelPosition=bottom;labelBackgroundColor=default;verticalAlign=top;aspect=fixed;imageAspect=0;image=data:image/png,iVBORw0KGgoAAAANSUhEUgAAANEAAADyCAMAAADk3NBFAAAApVBMVEUAljn///8AlTVCqWIAkCYAjh/B4csAkzAAlDMAjyIAkSsAjyUAjRz5/fvA4Mn1+/fp6emgz63J5NHX691Trm2DwpV2vIqNjY0on02u17rw+fOTyqPU6tvO59aZzaiLi4va2tr09PQ0o1ZktXzm9OtVr29uuYMWm0Tg8OakpKSt1rk4pFmWy6VGqWQAhwBzu4e8vLyZmZnNzc2urq7FxcWqqqrh4eEeE7clAAAKIklEQVR4nOWda1ujPBCGkzQYSGlrq/Sobg/26Ha1urv//6e9YN3aAwmTkFDC+3zYy/1g4S7M48wQJghXTejaJ2BcxRDdtaNu1L4r5FgFELUiFnDGGA9Y1LJ/OPtEbc7RP3Hetn4820Q3fYqORfsdy0e0S/R8HxB0KuLdP1s9pk2iRuT56FK+FzUsHtUi0QbxFJ7PcEIDe4e1RvQwrQt4EtWnD7YObIloOAvPA+gsnMLZ0M6h7RCNOJPyJGJ8ZOXYNoiaS1EAnYXTsmnh6OaJVi8Xji289YKXlfHjmyYadlMdWyTf65oOJ8NEbZYdQKdizHBiZJSouaTZCBeiS6OJkUGi1daDBtCpSDg3mBgZI2p1A5UAOhWj5hIjU0THNYOOODOVGJkh6vRlKQ9MwfTRyLmYIHqeaQbQqYhnJDEyQBRRVccWyUhilJtowPIF0Kk4yp0Y5SR6fAkM8iQKtjlbRrmIhmYC6FR+8JqrY5SHaBSYCqBTMfp0FSJozaAj2r8pnOhuC64ZdEQC7cRIj6ilVjPoKK4z9MJJi6gNKLrzi+vVGRpEnb5OzaAjrQasMlFKm9SedMJJkagRhbYD6FRMuQGrRrQh9hxbJNUGrAqRvE1qT/UXlQYsnCizTWpPSg1YMNHIWM2gI4U6A0jUFD5nKErgBiyI6K5WoGOLRIIaqAELIBp2C3ZskfwQ0oDNJmobLVLzCZIYZRF1tNqk9pSdGMmJVvcWitR8It69PJxkRI0oR5vUnlggTYwkRBu/PAF0Kk42GkSPBtqk9lTvCxuwAiJDbVJ7It5MUGekE1035YGJ0fTEKI1ocIWaQUecpCVGl0RxynPtUwUrqF02YM+JWotSOrZIfrA47xidET05EECnumjAnhDdlCzlgYkubwREqyK7PCZFguPE6EDUsN8mtSff6zbOicpUM+jou87YE92VOuWBqd6/+yZqlzzlgYl47X9EUXjtkzGkMNoTDaoCFCMNEqKh25ZwKjaMibpVIuJdjBoupgli0QZqVoyoiSLXUlO5WIRm7uY+afJnaJvrjyvxGfON/nkm+T6PbFFN+/cJr/Pp/HVx3+fUUFnFA1RbzKa8rv1xpKZPRJejQ0n8PJgxmvtScfTzqyroLHS/In0idv50tLXJuyiAjo5apau5Xu6sTVSfpTRqN7nuPX72sHXk6XyKLhGNLnmS66T5xSYKLvrzTzo9KU0iNksFivVT64uNFaS03hYal1yTiIifDWz0EvnU76ilkXHqEVHZkomNVv+Spjaxn9SR9Ii4BChZGan8gaLbWCOL1iISR9Fec/VvVnTV58opmhZR5nvHL8oRfWl0e6nfdlpENGupxBCpfqYnsBr1UkePKHNV7J2qh3uCD7opCxFuKnp4+YnwSC15cIAIz5Ri2gUiPFUxXieIWiqG5wQRvlM4GzeIVAzPESKFDM8VIryAGp4zROAMzx0iqOG5Q4RXsFByiAg3QUmrS0Swjo5TRCDDc4sIYniOEQEMzzEivMq871wjwjdZGZ5zRPgpw8PdI8oyvLISyVbKb6WGV1airYSosZQdp6xEv9KfKu31LDu5shJ5nqx/3JGkQ6UlQqHs5aC2GKm8RIjLXpp+FRpeiYnIUmZ4NZHhlZgIMS3DKzMRol0J0kpwhqUmQnLDS8/wyk2EPKnhpWZ4JSeSG1437STLTiQ3vLQMr+xEcsPDKYZXeiK54T1f/qEtP1GG4V24gwNE8gxvc47kApGa4TlBpGR4ThAhVpMQNZYnD57dIEL8VYL0fHKRHCFCgczwHo8zPFeIkCfrgx0bnjNEiMrGXUTfp+sOkdzw7g+x5A6R3PDwwfAcIpIb3pAR94hQIJsk+hg4SIRCgOG5RQQxPMeIyFI2RvRzLbVjRIi9SIhw33ePCPGFhCgxPOeI5Ib34DlIJM/wBqGDRML3CD4V/XKQiCCZ4Ym6YWUmkmd4ItpSE8kNz0kiFPysGhEKlXdeKDsR4qo7UpWeSG54LhJlZHguEqka3rXfeoMsG1YzPBeIkKdieE4QyTM8J4lUDM8NIhXDc4QI8YzXuN0jQgF06L0zROAMz4G/sIfPgG2t5RAR0PDcuesQ8vtVI4IZnlNEqA4wPLeIPoc2VosIhZmGVxSR4Lsdqg6hISRri4+CiLigxAG+KXqkTMNrFzO5xRd0QDfqU3X4XE6kPgBRbwJSmP5IX324T2x4spdHMC5oApJgYFDK0kaApCttNK667my0tIs00xteF4qRWsXNRmMpixRudHdA8IQ33rw4opR7Rd3oDqLbdBN/1ZnCqD018fyL7eSZAemnPdRszLU+Un+yJT0ett+Ico5wp8vNWWgOiF5Y5pg+6geLr+XCq5/5d0UhlL02D2t1V0/a20TkmaeKGKXL+WzK6mbGaTNaZ9tZtztPPlF/bG0t3xRf4rM8v375eSzvUGCyreCk5epNw67exPJWxYhaFZz8j4dVCqTP3Rmqt4NGlXY5SRpm+51orrbfsEmR8LATDcYPldgtaD/yvKo7OuEK7rqFq7czWqKq7V6XqGo7DOIK7gKZOHnFdupM5M5uqmlPSf4fO97iCu5KjKu3c3Siqu3ujSu4AztOEqPShRPx7uVLDuVE5UuM6FI2ygJClNQZ5XHy75ohDxEedsNyhJMfdrOWC8CIPrcwv344kaAGWrMLIsK4ia7t5HwJXGUIJLp2YsQ4dCEonAgPZ1frGJFwlhVAf8fjv6pEcWI0vU5iVH95kJ/Y5K335+1t3futShQnRleoM/j5XoYXut2jxGC7iSpRnBgV7OTMk6Y8n0A/bv/9+L5TJorrjCI7RiSYy0ZD7bUbx1cp1nqM8dubOlGcGOXdwBIsOs1KeWKN18l9d4snv5Nr1ZtoECXL3opwckjKE+tj/O/G+5FcpHctItyy34D1vS7sHZjd7RfRuDeJI+lNjyiuM7ZWwwkUQHslHLe99XqXGB0eaxPFidHSnpPTPnwq+jq5Rr3x7e36I/7f+299omQ3IDvhxCgogL709v51101+TDD+8zcPER4uLJS4fgAMoC/d7g7OEBteT8e9j/XwYroBG2xhr7186+N3nC1M4h/if9bveYkwHhh9lMaR8rvnsdu9H+A+NHKGS0XG6gyFmuFE63WSd0/ed2/YCJGpBizxMmsGkcZ/ertd7+MzvzNBhHHHQGIUTDNqBrkmk68fzBAliVG+cOJ+9psuMJkiihOjHA1YRjNrBrCMESWJkWY4kRCc8gBkkChJjHTCifYBNQNcRol0FnoAawa4DBPhoVqdAa4Z4DJNFIcTvAFLPFibVEnmieB1BrhNqiQbRHGdASjbdVOeLNkhym7AAtqkmrJEFNcZ0gZsPV/KI5M1orjOED7PyG6T5pBFItyIUp3cz26T5pFNotQGLPHuDaY8KbJLdNmANZzypMg20WmdwdNfPDUq+0S4NWIBZ4zxgI1MpzwpKoAoVucp6kZPtu+3vYohKlLVI/oPvLDD1gwexmUAAAAASUVORK5CYII=;fontSize=28;" parent="1" vertex="1">
          <mxGeometry x="1150" y="1190" width="86.37" height="100" as="geometry" />
        </mxCell>
        <mxCell id="QuiFpk8wdqZ-4DI5n4hr-35" value="" style="sketch=0;pointerEvents=1;shadow=0;dashed=0;html=1;strokeColor=none;fillColor=#434445;aspect=fixed;labelPosition=center;verticalLabelPosition=bottom;verticalAlign=top;align=center;outlineConnect=0;shape=mxgraph.vvd.vm_group;glass=1;fillStyle=auto;fontSize=28;" parent="1" vertex="1">
          <mxGeometry x="1070" y="1569.99" width="130" height="131.31" as="geometry" />
        </mxCell>
        <mxCell id="QuiFpk8wdqZ-4DI5n4hr-37" value="" style="sketch=0;html=1;dashed=0;whitespace=wrap;fillColor=#2875E2;strokeColor=#ffffff;points=[[0.005,0.63,0],[0.1,0.2,0],[0.9,0.2,0],[0.5,0,0],[0.995,0.63,0],[0.72,0.99,0],[0.5,1,0],[0.28,0.99,0]];shape=mxgraph.kubernetes.icon;prIcon=svc;shadow=1;glass=1;fillStyle=auto;fontSize=28;" parent="1" vertex="1">
          <mxGeometry x="520" y="1585.15" width="120" height="101" as="geometry" />
        </mxCell>
        <mxCell id="QuiFpk8wdqZ-4DI5n4hr-24" value="" style="shape=image;verticalLabelPosition=bottom;labelBackgroundColor=default;verticalAlign=top;aspect=fixed;imageAspect=0;image=data:image/jpeg,/9j/4AAQSkZJRgABAQEAYABgAAD/2wBDAAMCAgMCAgMDAwMEAwMEBQgFBQQEBQoHBwYIDAoMDAsKCwsNDhIQDQ4RDgsLEBYQERMUFRUVDA8XGBYUGBIUFRT/2wBDAQMEBAUEBQkFBQkUDQsNFBQUFBQUFBQUFBQUFBQUFBQUFBQUFBQUFBQUFBQUFBQUFBQUFBQUFBQUFBQUFBQUFBT/wAARCAA4AOEDASIAAhEBAxEB/8QAHwAAAQUBAQEBAQEAAAAAAAAAAAECAwQFBgcICQoL/8QAtRAAAgEDAwIEAwUFBAQAAAF9AQIDAAQRBRIhMUEGE1FhByJxFDKBkaEII0KxwRVS0fAkM2JyggkKFhcYGRolJicoKSo0NTY3ODk6Q0RFRkdISUpTVFVWV1hZWmNkZWZnaGlqc3R1dnd4eXqDhIWGh4iJipKTlJWWl5iZmqKjpKWmp6ipqrKztLW2t7i5usLDxMXGx8jJytLT1NXW19jZ2uHi4+Tl5ufo6erx8vP09fb3+Pn6/8QAHwEAAwEBAQEBAQEBAQAAAAAAAAECAwQFBgcICQoL/8QAtREAAgECBAQDBAcFBAQAAQJ3AAECAxEEBSExBhJBUQdhcRMiMoEIFEKRobHBCSMzUvAVYnLRChYkNOEl8RcYGRomJygpKjU2Nzg5OkNERUZHSElKU1RVVldYWVpjZGVmZ2hpanN0dXZ3eHl6goOEhYaHiImKkpOUlZaXmJmaoqOkpaanqKmqsrO0tba3uLm6wsPExcbHyMnK0tPU1dbX2Nna4uPk5ebn6Onq8vP09fb3+Pn6/9oADAMBAAIRAxEAPwD9Haztc8R6Z4ZtftOp3sVnEeF3n5m9lUct+ArK+IHjaDwNoTXbhZbqQ+XbQE/ffHU/7I6n8B3r5H8bePrq+1GS5vZ2vtRk67z8qDsMDoPYVnUqRpx5pPQ7MLhK2NqqjQjeT/rU+i9S/aE0S3YrZ2N5eYz87BY1Ppjkn8wKyv8AhpBO3h9v/Az/AO118pXHiC/uGJNy6D0jO3+VV/7Quv8An5m/7+GvNeYQ6RPtqfBuJavOrFP5v/I+tP8AhpBf+heP/gZ/9ro/4aQX/oXj/wCBn/2uvkv+0Lr/AJ+Zv+/ho/tC6/5+Zv8Av4aX9ox/lNP9TK3/AD+X3P8AzPrT/hpBf+heP/gZ/wDa6P8AhpBf+heP/gZ/9rr5L/tC6/5+Zv8Av4a9K+Cfge48a6y97fyTPo9kRvUyMBNJ1Cdenc/gO9aU8b7SShGO5x4zhd4GhLEVq6tHy/DfqfTHhf4j3/iS3+0toX2C1YfJLJc7i/uF2Dj3zXBfEL9p7wf4JuZLa+1lr69QkPZaWvmshHUMchQfYtmvAf2kP2kLq6v7vwn4Uums9Oti0F5fW7Yadhw0aEdEHIJH3vp16n9n39j/AEi28Ox+PfjBdQ6Loe1ZrfS764FqpU8h7lyRtB7ICCe5H3a+sp4KFOmquJdr7Jbs/Mp4qVSbp0Fe27ex0Xhb9qg+NtQaDw/4A8S60Fb5m0+ETMo9SF4H4mvomyi1keH7HWEtL2CG5gWaS0vISlxbEjJSSPJwRyCQSOOtcBeftxfAT4cwxaNpOrq9pb/ItvoelyCCL/dO1UI91zWhdft4fCWP4dXPiy31mW5CTvaQ6T5Wy+nmVVbCxk8Lhh85+XtnPFctWm5NezpOP3m9Opy356iZr+IfiVceH7P7UNHN9Av+seGfaU9ypU8e+a5X/ho62/6AUv8A4Ej/AOJrwv4cftm3HxK+Js9t4i06x0fStUk8uxW2XAt26KkrH7+7uxA+Y9AOm/8AFTwifC2sJcWpZdPvMtGoJxGw+8v05yP/AK1a08BOVVUZvlbV15kyxcfZ+0grpbnqv/DR1t/0Apf/AAJH/wATR/w0dbf9AKX/AMCR/wDE185+dJ/fb86POk/vt+deh/Ys/wCdfccv9pR/lPoz/ho62/6AUv8A4Ej/AOJo/wCGjrb/AKAUv/gSP/ia+c/Ok/vt+dHnSf32/Oj+xZ/zr7g/tKP8p9Gf8NHW3/QCl/8AAkf/ABNH/DR1t/0Apf8AwJH/AMTXzn50n99vzo86T++350f2LP8AnX3B/aUf5T6M/wCGjrb/AKAUv/gSP/iaP+Gjrb/oBS/+BI/+Jr5z86T++350edJ/fb86P7Fn/OvuD+0o/wAp9Gf8NHW3/QCl/wDAkf8AxNH/AA0dbf8AQCl/8CR/8TXzn50n99vzo86T++350f2LP+dfcH9pR/lPpGD9oyxZ8TaNcRr6xzKx/IgV0/h/4yeGvEEqQ/an0+4fgR3i7AT/ALwJX8zXyQJ5F6SN+dTw6hIhw/zr+tZVMnrRV4NMuGYU5O0lY+6OvIor56+EPxXl0i5ttJ1KczaVMRHDK5ybdjwBn+77dutfQteC04uz3PUTTV0FFFFIZ8yftAeKGuvFV4m7NvpsQijXJwXIDMfrkgf8BFfO8sjTSNI53OxySfWvXPjlHJba94n35LC6L/8AAS4I/Q14p/aSV4OYSfPGPSx+t8G4eP1WrWS95yt8kk/1LtfRdx+yr4e0uz0+XWPilpmizXlulwkF9bRxMVYZ43XAyAeM47V8z/2klfaHxq8U/CzQ4/CUfj3w5qmtX8mkRPby2MhVUj9DiePnOex+tc9CNOVOUp20a3bW9+3oe3nFbFUa1Clh3Jc3NflUW9LfzadTxXw78C7PxV8VtU8J6b4stbzTLC0+1trttAssbqEQnCrIRwz7fv8AY/SuZ8ceF/CGg2NvL4d8b/8ACUXLy7ZLf+yZrTy0wTv3OSDzgYHrXVfDf4px+BtT8faz4T8CXWtaHcRtFE9wrvFp1uSxUXGA+VIxkFxkIfm7jQ+J0Gg+LvgPoHxDt9C0/wAM6w9+2mzW+lxeTbXCgyHcqDgEbevXqCTgYmUYOleK1Su97729Owo1sVTxcI15S5HyxXway5bvmVnJX8mreh4lXvfi3Vz8H/2bDPZlodTvoERJF4ZZpxktn1VM4/3BXzv/AGkle2/tjb3+Evht4ubb7fETt+7/AKiTb+ma9bI6cauKXN5f1+B8zx5WqUcHTgtm2/uS/wAz53+EOsaJ4P1keJ9U0xvE2q2sgTRfDqAsLq76rLMACfKj4O0cuxUDgNj0nXP2ef2jf2pNWXWvFMDaZbOc26a7cfZILdT2S2UM6DGOSmT3JOa5T4KeDdc8RK8Xgf4oaL4T8S3GVNjd3E2n3cuRjZHOsZ3Z7Kr+5ArV+IXwf/ac+HLS6jdah4s1G2iPmNf6Nrc91juWKo/mDHUkqK/Q68l7V8skpef6bH4VRj7mqbXl+p1Mf/BLHxhJa7p/GehpcYOY0hmZM9vmIB/SvM/iN+wV8UvhjC97/ZcHiXTkPzXGhSNOyg9C0TKsn1IUgdzWF4T/AGyvjH4Dmxb+NdQ1GNW+eDWsXobnoTKGcf8AAWFfdH7Jf7baftBajceHNZ0BtJ8Q2Vk97PeWbbrF4kKqzncd0Ry68HcP9rtXBUnisP78rSR1wjh63uq6Z+fvjj4a618JfGF94a1+3+zalZsMlDlJFIyro3dSDwfw6givtnQ9Yb4ofs76fq1yfO1CG23ySHr5sLFHY+7KrH/gVZf7eXiH4VeN9CtLqw8XaXceOtKbyoYLBzcmeEt88MjxhlQqSWXeRg7h/FVP9mtjD+zfqsko2oxvWUt0I2Y/mDW9Ss6tClWatJSX9fMzp0/Z1p0k7ppnEUVB9qFH2oV9RY8e6J62vBfhv/hMPFWl6L9o+yfbZhD5+zfsz325GfzFc99qFdt8FLgN8V/C4/6fU/rWdS8YNrsNNXMvxt4b/wCEP8V6nov2n7X9imMXn7Nm/Hfbk4/Ou2+HXwf0Pxzottc3XjrT9F1G4mMKabMkbTE7sLgGVSd3YYrnvjdcBfix4oH/AE+N/IVlfDi4DfELwwPXVLX/ANGrXLH2lXDRkpWbSd9Ox01OSlWkrXSb0PTfF/wA0Xwnb3CN4/sLjVYmjQaYYUSdi7KPu+cW6Nu6dKyfjB8DZPhTp1herrA1aK5maF/9G8kxtt3L/G2cgN6dKX42TBf2grxf+nu0/wDQI69q+KGlt488Qa74XwWaEaVeRKBnAaZ45Wx7I/6V5ir14KhOU7qWr0W3u/le53OnScqsFH4dtXvr/keN+MfgI/g/4cQ+KJdaE87LAZNPFrt8tpAp2l956bv7vNeTV9PfFbX11z4KeKrlAqwx6+1tHt6bI5FQfotfLX2oV34CrUrQlKpvf9E7ficuKpwpSjGPb8m1f8CeioPtQo+1CvSscN0aWmylZCnZufxr67+Fmvt4i8D6dcSsXuIlNvKT1LJwCfcjB/GvjvT5hJeRge/8q+nf2e3f/hF71DnZ9o3j05GD/wCg18VnEFDEXXVH0mXycqOvRnqdFFFeGemfPf7RXg8/2oNT2E2epQ/Z5mH8MgXH4ZUDH+6a+KteW58O6pNY3WVkjPDdnXsw9jX6k+INBs/E2k3GnX0fmW8y4OOqnswPYg18m/GD4CyQI0WpW73Vip/capbLgpnseu0+xyD2zXnYzCvERTj8SPtOGc+jk1eUa6vSnvbdPuv1X+R8r/21/tfrXb/E/wCOur/FifR5dWt7G1bS7NbKH7CjoGQHILbnbLfTA9qytU+BOtwyE6fqNpdRZ487dE/5AEfrWf8A8KS8V/37Ef8Abdv/AImvnXh8VFOHI7f1/mz9ojnHD9eUK/1iN1e19Gr76M6T4XfHjXvhJqV3c6O1rc217EYLzT9Qh822ukwQA65B43E8EehyCQZ/iX+0DrvxQttNsbyHTtH0bTVItNI0W3+z2kTHq4TJOT7nA5wBk55X/hSPiv8A56WH/f8Ab/4mj/hSPiv/AJ6WH/f9v/iabp4tx5HF2I+u8Oe3+te2p8/e+vb77aX3tpsZn9tf7X619Yxwr8ev2XxZ2Z83VrCFYljHLG4twML9XTH/AH3XzD/wpHxX/wA9LD/v+3/xNesfs8x+K/hH4nkXUGtZ/Dt+Al5FHMWaNhnbKo29RnBHcH1Ar0MteIwuIU3B2Pl+LamUZtl0oUMTBzjqlffuvu280j5j1CF42dGQq6kgqwwQfQ19H/s4/t3eJPhdfWWheNJ5/EXhDIj8+UmS8sV6AoxOXQf3GycfdIxg9r8fv2ZD4zml8WeCvKmu7r97c2CuFWcnrJGegY9wep569fjfxF4evNHvJrS9tZrO7hO2SCdCjqfQg8iv1bmo4+l+nVH8zctXB1P61P00+Pv7Lngf9qLwWPF/g2Wxg8R3UH2my1ixwIdQ44SfHUnG3cRuU9c4K1+YOqeCvEHh2LUPtdhfWFvFdtpt0zIyx/aEJLQsehZdudvbGa+z/wDgmT8Qtct9d8QeDrrUdP8A+EbMf2u3tbu8VLpbokA/Z4idzqygl8DAKqcgkhvZf+Ch3hK5174P6BHpVhJdXaeIYyIbWIszb4Z9xwB/ewSfrXl0aksPW+rzd10fY9CpBVqfto6M/MrQdLuLi6ht4ImmnldY440GWZicAAepNfoFqNinwh+AGmeHWKi+mhW3cA5/eOTJMfcZLD8RXK/s/wD7ONv8Pwvi3xg8H9oQL5lva7tyWh/vsejP2AGQO2TjFP4pX2reP/ERuYhHFp1uPLtYXc5C92Ix1Y/oAO1dTr0a2IhBzShHVvu+hzqjVpUZTUbylp6I4j7d70fbvepf+EO1P1g/77P+FH/CHan6wf8AfZ/wr6H69hP+fiPH+q4n+RkX273rW8K+Mbnwf4i0/WrNIpbqylE0aTqShI9QCDj6EVnf8IdqfrB/32f8KP8AhDtT9YP++z/hSeNwbVnUQ/q2J/kZ7p/w2t4z/wCgXoP/AIDz/wDx6vG7HxhcWHiiDXo0ia7hvFvVjZT5ZcPvAIznGffOO9Z//CHan6wf99n/AAo/4Q7U/WD/AL7P+Fc1Kpl1G7pyirm1SGNqq04tm/4r+JV/4w8aS+J7yK2iv5JI5THAjCLKBQOCxOPlGea7C2/aZ8S2vj688XJaaX/aF1ZrZSQGKTyNgIIIHmbt3y/3scnivMP+EO1P1g/77P8AhR/wh2p+sH/fZ/wqnWy+UVFyjZK3yF7PGczlyu7/AEOrf4vatJ4DvfCbxWj2F5em/lnKN5/mEgkA7tuMqP4fxrj/ALd71L/wh2p+sH/fZ/wo/wCEO1P1g/77P+FaQxWCp35ZpXIlRxU7c0X/AFqRfbvej7d71L/whup56wf99n/CtjR/BH75PtDm5kzxDEpwT/M1NTMsJTjzc9/QdPB4mbty29Sx4Xs5Jv35UkyfJGvc5PWvr34S6C2h+EYFcYkmO8/T/wDXk/jXm3wu+E895PFf6jF5NsnKpjGfYf49vrXvUcawxrGihUUBVUdAB2r4XFYiWKqurLqfWUKKoU1BDqKKK5DoCkZQ6lWAZSMEHoaKKAOX1T4W+FdYk33GjQK/rblofxOwjJ+tYknwF8KOxIivEH91blsD86KKAG/8KD8K/wB29/8AAk/4Uf8ACg/Cv929/wDAk/4UUUAH/Cg/Cv8Advf/AAJP+FH/AAoPwr/dvf8AwJP+FFFAG1oXw10zw3G8djcXqRNyYpJt6Z9cEcfhWR41+E+leLrbytU0qx1dF+59qhVmX6Ejj8DRRTTcXdCaTVmfP/ir9lbwxb3gntfDMUMqtvUpK4AIOQQN2K9K8L/8JVcaTFoepajLc6XGyNHHcHzHTbwAGPOMcYziiiqlOU/idxRjGPwqx6H/AMK50nXLWNNQWedUGQnnFVz64HGaj/4Up4U/58ZP+/zUUVBQf8KU8Kf8+Mn/AH+aj/hSnhT/AJ8ZP+/zUUUAH/ClPCn/AD4yf9/mo/4Up4U/58ZP+/zUUUAH/ClPCn/PjJ/3+aj/AIUp4U/58ZP+/wA1FFAB/wAKU8Kf8+Mn/f5qP+FKeFP+fGT/AL/NRRQAf8KU8Kf8+Mn/AH+aj/hSnhT/AJ8ZP+/zUUUAH/ClfCn/AD4yf9/mrZ0n4f8Ah/RW3WumQq395xu/nRRQB0I44HAooooAKKKKAP/Z;fontSize=28;" parent="1" vertex="1">
          <mxGeometry x="272.5" y="928.53" width="367.5" height="91.47" as="geometry" />
        </mxCell>
        <mxCell id="QuiFpk8wdqZ-4DI5n4hr-39" value="" style="edgeStyle=orthogonalEdgeStyle;shape=arrow;rounded=0;orthogonalLoop=1;jettySize=auto;html=1;fontSize=28;endArrow=none;exitX=0.5;exitY=1;exitDx=0;exitDy=0;" parent="1" source="QuiFpk8wdqZ-4DI5n4hr-25" target="QuiFpk8wdqZ-4DI5n4hr-24" edge="1">
          <mxGeometry relative="1" as="geometry">
            <mxPoint x="420" y="510" as="sourcePoint" />
            <mxPoint x="978.25" y="810" as="targetPoint" />
          </mxGeometry>
        </mxCell>
        <mxCell id="QuiFpk8wdqZ-4DI5n4hr-42" value="&lt;span style=&quot;background-color: initial; font-size: 28px;&quot;&gt;&lt;font style=&quot;font-size: 28px;&quot;&gt;&lt;br style=&quot;font-size: 28px;&quot;&gt;&lt;b style=&quot;font-size: 28px;&quot;&gt;Nginx+&amp;nbsp;&lt;br style=&quot;font-size: 28px;&quot;&gt;&lt;/b&gt;Requests are passed to the Nginx+ Layer where application specific routing and protection is in place&lt;br style=&quot;font-size: 28px;&quot;&gt;Nginx+ App protect adds another layer of DoS protection, &lt;br style=&quot;font-size: 28px;&quot;&gt;WAF can provide additional protection against cross site scritpitng and SQL injection among other threats &lt;br style=&quot;font-size: 28px;&quot;&gt;WAF at this layer also allows us the ability to provide more app specific rules&lt;br style=&quot;font-size: 28px;&quot;&gt;&lt;br style=&quot;font-size: 28px;&quot;&gt;&lt;/font&gt;&lt;/span&gt;&lt;p style=&quot;margin-bottom: 0cm; line-height: normal; background: white; font-size: 28px;&quot; class=&quot;MsoNormal&quot;&gt;&lt;/p&gt;&lt;font style=&quot;font-size: 28px;&quot;&gt;&lt;br style=&quot;font-size: 28px;&quot;&gt;&lt;/font&gt;" style="rounded=1;whiteSpace=wrap;html=1;fontSize=28;align=left;gradientColor=none;perimeterSpacing=0;shadow=1;glass=1;sketch=0;spacingTop=0;spacingLeft=0;spacingBottom=0;spacing=20;" parent="1" vertex="1">
          <mxGeometry x="1680" y="1020" width="1040" height="350" as="geometry" />
        </mxCell>
        <mxCell id="QuiFpk8wdqZ-4DI5n4hr-43" value="&lt;span style=&quot;background-color: initial; font-size: 28px;&quot;&gt;&lt;font style=&quot;font-size: 28px;&quot;&gt;&lt;br style=&quot;font-size: 28px;&quot;&gt;&lt;b style=&quot;font-size: 28px;&quot;&gt;Application/Service Layer&amp;nbsp;&amp;nbsp;&lt;br style=&quot;font-size: 28px;&quot;&gt;&lt;/b&gt;Applications are responsible for user auth where required&amp;nbsp;&lt;br style=&quot;font-size: 28px;&quot;&gt;Before deployment the applications must pass peer reviews, security reviews and dependency scans&lt;br style=&quot;font-size: 28px;&quot;&gt;&lt;/font&gt;&lt;/span&gt;&lt;span style=&quot;font-size: 28px;&quot;&gt;Additionally code quality metrics, unit tests, functional test all contribute to ensuring a secure codebase&lt;/span&gt;&lt;span style=&quot;background-color: initial; font-size: 28px;&quot;&gt;&lt;font style=&quot;font-size: 28px;&quot;&gt;&lt;br style=&quot;font-size: 28px;&quot;&gt;&lt;/font&gt;&lt;/span&gt;&lt;p style=&quot;margin-bottom: 0cm; line-height: normal; background: white; font-size: 28px;&quot; class=&quot;MsoNormal&quot;&gt;&lt;/p&gt;&lt;font style=&quot;font-size: 28px;&quot;&gt;&lt;br style=&quot;font-size: 28px;&quot;&gt;&lt;/font&gt;" style="rounded=1;whiteSpace=wrap;html=1;fontSize=28;align=left;gradientColor=none;perimeterSpacing=0;shadow=1;glass=1;sketch=0;spacingTop=0;spacingLeft=0;spacingBottom=0;spacing=20;" parent="1" vertex="1">
          <mxGeometry x="1670" y="1509.83" width="1050" height="259.35" as="geometry" />
        </mxCell>
        <mxCell id="QuiFpk8wdqZ-4DI5n4hr-49" value="" style="sketch=0;pointerEvents=1;shadow=0;dashed=0;html=1;strokeColor=none;fillColor=#434445;aspect=fixed;labelPosition=center;verticalLabelPosition=bottom;verticalAlign=top;align=center;outlineConnect=0;shape=mxgraph.vvd.vm_group;glass=1;fillStyle=auto;fontSize=28;" parent="1" vertex="1">
          <mxGeometry x="280" y="1573.85" width="130" height="131.31" as="geometry" />
        </mxCell>
        <mxCell id="QuiFpk8wdqZ-4DI5n4hr-50" value="" style="sketch=0;html=1;dashed=0;whitespace=wrap;fillColor=#2875E2;strokeColor=#ffffff;points=[[0.005,0.63,0],[0.1,0.2,0],[0.9,0.2,0],[0.5,0,0],[0.995,0.63,0],[0.72,0.99,0],[0.5,1,0],[0.28,0.99,0]];shape=mxgraph.kubernetes.icon;prIcon=svc;shadow=1;glass=1;fillStyle=auto;fontSize=28;" parent="1" vertex="1">
          <mxGeometry x="1290" y="1585.15" width="120" height="101" as="geometry" />
        </mxCell>
        <mxCell id="QuiFpk8wdqZ-4DI5n4hr-51" value="&lt;span style=&quot;background-color: initial; font-size: 28px;&quot;&gt;&lt;font style=&quot;font-size: 28px;&quot;&gt;Other&lt;br style=&quot;font-size: 28px;&quot;&gt;&lt;/font&gt;&lt;/span&gt;&lt;font style=&quot;font-size: 28px;&quot;&gt;Real time monitoring&lt;br style=&quot;font-size: 28px;&quot;&gt;Phantom&lt;br&gt;Review of transactions&lt;br&gt;DMZ vs Corp&lt;br style=&quot;font-size: 28px;&quot;&gt;&lt;/font&gt;" style="rounded=1;whiteSpace=wrap;html=1;fontSize=28;align=left;gradientColor=none;perimeterSpacing=0;shadow=1;glass=1;sketch=0;spacingTop=0;spacingLeft=0;spacingBottom=0;spacing=20;" parent="1" vertex="1">
          <mxGeometry x="1670" y="1830.65" width="850" height="169.35" as="geometry" />
        </mxCell>
        <mxCell id="z-i8oNsVsfwiM3bhEd6i-1" value="Arbor&amp;nbsp; - DDOS&amp;nbsp;" style="rounded=1;whiteSpace=wrap;html=1;" vertex="1" parent="1">
          <mxGeometry x="590" y="760" width="120" height="60" as="geometry" />
        </mxCell>
        <mxCell id="z-i8oNsVsfwiM3bhEd6i-2" value="Ecomm Firewall - Port to destination mapping" style="rounded=1;whiteSpace=wrap;html=1;fontSize=13;" vertex="1" parent="1">
          <mxGeometry x="590" y="830" width="120" height="60" as="geometry" />
        </mxCell>
        <mxCell id="z-i8oNsVsfwiM3bhEd6i-3" value="WAF - inspecting requests&amp;nbsp;" style="rounded=1;whiteSpace=wrap;html=1;fontSize=13;" vertex="1" parent="1">
          <mxGeometry x="590" y="900" width="120" height="60" as="geometry" />
        </mxCell>
      </root>
    </mxGraphModel>
  </diagram>
</mxfile>
